<svg width="21" height="22" viewBox="0 0 21 22" fill="none" xmlns="http://www.w3.org/2000/svg">
<path fill-rule="evenodd" clip-rule="evenodd" d="M20.1134 9.50039C21.2955 10.091 21.2955 11.7762 20.1134 12.3669L2.32414 21.2596C1.05628 21.8931 -0.349024 20.6926 0.0781357 19.3424L2.58846 11.4175C2.6882 11.1025 2.6882 10.7647 2.58846 10.4497L0.0781357 2.52478C-0.348845 1.17466 1.05637 -0.0259193 2.32414 0.607646L20.1134 9.50039ZM19.4878 11.1148L1.69762 20.0074C1.64075 20.0363 1.60488 20.0354 1.58213 20.0319C1.5515 20.0275 1.51213 20.0118 1.4745 19.9803C1.43776 19.9479 1.41588 19.912 1.40713 19.8831C1.40013 19.8604 1.39401 19.8263 1.41326 19.765L3.92358 11.8401C3.94458 11.7718 3.96383 11.7027 3.98045 11.6336H10.4998C10.8866 11.6336 11.1998 11.3203 11.1998 10.9336C11.1998 10.5468 10.8866 10.2336 10.4998 10.2336H3.98045C3.96383 10.1644 3.94458 10.0953 3.92358 10.0271L1.41326 2.10212C1.39401 2.04087 1.40013 2.00675 1.40713 1.984C1.41588 1.95512 1.43776 1.91925 1.4745 1.88687C1.51213 1.85537 1.5515 1.83962 1.58213 1.83525C1.60488 1.83175 1.64075 1.83087 1.69762 1.85975L19.4878 10.7524C19.5377 10.7778 19.5596 10.804 19.5727 10.8259C19.5884 10.8521 19.5998 10.8889 19.5998 10.9335C19.5998 10.9781 19.5884 11.0149 19.5727 11.0411C19.5596 11.063 19.5377 11.0894 19.4878 11.1148Z" fill="#06498B"/>
</svg>
