<?xml version="1.0" encoding="utf-8"?>
<!-- Generator: Adobe Illustrator 26.0.1, SVG Export Plug-In . SVG Version: 6.00 Build 0)  -->
<svg version="1.1" xmlns="http://www.w3.org/2000/svg" xmlns:xlink="http://www.w3.org/1999/xlink" x="0px" y="0px"
	 viewBox="0 0 600 600" style="enable-background:new 0 0 600 600;" xml:space="preserve">
<style type="text/css">
	.st0{fill:url(#BG_12_00000104674047377003895490000015789640150079292578_);}
	.st1{fill:#35A8E0;}
	.st2{fill:#1E8EBA;}
	.st3{fill:#9C9B9B;}
	.st4{fill:#FFFFFF;}
</style>
<g id="BG">
	
		<radialGradient id="BG_12_00000026142620960993487670000015048359015675489976_" cx="300" cy="300" r="300" gradientUnits="userSpaceOnUse">
		<stop  offset="5.618000e-03" style="stop-color:#1D1D68"/>
		<stop  offset="0.3161" style="stop-color:#1B1B65"/>
		<stop  offset="0.5712" style="stop-color:#15155B"/>
		<stop  offset="0.8058" style="stop-color:#0C0C49"/>
		<stop  offset="1" style="stop-color:#000035"/>
	</radialGradient>
	<rect id="BG_12" style="fill:url(#BG_12_00000026142620960993487670000015048359015675489976_);" width="600" height="600"/>
</g>
<g id="Icon">
	<g>
		<g>
			<path class="st1" d="M300.7,308.6c0,0-55.8-60.4-54.2-140.9c0,0,7.7,53.2,34.1,51.7c26.3-1.5,51.1-62.5,51.1-62.5
				s-34.1,106.9,4.6,167.3c0,0-19.4-23.1-33.2-42.2c-2.8-3.9-8.9-1.3-8.1,3.4C296.1,291.8,297.9,299.7,300.7,308.6z"/>
			<g>
				<polygon class="st1" points="294.9,196.4 281.2,203.3 267.5,196.4 281.2,189.6 				"/>
				<path class="st2" d="M281.2,203.3l-8.4-4.2v7.1c0,1.8,3.8,3.2,8.4,3.2c4.7,0,8.4-1.4,8.4-3.2v-7.1L281.2,203.3z"/>
			</g>
		</g>
		<path class="st3" d="M290.9,310.6c0,0-40.2-46-48.8-83.3c0,0-6.7,14.4-41.2,24.9C200.9,252.1,234.4,253.1,290.9,310.6z"/>
		<path class="st4" d="M283.2,313.4c0,0-24.9-32.6-79.5-38.3l9.6-6.7C213.3,268.4,258.3,275.1,283.2,313.4z"/>
		<path class="st3" d="M340.7,320.1c0,0,1.9-42.1,42.1-79.5l-57.5-11.5C325.4,229.2,321.5,279.9,340.7,320.1z"/>
		<path class="st4" d="M347.4,321.1c0,0,11.5-36.4,51.7-53.6l-19.2-4.8C380,262.7,349.3,282.8,347.4,321.1z"/>
	</g>
</g>
<g id="Tagline">
	<g>
		<path class="st4" d="M77,433.5v-26.2h6.1v26.2H77z"/>
		<path class="st4" d="M120.7,433.5v-26.2h5l15.4,18.8h-2.4v-18.8h6v26.2h-5l-15.5-18.8h2.4v18.8H120.7z"/>
		<path class="st4" d="M190.9,434c-2.1,0-4.1-0.3-6-0.8s-3.5-1.3-4.6-2.2l2.1-4.6c1.1,0.8,2.4,1.5,4,2s3.1,0.8,4.7,0.8
			c1.2,0,2.2-0.1,2.9-0.4c0.7-0.2,1.3-0.6,1.6-1c0.3-0.4,0.5-0.9,0.5-1.5c0-0.7-0.3-1.3-0.8-1.7c-0.5-0.4-1.3-0.7-2.2-1
			c-0.9-0.3-1.9-0.5-3-0.7c-1.1-0.2-2.2-0.5-3.3-0.9c-1.1-0.3-2.1-0.8-3-1.3s-1.6-1.3-2.2-2.2c-0.6-0.9-0.8-2-0.8-3.4
			c0-1.5,0.4-2.9,1.2-4.1c0.8-1.2,2-2.2,3.7-3c1.6-0.7,3.7-1.1,6.1-1.1c1.6,0,3.3,0.2,4.9,0.6c1.6,0.4,3,1,4.2,1.7l-1.9,4.6
			c-1.2-0.7-2.4-1.2-3.7-1.6c-1.2-0.3-2.4-0.5-3.6-0.5c-1.2,0-2.1,0.1-2.9,0.4c-0.7,0.3-1.3,0.6-1.6,1.1c-0.3,0.4-0.5,0.9-0.5,1.5
			c0,0.7,0.3,1.2,0.8,1.6c0.5,0.4,1.3,0.7,2.2,1c0.9,0.2,1.9,0.5,3,0.7c1.1,0.2,2.2,0.5,3.3,0.9c1.1,0.3,2.1,0.8,3,1.3
			c0.9,0.5,1.6,1.3,2.2,2.2c0.6,0.9,0.8,2,0.8,3.4c0,1.5-0.4,2.8-1.2,4c-0.8,1.2-2,2.2-3.7,3C195.4,433.6,193.3,434,190.9,434z"/>
		<path class="st4" d="M242.5,433.5v-21.2h-8.4v-4.9H257v4.9h-8.4v21.2H242.5z"/>
		<path class="st4" d="M291.6,433.5v-26.2h6.1v26.2H291.6z"/>
		<path class="st4" d="M340.7,433.5v-21.2h-8.4v-4.9h22.8v4.9h-8.4v21.2H340.7z"/>
		<path class="st4" d="M400.9,434c-3.7,0-6.6-1-8.7-3.1c-2.1-2.1-3.1-5-3.1-8.9v-14.6h6.1v14.4c0,2.5,0.5,4.3,1.5,5.4
			c1,1.1,2.5,1.6,4.3,1.6c1.8,0,3.3-0.5,4.3-1.6c1-1.1,1.5-2.9,1.5-5.4v-14.4h6V422c0,3.8-1,6.8-3.1,8.9
			C407.5,432.9,404.6,434,400.9,434z"/>
		<path class="st4" d="M455.1,433.5v-21.2h-8.4v-4.9h22.8v4.9h-8.4v21.2H455.1z"/>
		<path class="st4" d="M510.2,428.6h14.2v4.9h-20.3v-26.2h19.8v4.9h-13.8V428.6z M509.7,417.9h12.6v4.7h-12.6V417.9z"/>
	</g>
</g>
<g id="Wordmark">
	<g>
		<path class="st4" d="M89.7,381.1h27.5v9.4H78.1v-50.4h38.1v9.4H89.7V381.1z M88.8,360.4h24.3v9.1H88.8V360.4z"/>
		<path class="st4" d="M126.4,390.5v-50.4h22.9c5.5,0,10.3,1,14.5,3.1s7.4,5,9.8,8.8c2.4,3.7,3.5,8.2,3.5,13.3
			c0,5.1-1.2,9.5-3.5,13.3c-2.4,3.8-5.6,6.7-9.8,8.8c-4.2,2.1-9,3.1-14.5,3.1H126.4z M138.1,380.9h10.7c3.4,0,6.3-0.6,8.8-1.9
			c2.5-1.3,4.4-3.1,5.8-5.4c1.4-2.4,2.1-5.1,2.1-8.3c0-3.2-0.7-6-2.1-8.3c-1.4-2.3-3.3-4.1-5.8-5.4c-2.5-1.3-5.4-1.9-8.8-1.9h-10.7
			V380.9z"/>
		<path class="st4" d="M208.3,391.4c-7.2,0-12.8-2-16.8-6c-4-4-6.1-9.7-6.1-17.1v-28.3h11.7v27.8c0,4.8,1,8.3,3,10.4
			c2,2.1,4.7,3.2,8.3,3.2c3.6,0,6.3-1.1,8.3-3.2c2-2.1,3-5.6,3-10.4v-27.8h11.5v28.3c0,7.4-2,13.1-6.1,17.1
			C221,389.4,215.4,391.4,208.3,391.4z"/>
		<path class="st4" d="M266.7,391.4c-3.9,0-7.5-0.6-10.8-1.9c-3.3-1.3-6.2-3.1-8.7-5.4c-2.5-2.4-4.4-5.1-5.7-8.3s-2.1-6.7-2.1-10.5
			c0-3.8,0.7-7.3,2.1-10.5s3.3-5.9,5.8-8.3c2.5-2.4,5.4-4.2,8.7-5.4c3.3-1.3,6.9-1.9,10.9-1.9c4.4,0,8.3,0.8,11.9,2.3
			c3.5,1.5,6.5,3.7,8.9,6.7L280,355c-1.7-2-3.7-3.4-5.8-4.4c-2.1-1-4.4-1.5-6.9-1.5c-2.4,0-4.5,0.4-6.5,1.2c-2,0.8-3.7,1.9-5.1,3.3
			s-2.6,3.1-3.4,5.1c-0.8,2-1.2,4.2-1.2,6.6c0,2.4,0.4,4.6,1.2,6.6c0.8,2,1.9,3.7,3.4,5.1s3.1,2.5,5.1,3.3c2,0.8,4.1,1.2,6.5,1.2
			c2.5,0,4.8-0.5,6.9-1.5c2.1-1,4-2.5,5.8-4.5l7.5,6.9c-2.4,2.9-5.4,5.2-8.9,6.7C275.1,390.6,271.1,391.4,266.7,391.4z"/>
		<path class="st4" d="M287.7,390.5l22.5-50.4h11.5l22.6,50.4H332L313.5,346h4.6l-18.5,44.5H287.7z M298.9,379.7l3.1-8.9H328
			l3.2,8.9H298.9z"/>
		<path class="st4" d="M357.4,390.5v-40.9h-16.1v-9.5h44v9.5H369v40.9H357.4z"/>
		<path class="st4" d="M391.4,390.5v-50.4h11.7v50.4H391.4z"/>
		<path class="st4" d="M439.5,391.4c-4,0-7.7-0.6-11.1-1.9c-3.4-1.3-6.3-3.1-8.8-5.5c-2.5-2.4-4.4-5.1-5.8-8.3
			c-1.4-3.2-2.1-6.6-2.1-10.4c0-3.7,0.7-7.2,2.1-10.4c1.4-3.2,3.3-5.9,5.8-8.3s5.4-4.2,8.8-5.5c3.4-1.3,7-1.9,11-1.9
			c4,0,7.7,0.6,11,1.9c3.3,1.3,6.2,3.1,8.7,5.5s4.4,5.1,5.8,8.3c1.4,3.1,2.1,6.6,2.1,10.4c0,3.7-0.7,7.2-2.1,10.4
			c-1.4,3.2-3.3,6-5.8,8.3c-2.5,2.3-5.4,4.1-8.7,5.4C447,390.7,443.4,391.4,439.5,391.4z M439.4,381.4c2.3,0,4.3-0.4,6.2-1.2
			c1.9-0.8,3.6-1.9,5-3.3s2.6-3.1,3.4-5.1c0.8-2,1.2-4.2,1.2-6.6c0-2.4-0.4-4.6-1.2-6.6c-0.8-2-1.9-3.7-3.3-5.1
			c-1.4-1.4-3.1-2.5-5-3.3c-1.9-0.8-4-1.2-6.3-1.2c-2.3,0-4.3,0.4-6.2,1.2c-1.9,0.8-3.6,1.9-5,3.3s-2.6,3.1-3.4,5.1
			c-0.8,2-1.2,4.2-1.2,6.6c0,2.4,0.4,4.5,1.2,6.5c0.8,2,1.9,3.7,3.3,5.2c1.4,1.4,3.1,2.5,5,3.3C435,381,437.1,381.4,439.4,381.4z"/>
		<path class="st4" d="M475.7,390.5v-50.4h9.7l29.8,36.3h-4.7v-36.3H522v50.4h-9.6l-29.8-36.3h4.7v36.3H475.7z"/>
	</g>
</g>
</svg>
