<svg width="32" height="32" viewBox="0 0 32 32" fill="none" xmlns="http://www.w3.org/2000/svg">
<path d="M3.29492 0.484585V1.64759H13.6166V0.484585C13.6166 0.242293 13.3743 0 13.132 0H3.77951C3.53721 0 3.29492 0.193834 3.29492 0.484585Z" fill="#06498B"/>
<path d="M6.44515 17.1543H4.11914V19.4803H6.44515V17.1543Z" fill="#06498B"/>
<path d="M6.44515 22.7754H4.11914V25.1014H6.44515V22.7754Z" fill="#06498B"/>
<path d="M12.7928 5.91211H10.4668V8.23812H12.7928V5.91211Z" fill="#06498B"/>
<path d="M6.44515 11.5332H4.11914V13.8592H6.44515V11.5332Z" fill="#06498B"/>
<path d="M12.7928 11.5332H10.4668V13.8592H12.7928V11.5332Z" fill="#06498B"/>
<path d="M11.6783 22.7754H10.4668V25.1014H11.6783V22.7754Z" fill="#06498B"/>
<path d="M0.484585 28.3971H1.69605H11.6785V26.0711H9.98246C9.74016 26.0711 9.49787 25.8773 9.49787 25.5865V22.2913C9.49787 22.0006 9.74016 21.8068 9.98246 21.8068H10.467C10.2247 21.6614 10.0309 21.4191 9.934 21.1768C9.83708 20.9345 9.78862 20.6438 9.83708 20.4015C9.64324 20.353 9.54633 20.1592 9.54633 19.9653V16.6702C9.54633 16.4279 9.78862 16.1856 10.0309 16.1856H13.3261C13.3746 16.1856 13.3746 16.1856 13.423 16.1856L15.749 13.7142V3.10177C15.749 2.81102 15.5067 2.61719 15.2644 2.61719H1.69605C1.4053 2.61719 1.21146 2.81102 1.21146 3.10177V27.4764H0.484585C0.193834 27.4764 0 27.7187 0 27.961C0 28.2033 0.193834 28.3971 0.484585 28.3971ZM9.49787 5.42778C9.49787 5.13703 9.74016 4.9432 9.98246 4.9432H13.2776C13.5684 4.9432 13.7622 5.13703 13.7622 5.42778V8.72296C13.7622 8.96525 13.5684 9.20755 13.2776 9.20755H9.98246C9.74016 9.20755 9.49787 8.96525 9.49787 8.72296V5.42778ZM9.49787 11.049C9.49787 10.7582 9.74016 10.5644 9.98246 10.5644H13.2776C13.5684 10.5644 13.7622 10.7582 13.7622 11.049V14.3441C13.7622 14.5864 13.5684 14.8287 13.2776 14.8287H9.98246C9.74016 14.8287 9.49787 14.5864 9.49787 14.3441V11.049ZM3.1498 5.42778C3.1498 5.13703 3.3921 4.9432 3.63439 4.9432H6.92957C7.22032 4.9432 7.41415 5.13703 7.41415 5.42778V8.72296C7.41415 8.96525 7.22032 9.20755 6.92957 9.20755H3.63439C3.3921 9.20755 3.1498 8.96525 3.1498 8.72296V5.42778ZM3.1498 11.049C3.1498 10.7582 3.3921 10.5644 3.63439 10.5644H6.92957C7.22032 10.5644 7.41415 10.7582 7.41415 11.049V14.3441C7.41415 14.5864 7.22032 14.8287 6.92957 14.8287H3.63439C3.3921 14.8287 3.1498 14.5864 3.1498 14.3441V11.049ZM3.1498 16.6702C3.1498 16.4279 3.3921 16.1856 3.63439 16.1856H6.92957C7.22032 16.1856 7.41415 16.4279 7.41415 16.6702V19.9653C7.41415 20.2561 7.22032 20.4499 6.92957 20.4499H3.63439C3.3921 20.4499 3.1498 20.2561 3.1498 19.9653V16.6702ZM3.1498 22.2913C3.1498 22.0006 3.3921 21.8068 3.63439 21.8068H6.92957C7.22032 21.8068 7.41415 22.0006 7.41415 22.2913V25.5865C7.41415 25.8773 7.22032 26.0711 6.92957 26.0711H3.63439C3.3921 26.0711 3.1498 25.8773 3.1498 25.5865V22.2913Z" fill="#06498B"/>
<path d="M10.4668 17.1543V19.2865L12.4536 17.1543H10.4668Z" fill="#06498B"/>
<path d="M6.44515 5.91211H4.11914V8.23812H6.44515V5.91211Z" fill="#06498B"/>
<path d="M26.1189 7.99609C26.1189 8.28684 26.3128 8.48067 26.6035 8.48067C26.8943 8.48067 27.0881 8.28684 27.0881 7.99609C27.0881 6.00929 25.489 4.41016 23.5022 4.41016C23.2599 4.41016 23.0176 4.60399 23.0176 4.89474C23.0176 5.18549 23.2599 5.37933 23.5022 5.37933C24.9559 5.37933 26.1189 6.54233 26.1189 7.99609Z" fill="#06498B"/>
<path d="M23.5022 0C23.2599 0 23.0176 0.193834 23.0176 0.484585C23.0176 0.775336 23.2599 0.96917 23.5022 0.96917C27.3788 0.96917 30.5286 4.11897 30.5286 7.99566C30.5286 8.28641 30.7225 8.48024 31.0132 8.48024C31.304 8.48024 31.4978 8.28641 31.4978 7.99566C31.4978 3.58593 27.9119 0 23.5022 0Z" fill="#06498B"/>
<path d="M23.5022 2.17969C23.2599 2.17969 23.0176 2.37352 23.0176 2.66427C23.0176 2.95502 23.2599 3.14886 23.5022 3.14886C26.1674 3.14886 28.348 5.32949 28.348 7.94625C28.348 8.237 28.5903 8.43084 28.8326 8.43084C29.0749 8.43084 29.3172 8.237 29.3172 7.94625C29.2687 4.79645 26.7004 2.17969 23.5022 2.17969Z" fill="#06498B"/>
<path d="M22.3885 9.10977C22.6792 9.40052 23.1154 9.59435 23.503 9.59435C23.8907 9.59435 24.3268 9.44898 24.6176 9.10977C25.2475 8.4798 25.2475 7.46218 24.6176 6.88067C23.9876 6.25071 22.97 6.25071 22.3885 6.88067C21.7585 7.46218 21.7585 8.4798 22.3885 9.10977Z" fill="#06498B"/>
<path d="M23.5509 23.2109H18.7051V31.2066H23.5509V23.2109Z" fill="#06498B"/>
<path d="M21.128 16.7189C21.69 16.7189 22.1456 16.2632 22.1456 15.7012C22.1456 15.1392 21.69 14.6836 21.128 14.6836C20.566 14.6836 20.1104 15.1392 20.1104 15.7012C20.1104 16.2632 20.566 16.7189 21.128 16.7189Z" fill="#06498B"/>
<path d="M28.9298 11.8733H25.7315C25.4408 11.8733 25.2469 12.1155 25.2469 12.3578V13.7631L21.4672 9.74108C21.2733 9.54724 20.9341 9.54724 20.7403 9.74108L10.9032 20.2566C10.7578 20.402 10.7094 20.5958 10.8063 20.7896C10.9032 20.9835 11.0486 21.0804 11.2424 21.0804H12.6477V30.7236C12.6477 30.9659 12.89 31.2082 13.1323 31.2082H17.7358V22.728C17.7358 22.4372 17.9297 22.2434 18.2204 22.2434H24.0355C24.3262 22.2434 24.52 22.4372 24.52 22.728V31.2082H29.1236C29.3659 31.2082 29.6082 30.9659 29.6082 30.7236V21.0804H31.0135C31.2073 21.0804 31.4012 20.9835 31.4496 20.7896C31.5465 20.5958 31.4981 20.402 31.3527 20.2566L29.4144 18.1729V12.3578C29.4144 12.1155 29.2205 11.8733 28.9298 11.8733ZM21.1279 17.6883C20.0619 17.6883 19.1411 16.816 19.1411 15.7015C19.1411 14.6354 20.0134 13.7147 21.1279 13.7147C22.194 13.7147 23.1147 14.5869 23.1147 15.7015C23.1147 16.816 22.194 17.6883 21.1279 17.6883Z" fill="#06498B"/>
</svg>
