<svg width="220" height="52" viewBox="0 0 220 52" fill="none" xmlns="http://www.w3.org/2000/svg">
<path d="M87.8421 30.2943V36.5432H66.2832V4.31641H73.5589V30.3389H87.8422L87.8421 30.2943Z" fill="white"/>
<path d="M114.891 24.269C114.891 26.1884 114.624 27.9738 114.043 29.536C113.463 31.1428 112.66 32.4819 111.633 33.6425C110.562 34.7584 109.312 35.6511 107.839 36.2759C106.366 36.9008 104.714 37.2134 102.885 37.2134C101.099 37.2134 99.4475 36.9008 97.9746 36.2759C96.5016 35.6511 95.2517 34.7583 94.1806 33.6425C93.1093 32.5265 92.3059 31.1428 91.7256 29.536C91.1453 27.9291 90.833 26.1883 90.833 24.269C90.833 22.3497 91.1454 20.609 91.7256 19.0021C92.3505 17.4399 93.1539 16.0561 94.2253 14.9403C95.2965 13.8244 96.5463 12.9763 98.0193 12.3515C99.4922 11.7266 101.099 11.4141 102.84 11.4141C104.625 11.4141 106.232 11.7266 107.705 12.3515C109.178 12.9763 110.428 13.8244 111.499 14.9403C112.57 16.0562 113.374 17.3953 113.954 19.0021C114.623 20.5643 114.891 22.3498 114.891 24.269ZM107.839 24.269C107.839 22.1265 107.393 20.4304 106.544 19.2253C105.696 18.0201 104.491 17.3953 102.884 17.3953C101.322 17.3953 100.072 18.0201 99.2243 19.2253C98.3763 20.4304 97.9298 22.1266 97.9298 24.269C97.9298 26.4116 98.3762 28.1077 99.2243 29.3576C100.072 30.6074 101.322 31.2322 102.884 31.2322C104.447 31.2322 105.696 30.6073 106.544 29.3576C107.393 28.1078 107.839 26.4116 107.839 24.269Z" fill="white"/>
<path d="M119.087 24.3137C119.087 22.5283 119.355 20.8768 119.935 19.3146C120.515 17.7524 121.319 16.3686 122.435 15.208C123.506 14.0476 124.845 13.1101 126.407 12.4407C127.969 11.7712 129.71 11.4141 131.719 11.4141C133.013 11.4141 134.218 11.5481 135.29 11.7712C136.361 11.9944 137.432 12.3514 138.459 12.7531L137.03 18.288C136.361 18.0202 135.647 17.8417 134.888 17.6185C134.129 17.44 133.236 17.3508 132.299 17.3508C130.246 17.3508 128.728 17.9756 127.702 19.2701C126.675 20.5645 126.184 22.216 126.184 24.3138C126.184 26.501 126.675 28.2418 127.612 29.447C128.55 30.6521 130.201 31.277 132.567 31.277C133.415 31.277 134.308 31.1878 135.245 31.0539C136.227 30.9199 137.075 30.6521 137.878 30.295L138.86 35.9637C138.057 36.3208 137.03 36.5885 135.825 36.8564C134.62 37.1241 133.281 37.2135 131.808 37.2135C129.576 37.2135 127.657 36.901 126.05 36.2314C124.443 35.562 123.104 34.6691 122.077 33.5087C121.051 32.3481 120.292 31.009 119.801 29.4469C119.355 27.8399 119.087 26.1438 119.087 24.3137Z" fill="white"/>
<path d="M151.135 11.4141C153.188 11.4141 154.885 11.6373 156.268 12.1283C157.652 12.5746 158.723 13.2443 159.571 14.1369C160.375 14.9849 160.955 16.0562 161.312 17.3061C161.669 18.5557 161.803 19.9395 161.803 21.4572V35.8743C160.821 36.0975 159.437 36.3653 157.652 36.6331C155.867 36.9457 153.724 37.0795 151.225 37.0795C149.662 37.0795 148.189 36.9455 146.94 36.6777C145.645 36.41 144.529 35.9636 143.592 35.2941C142.654 34.6691 141.94 33.8211 141.449 32.7944C140.958 31.7678 140.69 30.518 140.69 29.045C140.69 27.6167 140.958 26.4115 141.538 25.4296C142.119 24.4476 142.878 23.6442 143.86 23.0638C144.842 22.4836 145.913 22.0373 147.163 21.7694C148.412 21.5017 149.707 21.3677 151.046 21.3677C151.939 21.3677 152.742 21.4123 153.456 21.5017C154.171 21.5909 154.706 21.6802 155.152 21.8141V21.1447C155.152 19.9841 154.795 19.0021 154.081 18.288C153.367 17.5738 152.117 17.2168 150.377 17.2168C149.216 17.2168 148.055 17.306 146.895 17.4846C145.735 17.6631 144.752 17.8863 143.904 18.1988L143.012 12.6193C143.413 12.4854 143.904 12.3515 144.529 12.2176C145.154 12.0837 145.779 11.9498 146.493 11.8605C147.208 11.7712 147.966 11.6374 148.77 11.5928C149.528 11.4587 150.332 11.4141 151.135 11.4141ZM151.715 31.7232C152.385 31.7232 153.054 31.7232 153.679 31.6786C154.304 31.634 154.795 31.5894 155.152 31.5447V26.2777C154.884 26.2331 154.438 26.1438 153.902 26.0992C153.322 26.0546 152.831 26.01 152.385 26.01C151.715 26.01 151.135 26.0546 150.555 26.1439C149.975 26.2331 149.484 26.367 149.037 26.5902C148.591 26.8135 148.278 27.0812 148.011 27.4829C147.743 27.84 147.653 28.3309 147.653 28.8665C147.653 29.9378 148.011 30.6966 148.769 31.143C149.439 31.5001 150.421 31.7232 151.715 31.7232Z" fill="white"/>
<path d="M177.872 36.99C175.863 36.9454 174.212 36.7222 172.962 36.3206C171.712 35.9189 170.73 35.3385 169.971 34.6244C169.257 33.9103 168.766 33.0176 168.498 31.991C168.231 30.9643 168.097 29.7593 168.097 28.4647V1.54944L175.015 0.433594V27.0809C175.015 27.7059 175.06 28.2415 175.149 28.7771C175.238 29.268 175.417 29.7146 175.685 30.0269C175.953 30.384 176.31 30.6518 176.845 30.8749C177.336 31.0981 178.006 31.232 178.854 31.2766L177.872 36.99Z" fill="white"/>
<path d="M190.37 4.98737C190.37 6.28184 189.968 7.26367 189.12 7.97792C188.316 8.69216 187.334 9.09388 186.218 9.09388C185.103 9.09388 184.12 8.73676 183.317 7.97792C182.514 7.26367 182.067 6.23713 182.067 4.98737C182.067 3.73761 182.469 2.71096 183.317 1.99672C184.12 1.28258 185.103 0.880859 186.218 0.880859C187.334 0.880859 188.316 1.23799 189.12 1.99672C189.968 2.71085 190.37 3.7375 190.37 4.98737ZM189.745 36.5445H182.826V12.0843H189.745V36.5445Z" fill="white"/>
<path d="M219.16 24.269C219.16 26.1884 218.892 27.9738 218.312 29.536C217.732 31.1428 216.928 32.4819 215.902 33.6425C214.83 34.7584 213.581 35.6511 212.108 36.2759C210.635 36.9008 208.983 37.2134 207.153 37.2134C205.368 37.2134 203.716 36.9008 202.243 36.2759C200.77 35.6511 199.52 34.7583 198.449 33.6425C197.378 32.5266 196.574 31.1428 195.994 29.536C195.414 27.9291 195.102 26.1883 195.102 24.269C195.102 22.3497 195.414 20.609 195.994 19.0021C196.619 17.4399 197.422 16.0561 198.494 14.9403C199.565 13.8244 200.815 12.9763 202.288 12.3515C203.761 11.7266 205.368 11.4141 207.108 11.4141C208.894 11.4141 210.501 11.7266 211.974 12.3515C213.447 12.9763 214.696 13.8244 215.768 14.9403C216.839 16.0562 217.642 17.3953 218.223 19.0021C218.847 20.5643 219.16 22.3498 219.16 24.269ZM212.063 24.269C212.063 22.1265 211.617 20.4304 210.768 19.2253C209.92 18.0201 208.715 17.3953 207.108 17.3953C205.546 17.3953 204.296 18.0201 203.448 19.2253C202.6 20.4304 202.154 22.1266 202.154 24.269C202.154 26.4116 202.6 28.1077 203.448 29.3576C204.296 30.6074 205.546 31.2322 207.108 31.2322C208.671 31.2322 209.92 30.6073 210.768 29.3576C211.661 28.1078 212.063 26.4116 212.063 24.269Z" fill="white"/>
<path d="M45.6174 0.433594H6.0258C2.67814 0.433594 0 3.11162 0 6.45929V31.1873C0 34.4904 2.67814 37.2131 6.0258 37.2131L30.1289 37.2577L44.0105 51.1393V37.2131H45.6174C48.9205 37.2131 51.6432 34.535 51.6432 31.1873V6.45929C51.6432 3.11162 48.9205 0.433594 45.6174 0.433594ZM30.0396 6.19159C31.7804 6.19159 33.2087 8.69121 33.2087 11.7264C33.2087 14.7615 31.7804 17.2611 30.0396 17.2611C28.2988 17.2611 26.8706 14.7615 26.8706 11.7264C26.8706 8.69121 28.2989 6.19159 30.0396 6.19159ZM17.2293 6.19159C18.9701 6.19159 20.3983 8.69121 20.3983 11.7264C20.3983 14.7615 18.9701 17.2611 17.2293 17.2611C15.4439 17.2611 14.0602 14.7615 14.0602 11.7264C14.0602 8.69121 15.4885 6.19159 17.2293 6.19159ZM38.5203 22.4388C37.8954 22.171 37.3152 21.7693 36.8241 21.2782C36.1099 23.5994 34.8155 25.7418 33.0748 27.4379C31.0216 29.4019 28.388 30.741 25.6207 31.2765C22.8086 31.7228 19.9073 31.4105 17.3185 30.25C14.7296 29.134 12.4978 27.1701 11.0248 24.8045L11.2481 24.6259C13.6138 26.3221 15.8902 27.4825 18.2112 28.1075C20.5322 28.6877 22.8532 28.7323 25.0851 28.3752C27.3169 27.9735 29.4593 27.1254 31.4233 25.7418C33.2087 24.4473 34.8155 22.8404 36.2885 20.7426C35.8868 20.2963 35.5297 19.7605 35.3065 19.1803C34.994 18.4661 34.8155 17.7073 34.8601 16.9486C35.3511 17.5288 35.7975 18.0645 36.2439 18.6001C36.6902 19.091 37.1366 19.582 37.583 20.073C38.0739 20.5639 38.5649 21.0103 39.0558 21.4567C39.5469 21.9031 40.0825 22.3494 40.6627 22.885C39.8594 22.9298 39.1006 22.7513 38.5203 22.4388Z" fill="white"/>
</svg>
