<svg width="20" height="20" viewBox="0 0 20 20" fill="none" xmlns="http://www.w3.org/2000/svg">
<path d="M11.8327 2.396C10.8105 2.396 9.83017 2.80206 9.10737 3.52486C8.38458 4.24765 7.97852 5.22797 7.97852 6.25016V8.396H5.91602C5.81268 8.396 5.72852 8.47933 5.72852 8.5835V11.4168C5.72852 11.5202 5.81185 11.6043 5.91602 11.6043H7.97852V17.4168C7.97852 17.5202 8.06185 17.6043 8.16602 17.6043H10.9993C11.1027 17.6043 11.1868 17.521 11.1868 17.4168V11.6043H13.2677C13.3535 11.6043 13.4285 11.546 13.4493 11.4627L14.1577 8.62933C14.1647 8.60168 14.1652 8.57281 14.1594 8.54491C14.1535 8.517 14.1413 8.49081 14.1238 8.46831C14.1063 8.44581 14.0839 8.4276 14.0583 8.41507C14.0327 8.40254 14.0045 8.39602 13.976 8.396H11.1868V6.25016C11.1868 6.16535 11.2036 6.08137 11.236 6.00301C11.2685 5.92466 11.316 5.85346 11.376 5.79349C11.436 5.73352 11.5072 5.68595 11.5855 5.65349C11.6639 5.62103 11.7479 5.60433 11.8327 5.60433H13.9993C14.1027 5.60433 14.1868 5.521 14.1868 5.41683V2.5835C14.1868 2.48016 14.1035 2.396 13.9993 2.396H11.8327Z" fill="black"/>
</svg>
