<svg width="25" height="25" viewBox="0 0 25 25" fill="none" xmlns="http://www.w3.org/2000/svg">
<circle cx="12.5" cy="12.5" r="12.5" fill="white"/>
<path d="M7 10.6626V10.635C7 10.0729 7.10776 9.53621 7.30326 9.04396L7.29297 9.07321C7.47918 8.59211 7.75418 8.15031 8.10364 7.77083L8.10093 7.77353C8.80308 7.02158 9.70128 6.48068 10.6943 6.21176L10.7328 6.2031C11.2458 6.06688 11.7745 5.9986 12.3054 6.00002H12.3113H12.3503C13.1713 6.00002 13.9478 6.19226 14.6367 6.53343L14.6063 6.51989C15.3005 6.8581 15.8926 7.37418 16.3224 8.0156L16.3322 8.0313C16.7672 8.67799 16.9985 9.44022 16.9961 10.2196L16.9956 10.2754V10.2727V10.2814C16.9956 10.798 16.9414 11.3021 16.8385 11.7879L16.8466 11.7408C16.7455 12.2317 16.5829 12.7078 16.3625 13.158L16.3782 13.1233C16.1754 13.5506 15.9114 13.9461 15.5946 14.2973L15.5984 14.293C15.2857 14.6306 14.9079 14.9013 14.4877 15.0891L14.4661 15.0977C14.0142 15.2977 13.5252 15.4003 13.031 15.3988H12.9877H12.9899C12.6189 15.3959 12.2534 15.3083 11.9214 15.1427L11.9355 15.1492C11.619 15.0108 11.3569 14.7719 11.1898 14.4696L11.1855 14.4614C11.1335 14.6636 11.0613 14.9564 10.9689 15.3398C10.8765 15.7232 10.8153 15.9705 10.7853 16.0817C10.7564 16.1936 10.703 16.3785 10.625 16.6362C10.5644 16.8528 10.495 17.037 10.4122 17.2135L10.4219 17.1907L10.1717 17.6792C10.0504 17.9159 9.9313 18.1146 9.80025 18.3041L9.81217 18.2857C9.68184 18.4756 9.52046 18.7007 9.32804 18.961L9.21865 19L9.14825 18.922C9.07027 18.1043 9.03128 17.6149 9.03128 17.4539C9.03886 16.8788 9.09807 16.3223 9.2089 15.7844L9.19915 15.8413C9.31107 15.2452 9.48436 14.4968 9.71902 13.5961C9.95369 12.6953 10.0891 12.1668 10.1252 12.0105C9.94065 11.5936 9.8552 11.1397 9.87553 10.6843V10.6902C9.87553 10.2294 10.0266 9.80427 10.2817 9.46094L10.2779 9.46636C10.3879 9.29223 10.54 9.14867 10.7203 9.049C10.9005 8.94932 11.103 8.89674 11.309 8.89613C11.3238 8.8954 11.34 8.89504 11.3577 8.89504C11.6344 8.89504 11.8824 9.01743 12.0503 9.2113L12.0514 9.21238C12.2171 9.41708 12.3178 9.68026 12.3178 9.96727L12.3167 10.0155V10.0133C12.2804 10.5373 12.1604 11.0521 11.9615 11.5383L11.9734 11.5052C11.7856 11.9657 11.6701 12.4526 11.6312 12.9484L11.6301 12.9657L11.6295 12.9917C11.6295 13.3047 11.7649 13.5863 11.9805 13.7807L11.9815 13.7818C12.1976 13.9827 12.4879 14.1062 12.8074 14.1062L12.8344 14.1056H12.8334H12.8464C13.1334 14.1056 13.4031 14.0331 13.6392 13.9058L13.6305 13.9102C13.8706 13.7826 14.079 13.6027 14.2403 13.3838L14.2435 13.3789C14.4016 13.1645 14.5473 12.9208 14.6697 12.6641L14.6811 12.637C14.7997 12.3906 14.902 12.1031 14.9719 11.8031L14.9778 11.7744C15.0352 11.5442 15.0905 11.2502 15.1295 10.9512L15.1343 10.9079C15.1657 10.6756 15.1841 10.4059 15.1852 10.1319V10.1308C15.2075 9.73897 15.1425 9.34708 14.995 8.98337C14.8475 8.61966 14.6212 8.2932 14.3323 8.02751L14.3307 8.02589C13.7067 7.50162 12.9077 7.23239 12.0936 7.27208H12.1007C11.6201 7.25775 11.1416 7.33994 10.6933 7.51379C10.2451 7.68763 9.83627 7.9496 9.49104 8.2842L9.49212 8.28311C9.14724 8.61432 8.87583 9.01432 8.6955 9.45717C8.51516 9.90003 8.42994 10.3758 8.44534 10.8538V10.8483V10.8548C8.44534 11.0893 8.48109 11.3151 8.54715 11.528L8.54282 11.5117C8.59806 11.705 8.67008 11.874 8.75997 12.0305L8.75402 12.0191C8.82947 12.144 8.89987 12.2625 8.96521 12.3744C9.01287 12.4421 9.04698 12.5222 9.06215 12.6089L9.06269 12.6126C9.05325 12.8122 9.01231 13.0091 8.94139 13.1959L8.94572 13.1829C8.86774 13.4172 8.77135 13.5343 8.65654 13.5343C8.64607 13.5343 8.60185 13.5266 8.52387 13.511C8.25434 13.4299 8.01085 13.2794 7.81771 13.0746L7.81717 13.0735C7.6156 12.8653 7.45569 12.6204 7.34604 12.3522L7.34062 12.337C7.23291 12.0745 7.1497 11.8026 7.09206 11.5247L7.08664 11.4933C7.02989 11.2202 7.00104 10.9421 7.00054 10.6631L7 10.6626Z" fill="#06498B"/>
</svg>
