<svg width="25" height="25" viewBox="0 0 25 25" fill="none" xmlns="http://www.w3.org/2000/svg">
<circle cx="12.5" cy="12.5" r="12.5" fill="white"/>
<path d="M17.4706 15.5588C17.4706 15.3464 17.3962 15.1659 17.2475 15.0172L15.5907 13.3603C15.442 13.2116 15.2614 13.1373 15.049 13.1373C14.826 13.1373 14.6348 13.2222 14.4755 13.3922C14.4914 13.4081 14.5419 13.4572 14.6268 13.5395C14.7118 13.6218 14.7689 13.6789 14.7981 13.7108C14.8273 13.7426 14.8671 13.7931 14.9176 13.8621C14.968 13.9312 15.0026 13.9989 15.0211 14.0653C15.0397 14.1316 15.049 14.2047 15.049 14.2843C15.049 14.4967 14.9747 14.6773 14.826 14.826C14.6773 14.9747 14.4967 15.049 14.2843 15.049C14.2047 15.049 14.1316 15.0397 14.0653 15.0211C13.9989 15.0026 13.9312 14.968 13.8621 14.9176C13.7931 14.8671 13.7426 14.8273 13.7108 14.7981C13.6789 14.7689 13.6218 14.7118 13.5395 14.6268C13.4572 14.5419 13.4081 14.4914 13.3922 14.4755C13.2169 14.6401 13.1293 14.8339 13.1293 15.057C13.1293 15.2694 13.2036 15.45 13.3523 15.5987L14.9933 17.2475C15.1366 17.3909 15.3172 17.4626 15.5349 17.4626C15.7473 17.4626 15.9279 17.3936 16.0766 17.2555L17.2475 16.0925C17.3962 15.9438 17.4706 15.7659 17.4706 15.5588ZM11.8707 9.94301C11.8707 9.7306 11.7964 9.55004 11.6477 9.40135L10.0067 7.75245C9.85805 7.60376 9.67749 7.52941 9.46507 7.52941C9.25797 7.52941 9.07741 7.6011 8.92341 7.74449L7.75245 8.90748C7.60376 9.05617 7.52941 9.23407 7.52941 9.44118C7.52941 9.65359 7.60376 9.83415 7.75245 9.98284L9.40931 11.6397C9.5527 11.7831 9.73325 11.8548 9.95098 11.8548C10.174 11.8548 10.3652 11.7725 10.5245 11.6078C10.5086 11.5919 10.4581 11.5428 10.3732 11.4605C10.2882 11.3782 10.2311 11.3211 10.2019 11.2892C10.1727 11.2574 10.1329 11.2069 10.0824 11.1379C10.032 11.0688 9.99745 11.0011 9.97886 10.9347C9.96027 10.8684 9.95098 10.7953 9.95098 10.7157C9.95098 10.5033 10.0253 10.3227 10.174 10.174C10.3227 10.0253 10.5033 9.95098 10.7157 9.95098C10.7953 9.95098 10.8684 9.96027 10.9347 9.97886C11.0011 9.99745 11.0688 10.032 11.1379 10.0824C11.2069 10.1329 11.2574 10.1727 11.2892 10.2019C11.3211 10.2311 11.3782 10.2882 11.4605 10.3732C11.5428 10.4581 11.5919 10.5086 11.6078 10.5245C11.7831 10.3599 11.8707 10.1661 11.8707 9.94301ZM19 15.5588C19 16.1961 18.7743 16.7351 18.3229 17.1759L17.152 18.3388C16.7112 18.7796 16.1722 19 15.5349 19C14.8924 19 14.3507 18.7743 13.9099 18.3229L12.269 16.674C11.8282 16.2333 11.6078 15.6942 11.6078 15.057C11.6078 14.4038 11.8415 13.8489 12.3088 13.3922L11.6078 12.6912C11.1511 13.1585 10.5989 13.3922 9.95098 13.3922C9.31373 13.3922 8.77206 13.1691 8.32598 12.723L6.66912 11.0662C6.22304 10.6201 6 10.0784 6 9.44118C6 8.80392 6.22569 8.26491 6.67708 7.82414L7.84804 6.66115C8.28881 6.22038 8.82782 6 9.46507 6C10.1076 6 10.6493 6.22569 11.0901 6.67708L12.731 8.32598C13.1718 8.76675 13.3922 9.30576 13.3922 9.94301C13.3922 10.5962 13.1585 11.1511 12.6912 11.6078L13.3922 12.3088C13.8489 11.8415 14.4011 11.6078 15.049 11.6078C15.6863 11.6078 16.2279 11.8309 16.674 12.277L18.3309 13.9338C18.777 14.3799 19 14.9216 19 15.5588Z" fill="#06498B"/>
</svg>
