<svg width="33" height="26" viewBox="0 0 33 26" fill="none" xmlns="http://www.w3.org/2000/svg">
<path d="M31.35 9.81132H29.535L28.545 2.77987C28.38 1.14465 26.895 0 25.245 0H7.755C6.105 0 4.785 1.14465 4.455 2.77987L3.465 9.81132H1.65C0.66 9.81132 0 10.4654 0 11.4465C0 12.4277 0.66 13.0818 1.65 13.0818H2.145C1.815 13.7358 1.65 14.5535 1.65 15.3711V20.9308C1.65 21.9119 2.31 22.7296 3.3 22.7296V24.3648C3.3 25.3459 4.125 26 4.95 26H6.6C7.59 26 8.25 25.1824 8.25 24.3648V22.7296H24.75V24.3648C24.75 25.3459 25.575 26 26.4 26H28.05C29.04 26 29.7 25.1824 29.7 24.3648V22.7296C30.69 22.566 31.35 21.7484 31.35 20.9308V15.3711C31.35 14.5535 31.185 13.7358 30.855 13.0818H31.35C32.34 13.0818 33 12.4277 33 11.4465C33 10.4654 32.34 9.81132 31.35 9.81132ZM26.4 17.9874C25.41 17.9874 24.75 17.3333 24.75 16.3522C24.75 15.3711 25.41 14.717 26.4 14.717C27.39 14.717 28.05 15.3711 28.05 16.3522C28.05 17.3333 27.39 17.9874 26.4 17.9874ZM5.61 6.7044L6.105 3.10692C6.27 2.28931 6.93 1.63522 7.755 1.63522H25.08C25.905 1.63522 26.565 2.28931 26.73 3.10692L27.225 6.7044C27.39 8.33962 26.235 9.81132 24.585 9.81132H8.415C6.765 9.81132 5.445 8.33962 5.61 6.7044ZM6.6 17.9874C5.61 17.9874 4.95 17.3333 4.95 16.3522C4.95 15.3711 5.61 14.717 6.6 14.717C7.59 14.717 8.25 15.3711 8.25 16.3522C8.25 17.3333 7.59 17.9874 6.6 17.9874ZM21.45 17.9874H11.55V16.3522H21.45V17.9874Z" fill="#06498B"/>
</svg>
