<svg width="199" height="47" viewBox="0 0 199 47" fill="none" xmlns="http://www.w3.org/2000/svg">
<path d="M79.7623 27.6826V33.3567H60.1865V4.09436H66.7929V27.7231H79.7624L79.7623 27.6826Z" fill="white"/>
<path d="M104.323 22.2115C104.323 23.9544 104.08 25.5755 103.553 26.994C103.026 28.453 102.296 29.6689 101.364 30.7227C100.392 31.736 99.2566 32.5466 97.9192 33.1139C96.5818 33.6814 95.0821 33.9651 93.4204 33.9651C91.7993 33.9651 90.2996 33.6814 88.9622 33.1139C87.6247 32.5466 86.4898 31.7359 85.5172 30.7227C84.5445 29.7094 83.8149 28.453 83.2881 26.994C82.7611 25.5349 82.4775 23.9543 82.4775 22.2115C82.4775 20.4688 82.7612 18.8882 83.2881 17.4291C83.8554 16.0106 84.585 14.7541 85.5578 13.741C86.5305 12.7277 87.6653 11.9576 89.0028 11.3903C90.3402 10.8228 91.7993 10.5391 93.38 10.5391C95.0011 10.5391 96.4602 10.8228 97.7977 11.3903C99.135 11.9576 100.27 12.7277 101.243 13.741C102.215 14.7542 102.945 15.9701 103.472 17.4291C104.08 18.8476 104.323 20.4689 104.323 22.2115ZM97.9191 22.2115C97.9191 20.2661 97.5139 18.726 96.7438 17.6317C95.9736 16.5374 94.8794 15.9701 93.4204 15.9701C92.0018 15.9701 90.867 16.5374 90.097 17.6317C89.3269 18.726 88.9216 20.2662 88.9216 22.2115C88.9216 24.157 89.3268 25.6971 90.097 26.832C90.8671 27.9669 92.0019 28.5341 93.4204 28.5341C94.8388 28.5341 95.9737 27.9668 96.7438 26.832C97.5138 25.6972 97.9191 24.157 97.9191 22.2115Z" fill="white"/>
<path d="M108.133 22.252C108.133 20.6308 108.376 19.1313 108.903 17.7127C109.43 16.2942 110.159 15.0377 111.173 13.9839C112.145 12.9302 113.361 12.079 114.78 11.4712C116.198 10.8632 117.779 10.5389 119.603 10.5389C120.778 10.5389 121.872 10.6606 122.845 10.8632C123.818 11.0659 124.791 11.3901 125.723 11.7548L124.426 16.7806C123.818 16.5374 123.169 16.3753 122.48 16.1726C121.791 16.0105 120.981 15.9295 120.13 15.9295C118.265 15.9295 116.887 16.4969 115.955 17.6723C115.023 18.8477 114.577 20.3472 114.577 22.2521C114.577 24.2381 115.023 25.8187 115.874 26.913C116.725 28.0073 118.225 28.5747 120.373 28.5747C121.143 28.5747 121.953 28.4937 122.804 28.3721C123.696 28.2504 124.466 28.0073 125.196 27.6831L126.087 32.8303C125.358 33.1546 124.426 33.3977 123.331 33.6408C122.237 33.8839 121.021 33.9651 119.684 33.9651C117.657 33.9651 115.915 33.6813 114.455 33.0734C112.996 32.4656 111.78 31.6548 110.848 30.6011C109.916 29.5473 109.227 28.3314 108.781 26.9129C108.376 25.4538 108.133 23.9137 108.133 22.252Z" fill="white"/>
<path d="M137.233 10.5389C139.097 10.5389 140.637 10.7416 141.894 11.1875C143.15 11.5927 144.123 12.2008 144.893 13.0113C145.623 13.7813 146.15 14.754 146.474 15.8889C146.798 17.0236 146.92 18.2801 146.92 19.6582V32.7491C146.028 32.9518 144.772 33.195 143.15 33.4382C141.529 33.7219 139.584 33.8434 137.314 33.8434C135.896 33.8434 134.558 33.7218 133.423 33.4787C132.248 33.2356 131.235 32.8302 130.383 32.2223C129.532 31.6548 128.884 30.8848 128.438 29.9526C127.992 29.0204 127.749 27.8856 127.749 26.5481C127.749 25.2511 127.992 24.1568 128.519 23.2652C129.046 22.3736 129.735 21.644 130.627 21.1171C131.518 20.5902 132.491 20.185 133.626 19.9417C134.761 19.6986 135.936 19.5769 137.152 19.5769C137.963 19.5769 138.692 19.6174 139.341 19.6986C139.989 19.7796 140.475 19.8607 140.881 19.9823V19.3744C140.881 18.3206 140.556 17.429 139.908 16.7806C139.26 16.132 138.125 15.8079 136.544 15.8079C135.49 15.8079 134.437 15.8888 133.383 16.051C132.329 16.2131 131.437 16.4158 130.667 16.6996L129.857 11.6333C130.222 11.5117 130.667 11.3902 131.235 11.2686C131.802 11.147 132.37 11.0254 133.018 10.9443C133.667 10.8632 134.356 10.7417 135.085 10.7012C135.774 10.5794 136.504 10.5389 137.233 10.5389ZM137.76 28.9799C138.368 28.9799 138.976 28.9799 139.543 28.9394C140.11 28.8989 140.556 28.8584 140.881 28.8178V24.0353C140.637 23.9948 140.232 23.9137 139.746 23.8732C139.219 23.8327 138.773 23.7922 138.368 23.7922C137.76 23.7922 137.233 23.8327 136.706 23.9138C136.179 23.9948 135.733 24.1164 135.328 24.3191C134.923 24.5218 134.639 24.7648 134.396 25.1296C134.153 25.4539 134.072 25.8996 134.072 26.386C134.072 27.3587 134.396 28.0477 135.085 28.453C135.693 28.7773 136.585 28.9799 137.76 28.9799Z" fill="white"/>
<path d="M161.511 33.7621C159.687 33.7216 158.187 33.5189 157.052 33.1542C155.918 32.7894 155.026 32.2625 154.337 31.614C153.688 30.9656 153.243 30.1551 153 29.2229C152.756 28.2906 152.635 27.1964 152.635 26.021V1.58157L158.917 0.568359V24.7645C158.917 25.3319 158.957 25.8183 159.039 26.3046C159.12 26.7504 159.282 27.1559 159.525 27.4394C159.768 27.7637 160.092 28.0069 160.579 28.2095C161.025 28.4121 161.632 28.5337 162.403 28.5742L161.511 33.7621Z" fill="white"/>
<path d="M172.859 4.70235C172.859 5.87775 172.494 6.76926 171.724 7.4178C170.994 8.06634 170.103 8.43111 169.089 8.43111C168.076 8.43111 167.185 8.10684 166.455 7.4178C165.725 6.76926 165.32 5.83715 165.32 4.70235C165.32 3.56756 165.685 2.63534 166.455 1.9868C167.185 1.33836 168.076 0.973587 169.089 0.973587C170.103 0.973587 170.994 1.29786 171.724 1.9868C172.494 2.63524 172.859 3.56746 172.859 4.70235ZM172.291 33.3567H166.009V11.1465H172.291V33.3567Z" fill="white"/>
<path d="M199.001 22.2115C199.001 23.9544 198.757 25.5755 198.231 26.994C197.704 28.453 196.974 29.6689 196.042 30.7227C195.069 31.736 193.934 32.5466 192.597 33.1139C191.259 33.6814 189.76 33.9651 188.098 33.9651C186.477 33.9651 184.977 33.6814 183.64 33.1139C182.303 32.5466 181.168 31.7359 180.195 30.7227C179.222 29.7095 178.493 28.453 177.966 26.994C177.439 25.5349 177.155 23.9543 177.155 22.2115C177.155 20.4688 177.439 18.8882 177.966 17.4291C178.533 16.0106 179.263 14.7541 180.235 13.741C181.208 12.7277 182.343 11.9576 183.68 11.3903C185.018 10.8228 186.477 10.5391 188.058 10.5391C189.679 10.5391 191.138 10.8228 192.475 11.3903C193.813 11.9576 194.948 12.7277 195.92 13.741C196.893 14.7542 197.623 15.9701 198.149 17.4291C198.717 18.8476 199.001 20.4689 199.001 22.2115ZM192.556 22.2115C192.556 20.2661 192.151 18.726 191.381 17.6317C190.611 16.5374 189.517 15.9701 188.058 15.9701C186.639 15.9701 185.504 16.5374 184.734 17.6317C183.964 18.726 183.559 20.2662 183.559 22.2115C183.559 24.157 183.964 25.6971 184.734 26.832C185.504 27.9669 186.639 28.5341 188.058 28.5341C189.476 28.5341 190.611 27.9668 191.381 26.832C192.192 25.6972 192.556 24.157 192.556 22.2115Z" fill="white"/>
<path d="M41.4211 0.568741H5.4715C2.43178 0.568741 0 3.00042 0 6.04015V28.4935C0 31.4927 2.43178 33.965 5.4715 33.965L27.3574 34.0055L39.9621 46.6102V33.965H41.4211C44.4204 33.965 46.8926 31.5332 46.8926 28.4935V6.04015C46.8926 3.00042 44.4204 0.568741 41.4211 0.568741ZM27.2763 5.79707C28.857 5.79707 30.1539 8.06676 30.1539 10.8227C30.1539 13.5787 28.857 15.8484 27.2763 15.8484C25.6957 15.8484 24.3988 13.5787 24.3988 10.8227C24.3988 8.06676 25.6958 5.79707 27.2763 5.79707ZM15.6444 5.79707C17.225 5.79707 18.5219 8.06676 18.5219 10.8227C18.5219 13.5787 17.225 15.8484 15.6444 15.8484C14.0232 15.8484 12.7668 13.5787 12.7668 10.8227C12.7668 8.06676 14.0637 5.79707 15.6444 5.79707ZM34.9769 20.5497C34.4095 20.3066 33.8826 19.9418 33.4368 19.4959C32.7882 21.6035 31.6129 23.5489 30.0323 25.089C28.1679 26.8724 25.7767 28.0882 23.2639 28.5745C20.7105 28.9798 18.0761 28.6962 15.7254 27.6424C13.3747 26.6291 11.3482 24.8458 10.0107 22.6978L10.2134 22.5357C12.3615 24.0758 14.4285 25.1295 16.536 25.697C18.6435 26.2238 20.751 26.2643 22.7775 25.94C24.8041 25.5753 26.7494 24.8052 28.5327 23.5489C30.1539 22.3735 31.6129 20.9144 32.9504 19.0096C32.5856 18.6043 32.2614 18.1179 32.0587 17.591C31.775 16.9425 31.6129 16.2535 31.6534 15.5646C32.0992 16.0914 32.5046 16.5778 32.9099 17.0641C33.3152 17.5099 33.7204 17.9558 34.1258 18.4015C34.5716 18.8473 35.0174 19.2526 35.4632 19.658C35.909 20.0633 36.3954 20.4685 36.9223 20.9549C36.1928 20.9956 35.5038 20.8335 34.9769 20.5497Z" fill="white"/>
</svg>
