<svg width="63" height="63" viewBox="0 0 63 63" fill="none" xmlns="http://www.w3.org/2000/svg">
<rect width="63" height="63" rx="31.5" fill="#21AC21" fill-opacity="0.16"/>
<path d="M26.4687 19.2407C26.4687 18.0811 26.7817 17.2246 27.3901 16.7048C28.0202 16.1654 29.8847 16.0236 30.5147 16C30.751 23.8478 33.8972 27.4607 36.2562 29.0752C37.284 29.78 37.9238 30.9259 37.9238 32.1742V42.2846C37.9238 44.3362 36.2601 45.9999 34.2085 45.9999H19.7785C18.674 45.9999 17.8943 44.917 17.7171 43.8971L15.5395 31.3708C15.4037 30.5991 15.636 29.7721 16.1539 29.1578C16.587 28.644 17.1619 28.3565 17.7624 28.3565H26.331C26.648 28.3565 26.9453 28.2108 27.1383 27.9588C27.3293 27.7068 27.3903 27.38 27.3037 27.0767C27.2938 27.0472 26.4669 24.0584 26.4669 19.2385L26.4687 19.2407Z" fill="#21AC21"/>
<path d="M45.3875 28.8623H41.556C40.6661 28.8623 39.9435 29.7522 39.9435 30.4748V44.3872C39.9435 45.2771 40.6661 45.9997 41.556 45.9997H45.3875C46.2774 45.9997 47 45.1098 47 44.3872V30.4748C47 29.5849 46.2774 28.8623 45.3875 28.8623Z" fill="#21AC21"/>
</svg>
