<svg width="19" height="17" viewBox="0 0 19 17" fill="none" xmlns="http://www.w3.org/2000/svg">
<path d="M5.2056 0.75C4.01023 0.75 2.81309 1.22761 1.91097 2.17451C0.106727 4.06825 0.108876 7.08912 1.91097 8.98433L9.15916 16.6071C9.20209 16.6522 9.25415 16.6881 9.31208 16.7127C9.37001 16.7373 9.43256 16.75 9.49579 16.75C9.55902 16.75 9.62157 16.7373 9.6795 16.7127C9.73743 16.6881 9.78949 16.6522 9.83242 16.6071C12.2512 14.0683 14.669 11.5302 17.0878 8.99127C18.892 7.09752 18.892 4.07527 17.0878 2.18145C15.2835 0.287623 12.3099 0.287578 10.5057 2.18145L9.51011 3.23073L8.50024 2.17451C7.59811 1.22761 6.40098 0.75 5.2056 0.75ZM5.2056 1.61861C6.1476 1.61861 7.09133 2.00687 7.82699 2.77904L9.17349 4.18966C9.21641 4.23471 9.26847 4.27065 9.32641 4.29523C9.38434 4.31982 9.44688 4.33252 9.51011 4.33252C9.57334 4.33252 9.63589 4.31982 9.69382 4.29523C9.75175 4.27065 9.80382 4.23471 9.84674 4.18966L11.1789 2.78601C12.6502 1.2416 14.9504 1.24164 16.4217 2.78601C17.893 4.33037 17.893 6.84245 16.4217 8.38674C14.1153 10.8077 11.8022 13.2273 9.49579 15.6482L2.58422 8.37977C1.11396 6.83354 1.11294 4.32332 2.58422 2.77904C3.31987 2.00687 4.2636 1.61861 5.2056 1.61861Z" fill="#06498B" stroke="#06498B" stroke-width="0.2"/>
</svg>
