<svg width="21" height="18" viewBox="0 0 21 18" fill="none" xmlns="http://www.w3.org/2000/svg">
<path d="M5.93745 0.433594C4.66736 0.433594 3.3954 0.941056 2.4369 1.94714C0.519891 3.95924 0.522175 7.16891 2.4369 9.18257L10.1381 17.2818C10.1837 17.3297 10.239 17.3679 10.3006 17.394C10.3621 17.4201 10.4286 17.4336 10.4958 17.4336C10.563 17.4336 10.6294 17.4201 10.691 17.394C10.7525 17.3679 10.8078 17.3297 10.8534 17.2818C13.4234 14.5843 15.9923 11.8875 18.5622 9.18994C20.4793 7.17784 20.4792 3.9667 18.5622 1.95451C16.6453 -0.0576822 13.4858 -0.0577296 11.5688 1.95451L10.511 3.06937L9.438 1.94714C8.47948 0.941056 7.20754 0.433594 5.93745 0.433594ZM5.93745 1.35649C6.93832 1.35649 7.94103 1.76902 8.72267 2.58945L10.1533 4.08823C10.1989 4.13609 10.2542 4.17429 10.3158 4.20041C10.3774 4.22653 10.4438 4.24002 10.511 4.24002C10.5782 4.24002 10.6446 4.22653 10.7062 4.20041C10.7677 4.17429 10.823 4.13609 10.8687 4.08823L12.2841 2.59685C13.8474 0.955917 16.2913 0.955964 17.8545 2.59685C19.4178 4.23774 19.4178 6.90683 17.8545 8.54763C15.404 11.1199 12.9463 13.6907 10.4958 16.2629L3.15223 8.54023C1.59007 6.89735 1.589 4.23024 3.15223 2.58945C3.93385 1.76902 4.93657 1.35649 5.93745 1.35649Z" fill="#06498B" stroke="#06498B" stroke-width="0.2"/>
</svg>
