<svg width="39" height="41" viewBox="0 0 39 41" fill="none" xmlns="http://www.w3.org/2000/svg">
<path d="M37.4228 15.2063H36.617C36.5948 14.8899 36.7373 14.3089 36.3101 14.2C32.8791 13.1991 29.3349 12.809 25.7668 13.0231C27.4746 8.3978 23.6381 3.31034 18.7076 3.7073C14.1578 3.89505 10.9472 8.8168 12.5509 13.0525C8.9765 12.8209 5.43162 13.2009 2.00386 14.2C1.82188 14.2531 1.69695 14.4199 1.69695 14.6094V15.2063H0.891158C0.399772 15.2063 0 15.6061 0 16.0977V39.5424C0 40.0338 0.399772 40.4336 0.891158 40.4336H37.4228C37.9142 40.4336 38.314 40.0338 38.314 39.5424V16.0977C38.314 15.6061 37.9142 15.2063 37.4228 15.2063ZM35.7642 14.9308V36.7149C30.4495 35.2778 24.7715 35.2674 19.4577 36.7155V25.403H20.0877C20.899 25.4057 21.5692 24.7252 21.5473 23.9007C22.6405 23.875 23.259 22.5062 22.5047 21.697C23.075 21.0836 22.8765 19.9973 22.0974 19.6273V18.5155C22.0974 17.6903 22.5013 16.9155 23.1867 16.4356C24.1196 15.7848 24.8681 14.8954 25.4005 13.8941C28.906 13.6362 32.3894 13.9845 35.7642 14.9308ZM18.4641 21.2689H16.6737C16.1561 21.13 16.2668 20.3362 16.8042 20.3455C16.8042 20.3455 21.5119 20.3455 21.5119 20.3455C21.7707 20.3436 21.9878 20.5624 21.9854 20.8189C21.9877 21.0215 21.842 21.2175 21.6444 21.2691H20.951C20.3923 21.2716 20.3941 22.1197 20.951 22.122C20.951 22.122 21.6355 22.122 21.6355 22.122C22.1606 22.2587 22.0535 23.0513 21.5131 23.0483C21.509 23.0491 21.1202 23.0467 21.1167 23.0491H17.1977C17.1942 23.0467 16.8096 23.0491 16.8054 23.0483C16.2693 23.056 16.1512 22.2476 16.6801 22.1217C16.6801 22.1217 18.4641 22.1217 18.4641 22.1217C19.0222 22.1192 19.0213 21.2712 18.4641 21.2689ZM20.6932 23.902C20.7127 24.2515 20.4352 24.5513 20.089 24.5493H18.2296C17.879 24.5505 17.6009 24.2508 17.62 23.902H20.6932ZM35.6957 37.5851C35.6266 37.6861 35.5105 37.7514 35.3761 37.7514H2.93791C2.80345 37.7514 2.68769 37.686 2.61825 37.5852C7.90867 36.1093 13.5965 36.1518 18.8718 37.6723C24.3474 36.3009 30.1997 35.961 35.6957 37.5851ZM13.0134 10.2839C13.2166 7.21087 15.6873 4.74936 18.761 4.55843C23.7432 4.20909 27.0393 9.7747 24.3606 13.981C23.3493 15.6523 21.2429 16.2908 21.2429 18.5171V19.4907H19.5826V13.2982H21.2246C21.781 13.2961 21.7832 12.4477 21.2245 12.4454C21.2246 12.4454 17.0878 12.4454 17.0878 12.4454C16.5313 12.4475 16.5291 13.2959 17.0878 13.2982C17.0878 13.2982 18.7297 13.2982 18.7297 13.2982V19.4907H17.0698V18.5155C17.0661 17.431 16.5319 16.3792 15.6452 15.7556C13.8788 14.5349 12.8624 12.4494 13.0134 10.2839ZM2.5498 14.9311C5.92529 13.9859 9.41435 13.6482 12.9305 13.9268C13.0087 13.933 13.4233 14.7394 13.5014 14.8457C14.3303 16.1497 16.2756 16.7439 16.2169 18.5172C16.217 18.5171 16.217 19.6273 16.217 19.6273C15.4539 19.9821 15.2335 21.0864 15.8064 21.6968C15.0628 22.5025 15.6782 23.8706 16.7659 23.9004C16.744 24.7206 17.4071 25.4043 18.2284 25.403H18.6048V36.7111C13.3734 35.2957 7.78038 35.2964 2.5498 36.7151V14.9311ZM37.4229 39.5806C37.4228 39.5807 0.891158 39.5807 0.891158 39.5807C0.769067 39.5938 0.898654 16.1325 0.852743 16.0976C0.852847 16.0775 0.87117 16.0592 0.891158 16.0592H1.69695V37.3633C1.69695 38.0475 2.25371 38.6042 2.93791 38.6042H35.3761C36.0603 38.6042 36.617 38.0475 36.617 37.3633V16.0592H37.4228C37.4432 16.0592 37.4611 16.0771 37.4611 16.0977C37.4228 16.1362 37.5345 39.5889 37.4229 39.5806ZM16.2262 33.3403C12.4527 32.6533 8.62735 32.6788 4.85223 33.347C4.34255 33.3509 4.27501 32.5888 4.77686 32.5008C8.62633 31.8077 12.5291 31.8073 16.3777 32.5008C16.9281 32.6026 16.773 33.4366 16.2262 33.3403ZM33.2627 33.3166C29.5194 32.6499 25.7191 32.6487 21.9666 33.3129C21.7343 33.3533 21.514 33.199 21.4728 32.9672C21.4315 32.7353 21.5864 32.5141 21.8184 32.4729C25.6687 31.7914 29.5698 31.7927 33.4126 32.4771C33.9669 32.5861 33.81 33.4076 33.2627 33.3166ZM16.3777 28.6611C16.8847 28.7497 16.8066 29.5117 16.3024 29.5073C12.5289 28.8389 8.70363 28.8138 4.92844 29.5007C4.37391 29.5975 4.23368 28.7616 4.77686 28.6611C8.62633 27.968 12.5291 27.9676 16.3777 28.6611ZM33.2627 29.4767C29.5194 28.81 25.7191 28.8088 21.9666 29.473C21.7343 29.5136 21.514 29.3591 21.4728 29.1273C21.4315 28.8954 21.5864 28.6743 21.8184 28.633C25.6687 27.9515 29.5698 27.9528 33.4126 28.6372C33.9669 28.7462 33.81 29.5677 33.2627 29.4767ZM4.77728 24.8204C7.73226 24.2884 10.7455 24.1679 13.7296 24.4619C14.2859 24.5182 14.1997 25.364 13.6464 25.3105C10.7119 25.0147 7.75714 25.1565 4.85223 25.6666C4.34302 25.6705 4.27423 24.9083 4.77728 24.8204ZM24.2353 24.8868C24.2141 24.6522 24.3869 24.4448 24.6214 24.4233C27.5589 24.1545 30.5159 24.2813 33.4126 24.799C33.9667 24.9081 33.8106 25.7292 33.2627 25.6385C30.441 25.1338 27.5593 25.0109 24.6988 25.2724C24.4673 25.2949 24.257 25.1213 24.2353 24.8868ZM4.77686 20.9828C7.46241 20.4964 10.2158 20.3513 12.9555 20.5506C13.5182 20.6026 13.4472 21.4312 12.8939 21.4013C10.1962 21.1983 7.49515 21.3643 4.85223 21.8288C4.34343 21.8329 4.27394 21.0708 4.77686 20.9828ZM24.9678 20.9747C24.952 20.7396 25.1298 20.5364 25.3647 20.5206C28.0702 20.3382 30.7774 20.485 33.413 20.957C33.6446 20.9986 33.7991 21.2202 33.7574 21.4519C33.717 21.6851 33.4886 21.8386 33.2623 21.7965C30.6954 21.3364 28.0565 21.1931 25.4222 21.3713C25.1902 21.3928 24.9841 21.2098 24.9678 20.9747ZM4.77769 17.1404C7.17632 16.7119 9.62201 16.5493 12.044 16.6567C12.2792 16.6671 12.4616 16.8664 12.4512 17.1017C12.4408 17.3372 12.2318 17.5183 12.0065 17.5087C9.6199 17.3961 7.21552 17.5786 4.85223 17.9866C4.34338 17.9906 4.27371 17.2275 4.77769 17.1404ZM25.8757 17.0734C25.8665 16.8381 26.0501 16.6399 26.2854 16.6309C28.6882 16.5406 31.0848 16.704 33.4126 17.1192C33.9193 17.2065 33.8441 17.9696 33.3381 17.9654C31.042 17.57 28.6834 17.3853 26.3179 17.4833C26.0789 17.49 25.8844 17.3087 25.8757 17.0734ZM25.3039 4.35958C25.3039 4.35958 26.1089 3.55462 26.1088 3.55465C26.5049 3.16183 27.1043 3.76187 26.7118 4.15761L25.9069 4.96257C25.5109 5.35537 24.9114 4.75529 25.3039 4.35958ZM8.89951 10.6828C8.89951 10.6828 10.038 10.6828 10.038 10.6828C10.5959 10.6852 10.5954 11.5334 10.038 11.5357C10.038 11.5357 8.89951 11.5357 8.89953 11.5357C8.3416 11.5334 8.34217 10.6852 8.89951 10.6828ZM28.276 10.6828C28.276 10.6828 29.4145 10.6828 29.4144 10.6828C29.9724 10.6852 29.9718 11.5334 29.4145 11.5357C29.4145 11.5357 28.276 11.5357 28.276 11.5357C27.718 11.5334 27.7186 10.6852 28.276 10.6828ZM11.6026 4.15761C11.2098 3.76159 11.8097 3.16214 12.2055 3.55462C12.2055 3.55462 13.0105 4.35958 13.0105 4.35958C13.2826 4.61303 13.0735 5.1002 12.709 5.0875C12.5999 5.0875 12.4908 5.04586 12.4075 4.96257C12.4075 4.96257 11.6026 4.15761 11.6026 4.15761ZM18.7306 1.9901C18.7306 1.9901 18.7306 0.85179 18.7306 0.851816C18.7328 0.293905 19.5812 0.294477 19.5834 0.85179V1.9901C19.5812 2.54798 18.7328 2.54741 18.7306 1.9901Z" fill="#F9633B"/>
</svg>
