<svg width="40" height="41" viewBox="0 0 40 41" fill="none" xmlns="http://www.w3.org/2000/svg">
<path fill-rule="evenodd" clip-rule="evenodd" d="M31.3693 22.6816C31.2279 22.6816 31.0922 22.6254 30.9922 22.5254C30.8922 22.4254 30.836 22.2897 30.836 22.1483C30.836 22.0068 30.8922 21.8712 30.9922 21.7711C31.0922 21.6711 31.2279 21.6149 31.3693 21.6149H32.3471C32.4407 21.6149 32.5327 21.6396 32.6137 21.6864C32.6948 21.7332 32.7621 21.8005 32.8089 21.8816L32.8151 21.8927L32.8213 21.9043L32.8271 21.9158L32.8324 21.9274L32.8378 21.9394L32.8427 21.9514L32.8471 21.9634L32.8516 21.9758L32.8556 21.9883L32.8596 22.0007L32.8627 22.0136L32.8658 22.026L32.8689 22.0389V22.0518V22.0651V22.078V22.0909V22.1043V22.1176V22.1314V22.1452V26.4594H33.316C33.4575 26.4594 33.5931 26.5156 33.6931 26.6156C33.7931 26.7156 33.8493 26.8513 33.8493 26.9927C33.8493 27.1342 33.7931 27.2698 33.6931 27.3698C33.5931 27.4698 33.4575 27.526 33.316 27.526H31.3693C31.2279 27.526 31.0922 27.4698 30.9922 27.3698C30.8922 27.2698 30.836 27.1342 30.836 26.9927C30.836 26.8513 30.8922 26.7156 30.9922 26.6156C31.0922 26.5156 31.2279 26.4594 31.3693 26.4594H31.8138V22.6816H31.3693ZM31.8138 20.4487C31.8138 20.3073 31.87 20.1716 31.97 20.0716C32.07 19.9716 32.2057 19.9154 32.3471 19.9154C32.4886 19.9154 32.6242 19.9716 32.7242 20.0716C32.8243 20.1716 32.8804 20.3073 32.8804 20.4487V20.4931C32.8804 20.6346 32.8243 20.7703 32.7242 20.8703C32.6242 20.9703 32.4886 21.0265 32.3471 21.0265C32.2057 21.0265 32.07 20.9703 31.97 20.8703C31.87 20.7703 31.8138 20.6346 31.8138 20.4931V20.4487ZM12.2138 21.638V22.2158C12.2112 22.3748 12.2663 22.5294 12.3689 22.6509C12.4047 22.6947 12.4495 22.7303 12.5001 22.7556C12.5507 22.7808 12.6061 22.7949 12.6627 22.7971H17.2698C17.3263 22.7951 17.3818 22.781 17.4325 22.7558C17.4831 22.7306 17.5278 22.6948 17.5636 22.6509C17.6662 22.5294 17.7213 22.3748 17.7187 22.2158V21.638C17.668 21.6416 17.6169 21.6434 17.5653 21.6434H12.3702C12.3187 21.6434 12.2676 21.6416 12.2169 21.638H12.2138ZM13.3089 23.8603V24.0825C13.3031 24.3015 13.3669 24.5167 13.4911 24.6971C13.5196 24.7441 13.5584 24.7838 13.6046 24.8134C13.6509 24.843 13.7033 24.8616 13.7578 24.8678H16.1724C16.2269 24.8615 16.2793 24.8428 16.3255 24.8132C16.3717 24.7837 16.4105 24.744 16.4391 24.6971C16.563 24.5165 16.6266 24.3014 16.6209 24.0825V23.8603H13.3089ZM17.6853 23.7963V24.0807C17.6898 24.5276 17.5517 24.9643 17.2911 25.3274C17.1657 25.5094 16.9988 25.659 16.8042 25.7639C16.6097 25.8688 16.393 25.9261 16.172 25.9309H13.7604C13.5395 25.9261 13.3228 25.8688 13.1282 25.7639C12.9337 25.659 12.7668 25.5094 12.6413 25.3274C12.3812 24.9649 12.2431 24.5291 12.2471 24.0829V23.7985C11.9862 23.7148 11.7533 23.5611 11.5738 23.354C11.3 23.0384 11.1502 22.6341 11.1524 22.2163V21.2705C11.0605 21.2083 10.9737 21.1387 10.8929 21.0625C10.695 20.8794 10.5369 20.6575 10.4284 20.4107C10.3199 20.1639 10.2633 19.8974 10.2622 19.6278C10.2622 17.5718 9.65733 16.8003 9.06756 16.0478C8.60438 15.5337 8.24824 14.9326 8.01993 14.2794C7.79162 13.6262 7.6957 12.934 7.73778 12.2434C7.74133 11.3329 7.93229 10.4329 8.29878 9.59948C8.66527 8.76603 9.19943 8.01696 9.868 7.39893C11.2574 6.11782 13.0781 5.40655 14.968 5.40655C16.8579 5.40655 18.6786 6.11782 20.068 7.39893C20.7365 8.01701 21.2706 8.76609 21.6371 9.59953C22.0036 10.433 22.1946 11.3329 22.1982 12.2434C22.2402 12.934 22.1442 13.6261 21.9159 14.2793C21.6876 14.9325 21.3315 15.5337 20.8684 16.0478C20.2787 16.8003 19.6738 17.5718 19.6738 19.6278C19.6726 19.8974 19.6159 20.1639 19.5074 20.4108C19.3988 20.6576 19.2406 20.8794 19.0427 21.0625C18.9618 21.1386 18.875 21.2081 18.7831 21.2705V22.214C18.7853 22.6318 18.6357 23.0361 18.3622 23.3518C18.1826 23.5589 17.9495 23.7126 17.6884 23.7963H17.6853ZM13.0702 14.5758H13.5147V14.2203C13.5137 14.1752 13.5032 14.1308 13.4839 14.0901C13.4646 14.0494 13.4369 14.0131 13.4027 13.9838C13.3093 13.9054 13.1913 13.8624 13.0693 13.8624C12.9474 13.8624 12.8294 13.9054 12.736 13.9838C12.701 14.0125 12.6728 14.0486 12.6535 14.0895C12.6341 14.1304 12.6241 14.175 12.6241 14.2203C12.6241 14.2655 12.6341 14.3102 12.6535 14.3511C12.6728 14.3919 12.701 14.428 12.736 14.4567C12.8283 14.5373 12.9473 14.5806 13.0698 14.578L13.0702 14.5758ZM16.6089 14.2203V14.5758H17.0533C17.1758 14.5783 17.2948 14.535 17.3871 14.4545C17.4221 14.4258 17.4503 14.3897 17.4696 14.3488C17.489 14.3079 17.499 14.2633 17.499 14.218C17.499 14.1728 17.489 14.1281 17.4696 14.0872C17.4503 14.0464 17.4221 14.0103 17.3871 13.9816C17.2937 13.9033 17.1757 13.8604 17.0538 13.8604C16.9319 13.8604 16.8139 13.9033 16.7204 13.9816C16.6863 14.011 16.6587 14.0472 16.6394 14.088C16.6201 14.1287 16.6096 14.173 16.6084 14.218L16.6089 14.2203ZM13.516 20.5789V15.6403H13.0716C12.6842 15.642 12.3101 15.4994 12.0222 15.2403C11.8774 15.1122 11.7614 14.9549 11.682 14.7787C11.6026 14.6024 11.5615 14.4113 11.5615 14.218C11.5615 14.0247 11.6026 13.8336 11.682 13.6574C11.7614 13.4812 11.8774 13.3238 12.0222 13.1958C12.311 12.9382 12.6845 12.7958 13.0716 12.7958C13.4586 12.7958 13.8321 12.9382 14.1209 13.1958C14.2652 13.3243 14.3808 13.4818 14.4603 13.6579C14.5398 13.834 14.5813 14.0248 14.5822 14.218V14.5736H15.5458V14.218C15.5467 14.0248 15.5883 13.834 15.6677 13.6579C15.7472 13.4818 15.8628 13.3243 16.0071 13.1958C16.2959 12.9382 16.6693 12.7959 17.0562 12.7959C17.4432 12.7959 17.8166 12.9382 18.1053 13.1958C18.2503 13.3238 18.3664 13.4811 18.4459 13.6573C18.5254 13.8336 18.5665 14.0247 18.5665 14.218C18.5665 14.4114 18.5254 14.6025 18.4459 14.7788C18.3664 14.955 18.2503 15.1123 18.1053 15.2403C17.8177 15.4995 17.4437 15.6421 17.0564 15.6403H16.612V20.5789H17.5684C17.8461 20.5812 18.1143 20.4776 18.3182 20.2891C18.4099 20.2049 18.4832 20.1027 18.5338 19.989C18.5843 19.8752 18.6109 19.7523 18.612 19.6278C18.612 17.2109 19.3329 16.2914 20.0342 15.3949C20.4178 14.969 20.7127 14.471 20.9017 13.9299C21.0907 13.3888 21.17 12.8155 21.1351 12.2434C21.1315 11.4781 20.9704 10.7217 20.6619 10.0213C20.3534 9.32089 19.904 8.6915 19.3418 8.17226C18.1485 7.07823 16.5884 6.47131 14.9696 6.47131C13.3507 6.47131 11.7906 7.07823 10.5973 8.17226C10.0351 8.6915 9.58572 9.32089 9.2772 10.0213C8.96868 10.7217 8.8076 11.4781 8.804 12.2434C8.76887 12.8153 8.84792 13.3885 9.03655 13.9296C9.22517 14.4707 9.5196 14.9688 9.90267 15.3949C10.6058 16.2914 11.3249 17.2109 11.3249 19.6278C11.3259 19.7523 11.3526 19.8753 11.4032 19.9891C11.4538 20.1029 11.5273 20.205 11.6191 20.2891C11.8229 20.4776 12.0909 20.5812 12.3684 20.5789H13.516ZM15.5444 20.5789V15.6403H14.5809V20.5789H15.5444ZM1.636 5.59582H3.82444C3.96792 5.595 4.1053 5.53767 4.2068 5.43626C4.30829 5.33484 4.36573 5.19752 4.36667 5.05404V2.28782L1.636 5.59582ZM5.56756 29.4794C5.42611 29.4794 5.29045 29.4232 5.19043 29.3232C5.09041 29.2231 5.03422 29.0875 5.03422 28.946C5.03422 28.8046 5.09041 28.6689 5.19043 28.5689C5.29045 28.4689 5.42611 28.4127 5.56756 28.4127H23.9369C24.0783 28.4127 24.214 28.4689 24.314 28.5689C24.414 28.6689 24.4702 28.8046 24.4702 28.946C24.4702 29.0875 24.414 29.2231 24.314 29.3232C24.214 29.4232 24.0783 29.4794 23.9369 29.4794H5.56756ZM11.26 32.4016C11.1248 32.3929 10.998 32.333 10.9053 32.2341C10.8126 32.1353 10.7611 32.0049 10.7611 31.8694C10.7611 31.7339 10.8126 31.6035 10.9053 31.5046C10.998 31.4058 11.1248 31.3459 11.26 31.3371H23.9369C24.0097 31.3324 24.0827 31.3427 24.1513 31.3673C24.22 31.392 24.2828 31.4304 24.3361 31.4803C24.3893 31.5302 24.4317 31.5904 24.4607 31.6573C24.4897 31.7243 24.5046 31.7964 24.5046 31.8694C24.5046 31.9423 24.4897 32.0145 24.4607 32.0814C24.4317 32.1483 24.3893 32.2086 24.3361 32.2585C24.2828 32.3084 24.22 32.3468 24.1513 32.3714C24.0827 32.396 24.0097 32.4063 23.9369 32.4016H11.26ZM5.56756 32.4016C5.49477 32.4063 5.42179 32.396 5.35314 32.3714C5.28448 32.3468 5.2216 32.3084 5.16839 32.2585C5.11518 32.2086 5.07276 32.1483 5.04377 32.0814C5.01477 32.0145 4.99981 31.9423 4.99981 31.8694C4.99981 31.7964 5.01477 31.7243 5.04377 31.6573C5.07276 31.5904 5.11518 31.5302 5.16839 31.4803C5.2216 31.4304 5.28448 31.392 5.35314 31.3673C5.42179 31.3427 5.49477 31.3324 5.56756 31.3371H9.30667C9.37945 31.3324 9.45243 31.3427 9.52108 31.3673C9.58974 31.392 9.65262 31.4304 9.70583 31.4803C9.75904 31.5302 9.80146 31.5904 9.83045 31.6573C9.85945 31.7243 9.87441 31.7964 9.87441 31.8694C9.87441 31.9423 9.85945 32.0145 9.83045 32.0814C9.80146 32.1483 9.75904 32.2086 9.70583 32.2585C9.65262 32.3084 9.58974 32.3468 9.52108 32.3714C9.45243 32.396 9.37945 32.4063 9.30667 32.4016H5.56756ZM36.8227 19.246C35.7876 18.2107 34.4257 17.5664 32.9688 17.4226C31.5119 17.2789 30.0503 17.6448 28.8329 18.4579C27.6155 19.271 26.7177 20.481 26.2924 21.8818C25.8672 23.2826 25.9408 24.7876 26.5006 26.1402C27.0605 27.4929 28.0721 28.6096 29.363 29.3C30.6539 29.9905 32.1442 30.212 33.5801 29.9269C35.016 29.6417 36.3087 28.8675 37.2378 27.7362C38.1669 26.6049 38.675 25.1864 38.6756 23.7225C38.6765 22.8913 38.5133 22.0682 38.1952 21.3003C37.8772 20.5324 37.4106 19.8349 36.8222 19.2478L36.8227 19.246ZM29.4893 16.9011C30.2289 16.5916 31.014 16.405 31.8138 16.3487V4.98693C31.8127 4.84344 31.7553 4.70614 31.6538 4.60468C31.5524 4.50321 31.415 4.44575 31.2716 4.4447H29.4893V16.9029V16.9011ZM28.4244 29.9891V35.8803C28.4237 36.0238 28.3665 36.1612 28.265 36.2627C28.1636 36.3643 28.0262 36.4217 27.8827 36.4225H1.58311C1.43952 36.4218 1.30201 36.3644 1.20048 36.2629C1.09894 36.1614 1.04159 36.0238 1.04089 35.8803V6.6607H3.824C4.24952 6.65977 4.65737 6.49044 4.95842 6.18972C5.25948 5.88899 5.42926 5.48133 5.43067 5.05582V1.50026H27.8827C28.0261 1.50108 28.1634 1.55842 28.2649 1.65985C28.3663 1.76127 28.4236 1.8986 28.4244 2.04204V17.4558C27.3629 18.1211 26.4877 19.0451 25.881 20.1413C25.2744 21.2374 24.9561 22.4697 24.9561 23.7225C24.9561 24.9753 25.2744 26.2076 25.881 27.3037C26.4877 28.3998 27.3629 29.3239 28.4244 29.9891ZM31.8138 31.0958C31.0133 31.0392 30.2276 30.852 29.4876 30.5416V35.8803C29.4866 36.3061 29.317 36.7142 29.0159 37.0153C28.7148 37.3164 28.3067 37.486 27.8809 37.4869H4.432V38.8269C4.43328 38.9701 4.49083 39.1069 4.59221 39.208C4.69358 39.309 4.83065 39.3661 4.97378 39.3669H31.2733C31.4168 39.3661 31.5542 39.3088 31.6557 39.2074C31.7572 39.106 31.8146 38.9686 31.8156 38.8251V31.0958H31.8138ZM32.8804 16.3487V4.98693C32.8795 4.5611 32.7099 4.15298 32.4088 3.85188C32.1077 3.55077 31.6996 3.3812 31.2738 3.38026H29.4893V2.04026C29.4884 1.61443 29.3188 1.20632 29.0177 0.905213C28.7166 0.604108 28.3085 0.434533 27.8827 0.433594H4.76933C4.69099 0.433814 4.61366 0.451291 4.54283 0.484783C4.47201 0.518274 4.40943 0.566957 4.35956 0.627371L0.128444 5.75582L0.124 5.76026L0.121333 5.76337L0.115556 5.76959L0.109333 5.7767L0.105778 5.7807L0.100445 5.78693L0.0951112 5.79404L0.0893334 5.80115L0.0840001 5.8087L0.0813334 5.81226L0.0777779 5.81715L0.0724445 5.82515L0.0671111 5.83359V5.8367L0.0631112 5.84337V5.84604L0.0577778 5.85582L0.0524445 5.86604L0.0475557 5.87582V5.87848L0.0431112 5.8887L0.0337779 5.91093V5.91315L0.029778 5.92382L0.0217779 5.94782C0.0182223 5.95982 0.0146669 5.97226 0.0120002 5.98515C0.00795412 6.0023 0.00483829 6.01966 0.00266669 6.03715L0 6.06293V6.07626V6.08915V6.10248V35.8803C0.00087158 36.302 0.167205 36.7066 0.463243 37.0071C0.759281 37.3075 1.16138 37.4798 1.58311 37.4869H3.36933V38.8269C3.37027 39.2524 3.53954 39.6601 3.84017 39.9612C4.14079 40.2622 4.54834 40.4321 4.97378 40.4336H31.2733C31.6992 40.4328 32.1075 40.2632 32.4087 39.9621C32.7099 39.661 32.8795 39.2528 32.8804 38.8269V31.0958C34.7438 30.9608 36.4869 30.1253 37.7593 28.7574C39.0317 27.3894 39.739 25.5905 39.739 23.7223C39.739 21.854 39.0317 20.0551 37.7593 18.6871C36.4869 17.3192 34.7438 16.4837 32.8804 16.3487Z" fill="#F9633B"/>
</svg>
