<svg width="75" height="41" viewBox="0 0 75 41" fill="none" xmlns="http://www.w3.org/2000/svg">
<path d="M64.2059 20.1136C65.5507 18.7225 66.3761 16.8398 66.3761 14.7531C66.3761 10.4962 62.9168 7.02761 58.6599 7.02761C54.403 7.02761 50.9437 10.4869 50.9437 14.7531C50.9437 16.8305 51.7783 18.7225 53.1138 20.1136C52.3534 20.4011 51.6207 20.7536 50.9066 21.1616C48.9126 18.9358 46.3622 17.183 43.45 16.1257C45.1565 14.4656 46.2323 12.147 46.2323 9.57804C46.2323 4.53283 42.1331 0.433594 37.0879 0.433594C32.0427 0.433594 27.9434 4.53283 27.9434 9.57804C27.9434 12.147 29.01 14.4656 30.7257 16.1257C27.8043 17.183 25.2632 18.9358 23.2692 21.1616C22.5551 20.7536 21.8224 20.4011 21.0619 20.1136C22.4067 18.7225 23.2321 16.8398 23.2321 14.7531C23.2321 10.4962 19.7728 7.02761 15.5159 7.02761C11.259 7.02761 7.79968 10.4869 7.79968 14.7531C7.79968 16.8305 8.63436 18.7225 9.96986 20.1136C4.02504 22.3766 0 28.0988 0 34.5908C0 36.9465 0.51936 38.4767 1.623 39.4227C2.51333 40.1832 3.63552 40.4336 4.96174 40.4336C6.21377 40.4336 7.65129 40.2017 9.25574 39.9513C11.1477 39.6453 13.2901 39.3021 15.5252 39.3021C17.7603 39.3021 19.7913 39.6267 21.4978 39.8957C23.4825 40.786 26.1906 40.3687 29.5015 39.84C31.8015 39.4691 34.3983 39.061 37.1064 39.061C39.8145 39.061 42.4206 39.4783 44.7113 39.84C46.6404 40.1461 48.3654 40.4243 49.8678 40.4243C50.9622 40.4243 51.936 40.2759 52.7707 39.8864C54.4586 39.6175 56.5361 39.3021 58.6877 39.3021C60.8393 39.3021 63.0559 39.6453 64.9571 39.9513C66.5616 40.211 67.9991 40.4336 69.2511 40.4336C70.5773 40.4336 71.6995 40.1739 72.5899 39.4227C73.6935 38.4767 74.2129 36.9465 74.2129 34.5908C74.2129 28.0895 70.1878 22.3673 64.243 20.1136H64.2059ZM52.7985 14.7531C52.7985 11.5164 55.4324 8.88247 58.6599 8.88247C61.8873 8.88247 64.5212 11.5164 64.5212 14.7531C64.5212 17.9898 61.8873 20.6144 58.6599 20.6144C55.4324 20.6144 52.7985 17.9805 52.7985 14.7531ZM29.7983 9.57804C29.7983 5.56228 33.0628 2.28845 37.0879 2.28845C41.1129 2.28845 44.3775 5.553 44.3775 9.57804C44.3775 13.6031 41.1129 16.8676 37.0879 16.8676C33.0628 16.8676 29.7983 13.6031 29.7983 9.57804ZM9.64526 14.7531C9.64526 11.5164 12.2792 8.88247 15.5066 8.88247C18.7341 8.88247 21.368 11.5164 21.368 14.7531C21.368 17.9898 18.7341 20.6144 15.5066 20.6144C12.2792 20.6144 9.64526 17.9805 9.64526 14.7531ZM15.5066 37.4566C13.1324 37.4566 10.9066 37.809 8.94969 38.1243C6.24159 38.5602 3.8952 38.9312 2.81938 38.013C2.16091 37.4565 1.84558 36.3344 1.84558 34.5908C1.84558 28.479 5.89845 23.137 11.732 21.477C12.8542 22.1076 14.1433 22.4786 15.5159 22.4786C16.8885 22.4786 18.1776 22.1169 19.2998 21.477C20.2736 21.7552 21.2103 22.1354 22.1006 22.627C19.847 25.7246 18.53 29.5178 18.53 33.5614C18.53 35.3049 18.7712 36.6682 19.2627 37.7162C18.0849 37.5678 16.8236 37.4566 15.5159 37.4566H15.5066ZM52.5574 37.8461C51.1941 39.0146 48.4489 38.5787 44.9896 38.0223C42.6246 37.642 39.9444 37.2154 37.0879 37.2154C34.2314 37.2154 31.5511 37.642 29.1862 38.0223C25.7176 38.5787 22.9817 39.0146 21.6184 37.8461C20.7837 37.1319 20.3756 35.7315 20.3756 33.5614C20.3756 26.0585 25.3652 19.5015 32.5435 17.489C33.8882 18.2588 35.437 18.7132 37.0879 18.7132C38.7387 18.7132 40.2968 18.268 41.6323 17.489C48.8106 19.5015 53.8001 26.0585 53.8001 33.5614C53.8001 35.7315 53.3921 37.1319 52.5574 37.8461ZM71.3564 38.013C70.2805 38.9312 67.9342 38.5509 65.2261 38.1243C63.2692 37.809 61.0434 37.4566 58.6691 37.4566C57.3615 37.4566 56.1002 37.5678 54.9223 37.7162C55.4139 36.6682 55.655 35.3049 55.655 33.5614C55.655 29.5085 54.338 25.7153 52.0844 22.627C52.9747 22.1354 53.9114 21.7552 54.8852 21.477C56.0074 22.1076 57.2965 22.4786 58.6691 22.4786C60.0417 22.4786 61.3309 22.1169 62.453 21.477C68.2866 23.1463 72.3394 28.479 72.3394 34.5908C72.3394 36.3344 72.0241 37.4565 71.3656 38.013H71.3564Z" fill="#F9633B"/>
</svg>
