<svg width="40" height="41" viewBox="0 0 40 41" fill="none" xmlns="http://www.w3.org/2000/svg">
<path fill-rule="evenodd" clip-rule="evenodd" d="M2.02571 2.45885H16.1862L16.1867 16.6198H2.02571V2.45885ZM38.9957 10.5517C40.329 10.5517 40.329 8.52648 38.9957 8.52648H31.9071V1.43787C31.9071 0.104552 29.8819 0.104552 29.8819 1.43787V8.52648H22.7932C21.4599 8.52648 21.4599 10.5517 22.7932 10.5517H29.8819V17.6404C29.8819 18.9737 31.9071 18.9737 31.9071 17.6404V10.5517H38.9957ZM23.8138 24.2469H37.9743L37.9747 38.4079H23.8138V24.2469ZM37.9747 22.2217H23.8138C22.703 22.2217 21.7885 23.1357 21.7885 24.2469V38.4083C21.7885 39.3192 22.3825 39.8206 22.3825 39.8396C22.749 40.2061 23.2554 40.4336 23.8138 40.4336H37.9752C39.0864 40.4336 40.0005 39.5196 40.0005 38.4083V24.2469C40.0005 23.689 39.773 23.1822 39.4065 22.8156C39.3871 22.8156 38.8856 22.2217 37.9747 22.2217ZM2.02571 24.2469H16.1862L16.1867 38.4079H2.02571V24.2469ZM16.1867 22.2217H2.02525C0.914456 22.2217 0 23.1357 0 24.2469V38.4083C0 39.3192 0.59399 39.8206 0.59399 39.8396C0.960495 40.2061 1.46692 40.4336 2.02525 40.4336H16.1867C17.2979 40.4336 18.2119 39.5196 18.2119 38.4083V24.2469C18.2119 23.689 17.9845 23.1822 17.6179 22.8156C17.599 22.8156 17.0971 22.2217 16.1867 22.2217ZM16.1867 0.433594H2.02525C0.914456 0.433594 0 1.3476 0 2.45885V16.6203C0 17.5311 0.59399 18.0326 0.59399 18.0515C0.960495 18.418 1.46692 18.6455 2.02525 18.6455H16.1867C17.2979 18.6455 18.2119 17.7315 18.2119 16.6203V2.4584C18.2119 1.90051 17.9845 1.39364 17.6179 1.02713C17.599 1.02758 17.0971 0.433594 16.1867 0.433594Z" fill="#F9633B"/>
</svg>
