<svg width="40" height="41" viewBox="0 0 40 41" fill="none" xmlns="http://www.w3.org/2000/svg">
<path d="M11.1853 27.1515L9.36646 25.3326C9.29093 25.257 9.23604 25.1633 9.20704 25.0605C9.17804 24.9576 9.17591 24.849 9.20083 24.7451C9.42429 23.8302 9.70805 22.9311 10.0502 22.0537C10.8066 20.1665 11.7369 18.3539 12.8291 16.6391C13.7393 15.2111 14.7367 13.8405 15.8155 12.5352L16.7793 13.3314C15.7339 14.5963 14.7677 15.9245 13.886 17.3085C12.8368 18.9553 11.9427 20.696 11.2153 22.5081C10.9375 23.2246 10.6996 23.956 10.5028 24.6988L12.071 26.2677L11.1853 27.1515Z" fill="#F9633B"/>
<path d="M17.8372 12.0994L16.9053 11.2669C17.2857 10.8402 17.6795 10.4172 18.0866 9.99805L18.9841 10.8706C18.5891 11.2764 18.2068 11.686 17.8372 12.0994Z" fill="#F9633B"/>
<path d="M37.3582 12.5711L36.2244 12.0435C36.5282 11.3916 36.8126 10.7253 37.0707 10.0628C38.8833 5.40509 38.907 2.22245 38.6114 1.7993C38.2132 1.52866 35.0306 1.55616 30.3729 3.36562C26.4506 4.88106 22.8624 7.14846 19.8099 10.0403L18.9436 9.13964C22.1143 6.13354 25.8424 3.77668 29.9179 2.20182C33.7637 0.70675 38.4008 -0.177666 39.5077 0.93176C40.6146 2.04119 39.7302 6.67515 38.2357 10.5191C37.9682 11.2035 37.6726 11.8954 37.3582 12.5711Z" fill="#F9633B"/>
<path d="M15.5459 31.2519C15.3801 31.2518 15.2212 31.1859 15.104 31.0687L13.2852 29.2493L14.1689 28.3655L15.7378 29.9343C16.4824 29.7366 17.2155 29.4974 17.9335 29.218C19.7453 28.4903 21.4857 27.5963 23.1325 26.5473C25.6226 24.9584 27.9311 23.1014 30.0166 21.0095C32.312 18.6934 34.2291 16.0308 35.6974 13.1191L36.8106 13.6879C35.2827 16.7151 33.2883 19.4833 30.9003 21.8908C28.7493 24.0481 26.3683 25.9631 23.8 27.6017C22.0853 28.6933 20.2731 29.6236 18.3866 30.3806C17.5078 30.7248 16.607 31.01 15.6903 31.2344C15.643 31.246 15.5945 31.2518 15.5459 31.2519Z" fill="#F9633B"/>
<path d="M33.1965 1.50089L32.3125 2.38477L38.0493 8.12218L38.9333 7.2383L33.1965 1.50089Z" fill="#F9633B"/>
<path d="M30.5879 2.34248L29.7041 3.22656L31.4356 4.95743L32.3193 4.07335L30.5879 2.34248Z" fill="#F9633B"/>
<path d="M33.2384 4.99104L32.3545 5.875L37.2109 10.7311L38.0948 9.84716L33.2384 4.99104Z" fill="#F9633B"/>
<path d="M13.1278 32.3073C13.0446 32.3074 12.9622 32.2908 12.8855 32.2586C12.8087 32.2264 12.7392 32.1792 12.6809 32.1198L11.1621 30.5704L12.0553 29.6953L13.2722 30.9379L15.2961 30.0572L15.7961 31.2023L13.3778 32.2548C13.2991 32.2896 13.2139 32.3075 13.1278 32.3073Z" fill="#F9633B"/>
<path d="M9.86436 29.2783L8.31553 27.7538C8.22537 27.6651 8.16425 27.5511 8.14025 27.4269C8.11626 27.3027 8.13052 27.1741 8.18115 27.0582L9.23745 24.6387L10.3831 25.1387L9.49871 27.1638L10.7425 28.387L9.86436 29.2783Z" fill="#F9633B"/>
<path d="M16.8788 40.4344C16.7757 40.4344 16.6741 40.4088 16.5833 40.36C16.4924 40.3112 16.415 40.2407 16.358 40.1548C16.301 40.0688 16.2662 39.9701 16.2566 39.8674C16.247 39.7647 16.263 39.6612 16.3031 39.5662L19.2914 32.4828C19.3295 32.3175 19.3249 32.1452 19.2781 31.9822C19.2313 31.8192 19.1438 31.6708 19.0239 31.5508L17.7176 30.2445L18.6014 29.3607L19.9077 30.6671C20.1893 30.9478 20.3912 31.2982 20.4929 31.6826C20.5946 32.067 20.5924 32.4714 20.4865 32.8547C20.4796 32.8805 20.4708 32.9058 20.4602 32.9303L18.7539 36.9792L22.3259 33.2916C22.8499 32.7757 23.2296 32.1315 23.427 31.4231C23.6244 30.7148 23.6327 29.967 23.451 29.2545L23.3153 28.7095L24.5285 28.4082L24.6635 28.9514C24.8918 29.872 24.8786 30.8359 24.6254 31.7499C24.3721 32.664 23.8873 33.4972 23.2178 34.1691L17.3269 40.2469C17.2685 40.3065 17.1988 40.3537 17.1218 40.386C17.0449 40.4182 16.9622 40.4346 16.8788 40.4344Z" fill="#F9633B"/>
<path d="M0.627507 24.1828C0.502851 24.1833 0.380894 24.1465 0.277309 24.0772C0.173723 24.0078 0.0932405 23.9091 0.0462034 23.7936C-0.000833731 23.6782 -0.0122767 23.5513 0.0133449 23.4293C0.0389665 23.3073 0.100482 23.1958 0.189987 23.109L6.27152 17.2156C6.92857 16.5538 7.74462 16.0719 8.64143 15.8162C9.53823 15.5604 10.4857 15.5393 11.393 15.7549L11.1074 16.9719C10.4056 16.8057 9.67296 16.8227 8.97969 17.0213C8.28642 17.2198 7.65582 17.5932 7.14843 18.1057L3.45764 21.6858L7.5097 19.977C7.53418 19.9661 7.55946 19.9571 7.58533 19.9501C7.96801 19.8449 8.37175 19.843 8.75539 19.9447C9.13902 20.0464 9.48884 20.248 9.76918 20.5289L11.0755 21.8352L10.1904 22.719L8.88414 21.4127C8.76424 21.2929 8.61587 21.2056 8.45297 21.1589C8.29007 21.1123 8.11797 21.1077 7.95285 21.1458L0.870644 24.1341C0.793749 24.1667 0.711022 24.1832 0.627507 24.1828Z" fill="#F9633B"/>
<path d="M8.12859 32.9341C8.01696 32.9342 7.90734 32.9044 7.81112 32.8479C7.71491 32.7913 7.63559 32.71 7.58143 32.6124C7.52727 32.5147 7.50024 32.4044 7.50314 32.2928C7.50604 32.1812 7.53878 32.0725 7.59794 31.9778L13.8482 21.9774C13.9045 21.8874 13.9827 21.8132 14.0755 21.7618C14.1684 21.7104 14.2728 21.6835 14.3789 21.6836H18.129C18.2948 21.6836 18.4538 21.7494 18.571 21.8667C18.6882 21.9839 18.7541 22.1429 18.7541 22.3086V26.0588C18.7541 26.1648 18.7271 26.2691 18.6757 26.3618C18.6243 26.4545 18.5502 26.5326 18.4603 26.5888L8.45985 32.8391C8.36051 32.9012 8.24573 32.9341 8.12859 32.9341ZM14.7251 22.9337L10.0943 30.3427L17.504 25.7119V22.9337H14.7251Z" fill="#F9633B"/>
<path d="M0.627096 40.4336C0.533162 40.4336 0.440432 40.4125 0.3558 40.3717C0.271168 40.331 0.19681 40.2716 0.138254 40.1982C0.0796989 40.1248 0.0384517 40.039 0.017579 39.9475C-0.00329369 39.8559 -0.00325495 39.7608 0.0176923 39.6692C0.0864455 39.3711 1.73777 32.2457 4.75229 29.2312C7.14552 26.838 8.49246 26.6892 8.7381 26.6836L8.76622 27.9337C8.77872 27.9337 7.69055 28.0587 5.63608 30.115C3.51098 32.2401 2.05779 36.8884 1.49589 38.9398C3.54723 38.3773 8.1937 36.9259 10.3207 34.7996C12.3776 32.7457 12.5026 31.6563 12.5026 31.6457L13.7527 31.697C13.7471 31.9432 13.5983 33.2895 11.2051 35.6834C8.19057 38.6979 1.06837 40.3492 0.767102 40.418C0.721182 40.4285 0.674208 40.4338 0.627096 40.4336Z" fill="#F9633B"/>
<path d="M25.0042 21.0572C23.8916 21.0572 22.804 20.7272 21.8789 20.1091C20.9539 19.491 20.2329 18.6125 19.8071 17.5846C19.3813 16.5567 19.2699 15.4257 19.487 14.3345C19.704 13.2433 20.2398 12.241 21.0265 11.4542C21.8132 10.6675 22.8155 10.1318 23.9067 9.91473C24.9979 9.69768 26.129 9.80908 27.1569 10.2348C28.1847 10.6606 29.0633 11.3816 29.6814 12.3067C30.2995 13.2317 30.6294 14.3193 30.6294 15.4319C30.6278 16.9233 30.0346 18.3532 28.98 19.4077C27.9254 20.4623 26.4956 21.0555 25.0042 21.0572ZM25.0042 11.0567C24.1388 11.0567 23.2929 11.3133 22.5734 11.7941C21.8539 12.2748 21.2932 12.9581 20.962 13.7576C20.6309 14.557 20.5442 15.4368 20.713 16.2855C20.8819 17.1342 21.2986 17.9138 21.9104 18.5256C22.5223 19.1375 23.3019 19.5542 24.1506 19.723C24.9993 19.8919 25.879 19.8052 26.6785 19.4741C27.478 19.1429 28.1613 18.5821 28.642 17.8626C29.1228 17.1431 29.3794 16.2972 29.3794 15.4319C29.378 14.2719 28.9167 13.1599 28.0964 12.3396C27.2762 11.5194 26.1641 11.058 25.0042 11.0567Z" fill="#F9633B"/>
<path d="M25.0041 19.182C24.2624 19.182 23.5373 18.962 22.9206 18.55C22.3039 18.1379 21.8232 17.5522 21.5394 16.8669C21.2555 16.1817 21.1813 15.4277 21.326 14.7002C21.4707 13.9727 21.8278 13.3045 22.3523 12.78C22.8768 12.2556 23.545 11.8984 24.2725 11.7537C24.9999 11.609 25.754 11.6833 26.4392 11.9671C27.1245 12.2509 27.7102 12.7316 28.1222 13.3483C28.5343 13.965 28.7543 14.6901 28.7543 15.4318C28.7533 16.4261 28.3578 17.3794 27.6548 18.0825C26.9517 18.7856 25.9984 19.181 25.0041 19.182ZM25.0041 12.9317C24.5096 12.9317 24.0262 13.0783 23.6151 13.353C23.2039 13.6278 22.8835 14.0182 22.6943 14.4751C22.505 14.9319 22.4555 15.4346 22.552 15.9196C22.6485 16.4045 22.8866 16.85 23.2362 17.1997C23.5859 17.5493 24.0314 17.7874 24.5163 17.8839C25.0013 17.9804 25.504 17.9309 25.9608 17.7416C26.4177 17.5524 26.8081 17.2319 27.0829 16.8208C27.3576 16.4097 27.5042 15.9263 27.5042 15.4318C27.5042 14.7687 27.2408 14.1328 26.7719 13.664C26.3031 13.1951 25.6672 12.9317 25.0041 12.9317Z" fill="#F9633B"/>
<path d="M17.6868 6.86497L11.749 12.8027L12.6329 13.6867L18.5707 7.7489L17.6868 6.86497Z" fill="#F9633B"/>
<path d="M20.1864 4.36536L18.9365 5.61523L19.8204 6.49916L21.0703 5.24929L20.1864 4.36536Z" fill="#F9633B"/>
<path d="M13.3107 8.11512L10.1855 11.2402L11.0695 12.1242L14.1946 8.99904L13.3107 8.11512Z" fill="#F9633B"/>
<path d="M34.563 19.9898L26.4375 28.1152L27.3214 28.9992L35.4469 20.8737L34.563 19.9898Z" fill="#F9633B"/>
<path d="M29.5624 28.7404L28.3125 29.9902L29.1964 30.8742L30.4463 29.6243L29.5624 28.7404Z" fill="#F9633B"/>
<path d="M33.3127 24.9901L30.8125 27.4902L31.6964 28.3742L34.1966 25.874L33.3127 24.9901Z" fill="#F9633B"/>
</svg>
