<svg width="36" height="41" viewBox="0 0 36 41" fill="none" xmlns="http://www.w3.org/2000/svg">
<path d="M33.59 14.9067C33.3394 13.5568 32.1309 12.5302 30.7366 12.5302H29.0553C28.9785 12.3281 28.8976 12.1341 28.8128 11.9401L30.001 10.7478C31.1327 9.61617 31.1327 7.77723 30.001 6.64558L27.4265 4.07106C26.2948 2.9394 24.4519 2.94345 23.3242 4.07106L22.132 5.26334C21.938 5.17847 21.7399 5.09763 21.5419 5.02084V3.33548C21.5419 1.735 20.2405 0.433594 18.64 0.433594H14.9985C13.398 0.433594 12.0966 1.735 12.0966 3.33548V5.0168C11.8986 5.09359 11.7005 5.17442 11.5065 5.2593L10.3142 4.06702C9.18258 2.93536 7.34364 2.93536 6.21198 4.06702L3.63747 6.64154C2.50581 7.77319 2.50581 9.61213 3.63747 10.7438L4.82975 11.9361C4.74487 12.1301 4.66 12.3281 4.58725 12.5261H2.90189C1.3014 12.5261 0 13.8276 0 15.428V19.0695C0 20.67 1.3014 21.9714 2.90189 21.9714H4.58321C4.66 22.1735 4.74487 22.3716 4.82975 22.5615L3.63747 23.7538C3.09185 24.2994 2.78872 25.0269 2.78872 25.8029C2.78872 26.5789 3.0878 27.3064 3.63747 27.852L6.21198 30.4265C7.34364 31.5582 9.18258 31.5582 10.3142 30.4265L11.5065 29.2342C11.7005 29.3191 11.8945 29.3999 12.0966 29.4808V31.1621C12.0966 32.7626 13.398 34.064 14.9985 34.064H18.64C20.2405 34.064 21.5419 32.7626 21.5419 31.1621V29.4808C21.744 29.404 21.938 29.3232 22.132 29.2342L23.3242 30.4265C23.9951 31.0974 24.949 31.3803 25.8503 31.2348V37.1518C25.8503 38.9624 27.3214 40.4336 29.1321 40.4336H29.1886C30.9993 40.4336 32.4704 38.9624 32.4704 37.1518V25.3664C34.4751 24.1943 35.7037 22.0644 35.7037 19.7202C35.7037 17.8813 34.9399 16.1474 33.59 14.9067ZM24.2053 29.5535L22.7059 28.0541C22.5159 27.8641 22.229 27.8156 21.9905 27.9328C21.5863 28.1309 21.1579 28.3087 20.7133 28.4663C20.4628 28.5552 20.293 28.7897 20.293 29.0564V31.1742C20.293 32.0836 19.5534 32.8272 18.64 32.8272H14.9985C14.0891 32.8272 13.3455 32.0876 13.3455 31.1742V29.0564C13.3455 28.7897 13.1798 28.5552 12.9292 28.4663C12.4846 28.3087 12.0562 28.1309 11.648 27.9328C11.4095 27.8156 11.1226 27.8641 10.9326 28.0541L9.43316 29.5535C8.79054 30.1961 7.74376 30.1961 7.0971 29.5535L4.52258 26.979C4.21138 26.6678 4.04163 26.2556 4.04163 25.811C4.04163 25.3704 4.21138 24.9542 4.52258 24.643L6.02203 23.1435C6.21198 22.9535 6.26048 22.6666 6.14328 22.4281C5.94928 22.0321 5.77145 21.5996 5.60978 21.151C5.52086 20.9004 5.28645 20.7347 5.0197 20.7347H2.90189C1.99252 20.7347 1.24886 19.9951 1.24886 19.0817V15.4402C1.24886 14.5308 1.98848 13.7871 2.90189 13.7871H5.02374C5.29049 13.7871 5.52895 13.6174 5.61382 13.3668C5.76336 12.9384 5.94119 12.5059 6.14328 12.0897C6.26048 11.8512 6.21198 11.5642 6.02203 11.3743L4.52258 9.87484C3.87996 9.23222 3.87996 8.18544 4.52258 7.53878L7.0971 4.96426C7.73972 4.32164 8.7865 4.32164 9.43316 4.96426L10.9326 6.4637C11.1226 6.65366 11.4095 6.70216 11.648 6.58495C12.0562 6.38691 12.4886 6.20504 12.9251 6.0555C13.1757 5.96658 13.3455 5.73217 13.3455 5.46542V3.33548C13.3455 2.42612 14.0851 1.68246 14.9985 1.68246H18.64C19.5494 1.68246 20.293 2.42208 20.293 3.33548V5.45734C20.293 5.72409 20.4628 5.96254 20.7133 6.04742C21.1539 6.19696 21.5823 6.37479 21.9905 6.57687C22.229 6.69408 22.52 6.64558 22.7059 6.45562L24.2053 4.95618C24.8479 4.31356 25.8988 4.31356 26.5414 4.95618L29.1159 7.53069C29.7585 8.17331 29.7585 9.22009 29.1159 9.86676L27.6165 11.3662C27.4305 11.5562 27.382 11.8391 27.4952 12.0816C27.6892 12.4857 27.8711 12.9141 28.0247 13.3628C28.1136 13.6133 28.348 13.7791 28.6147 13.7791H30.7325C31.2135 13.7791 31.6581 13.9933 31.9612 14.3368C31.8359 14.361 31.7106 14.4055 31.5894 14.4621C31.0114 14.7329 30.6517 15.3027 30.6517 15.9413V19.1463C30.6517 19.9708 29.9808 20.6458 29.1523 20.6458C28.3237 20.6458 27.6528 19.9749 27.6528 19.1463V15.9413C27.6528 15.3027 27.2931 14.7369 26.7152 14.4621C26.1372 14.1913 25.4703 14.2762 24.9773 14.6803C24.8803 14.7612 24.7873 14.842 24.6984 14.9269C23.6839 11.4874 20.4911 9.03014 16.8051 9.03014C12.2704 9.03014 8.57634 12.7201 8.57634 17.2589C8.57634 21.7976 12.2663 25.4877 16.8051 25.4877C19.2947 25.4877 21.6429 24.3479 23.1909 22.4443C23.7405 23.6528 24.6539 24.6793 25.8341 25.3704V29.9698C25.2804 30.1355 24.6378 29.986 24.2053 29.5535ZM22.7342 20.957C21.4611 22.9818 19.2179 24.2307 16.8172 24.2307C12.9696 24.2307 9.84137 21.1025 9.84137 17.2549C9.84137 13.4072 12.9696 10.279 16.8172 10.279C20.2324 10.279 23.1504 12.7727 23.7001 16.1151C23.0009 17.174 22.617 18.4229 22.617 19.7243C22.617 20.1406 22.6574 20.5528 22.7342 20.957ZM31.5651 24.4409C31.355 24.546 31.2256 24.7642 31.2256 24.9986V37.1639C31.2256 38.2834 30.3163 39.1969 29.1927 39.1969H29.1361C28.0166 39.1969 27.1032 38.2834 27.1032 37.1639V24.9986C27.1032 24.9703 27.0991 24.9461 27.0991 24.9218C27.0991 24.9137 27.0991 24.9097 27.0951 24.9016C27.091 24.8814 27.087 24.8612 27.083 24.8369C27.083 24.8329 27.0789 24.8289 27.0789 24.8248C27.0708 24.8006 27.0627 24.7763 27.0506 24.7521C27.0506 24.748 27.0466 24.748 27.0466 24.744C27.0385 24.7238 27.0264 24.7036 27.0142 24.6834C27.0102 24.6793 27.0062 24.6712 27.0062 24.6672C26.994 24.647 26.9779 24.6268 26.9657 24.6106C26.9657 24.6106 26.9657 24.6066 26.9617 24.6066C26.9455 24.5864 26.9294 24.5702 26.9092 24.55C26.9051 24.5459 26.897 24.5419 26.893 24.5379C26.8768 24.5257 26.8607 24.5096 26.8445 24.4975C26.8405 24.4934 26.8364 24.4934 26.8324 24.4894C26.8122 24.4732 26.7879 24.4611 26.7637 24.449C26.7637 24.449 26.7596 24.449 26.7596 24.4449C25.3572 23.7295 24.371 22.4564 24.0154 20.9691C24.0113 20.9449 24.0073 20.9206 23.9992 20.9004C23.9143 20.5205 23.8699 20.1285 23.8699 19.7243C23.8699 18.14 24.5691 16.6527 25.7896 15.6463C25.8624 15.5857 25.9432 15.5533 26.0281 15.5533C26.0847 15.5533 26.1413 15.5655 26.1978 15.5937C26.3433 15.6625 26.4161 15.7837 26.4161 15.9413V19.1463C26.4161 20.6619 27.6488 21.8946 29.1644 21.8946C30.68 21.8946 31.9127 20.6619 31.9127 19.1463V15.9413C31.9127 15.7837 31.9895 15.6625 32.131 15.5937C32.2724 15.5291 32.4139 15.5452 32.5351 15.6422C33.7557 16.6527 34.4549 18.14 34.4549 19.7202C34.4549 21.7209 33.3475 23.5315 31.5651 24.4409ZM29.7989 37.3862C29.7989 37.7297 29.5201 38.0127 29.1725 38.0127H29.1442C28.8006 38.0127 28.5177 37.7338 28.5177 37.3862C28.5177 37.0386 28.7966 36.7598 29.1442 36.7598H29.1725C29.5201 36.7638 29.7989 37.0427 29.7989 37.3862ZM13.7658 16.7456V13.4193C13.7658 13.0758 13.4869 12.7929 13.1393 12.7929C12.7918 12.7929 12.5129 13.0718 12.5129 13.4193V16.7456C11.8177 17.0002 11.3206 17.6711 11.3206 18.4512C11.3206 19.2353 11.8177 19.9021 12.5169 20.1567C12.5129 20.177 12.5129 20.1972 12.5129 20.2214V21.0904C12.5129 21.4339 12.7918 21.7168 13.1393 21.7168C13.4869 21.7168 13.7658 21.4379 13.7658 21.0904V20.2214C13.7658 20.2012 13.7658 20.181 13.7617 20.1567C14.4569 19.9021 14.954 19.2353 14.954 18.4512C14.9581 17.6671 14.4609 17.0002 13.7658 16.7456ZM13.1434 19.017C12.8322 19.017 12.5775 18.7624 12.5775 18.4512C12.5775 18.14 12.8322 17.8853 13.1434 17.8853C13.4546 17.8853 13.7092 18.14 13.7092 18.4512C13.7092 18.7624 13.4546 19.017 13.1434 19.017ZM21.1216 16.7456V13.4193C21.1216 13.0758 20.8427 12.7929 20.4951 12.7929C20.1475 12.7929 19.8727 13.0758 19.8727 13.4193V16.7456C19.1775 17.0002 18.6845 17.6671 18.6845 18.4512C18.6845 19.2353 19.1816 19.9021 19.8767 20.1567C19.8727 20.177 19.8727 20.1972 19.8727 20.2174V21.0863C19.8727 21.4299 20.1516 21.7128 20.4991 21.7128C20.8467 21.7128 21.1256 21.4339 21.1256 21.0863V20.2174C21.1256 20.1972 21.1256 20.177 21.1216 20.1527C21.8167 19.8981 22.3179 19.2312 22.3179 18.4471C22.3138 17.6671 21.8167 17.0002 21.1216 16.7456ZM20.4951 19.017C20.1879 19.017 19.9293 18.7583 19.9293 18.4512C19.9293 18.14 20.1839 17.8853 20.4951 17.8853C20.8063 17.8853 21.0609 18.14 21.0609 18.4512C21.065 18.7624 20.8103 19.017 20.4951 19.017ZM17.4396 14.353C17.4437 14.3328 17.4437 14.3125 17.4437 14.2883V13.4193C17.4437 13.0758 17.1648 12.7929 16.8172 12.7929C16.4696 12.7929 16.1908 13.0718 16.1908 13.4193V14.2883C16.1908 14.3085 16.1908 14.3287 16.1948 14.353C15.4996 14.6076 15.0025 15.2745 15.0025 16.0585C15.0025 16.8386 15.4996 17.5095 16.1908 17.7641V21.0904C16.1908 21.4339 16.4696 21.7168 16.8172 21.7168C17.1648 21.7168 17.4437 21.4379 17.4437 21.0904V17.7641C18.1388 17.5095 18.636 16.8386 18.636 16.0585C18.636 15.2745 18.1388 14.6076 17.4396 14.353ZM16.8213 16.6244C16.5101 16.6244 16.2554 16.3697 16.2554 16.0585C16.2554 15.7514 16.5141 15.4927 16.8213 15.4927C17.1325 15.4927 17.3871 15.7473 17.3871 16.0585C17.3871 16.3697 17.1325 16.6244 16.8213 16.6244Z" fill="#F9633B"/>
</svg>
