<svg width="26" height="24" viewBox="0 0 26 24" fill="none" xmlns="http://www.w3.org/2000/svg">
<path d="M10.3963 3.95871L10.3962 3.95853C9.4713 2.9459 8.29321 2.44434 7.12541 2.44434C5.9576 2.44434 4.77949 2.9459 3.85466 3.95853L3.85466 3.95853C2.00263 5.98629 2.00367 9.29174 3.85482 11.3225L12.7806 21.1141C14.2336 19.5235 15.6884 17.9333 17.1432 16.3432L17.1607 16.324C18.683 14.6601 20.2052 12.9962 21.7252 11.3319L21.9098 11.5005L21.7252 11.3319C23.5773 9.30401 23.5773 5.99612 21.7252 3.9681C19.8849 1.95314 17.0239 1.95309 15.1837 3.9681L13.428 5.89777L13.4277 5.89814C13.3478 5.98551 13.2509 6.05542 13.1427 6.1033C13.0345 6.15118 12.9176 6.17596 12.7993 6.17596C12.6811 6.17596 12.5642 6.15118 12.456 6.1033C12.3479 6.05545 12.251 5.9856 12.1712 5.8983L10.3963 3.95871ZM10.3963 3.95871L12.171 5.89814L10.3963 3.95871ZM13.9267 2.80003L12.7986 4.04024L11.6528 2.79011C11.6527 2.79007 11.6527 2.79003 11.6527 2.78999C10.4163 1.43639 8.77149 0.75 7.12541 0.75C5.47927 0.75 3.83436 1.43642 2.59803 2.79011C0.132425 5.48964 0.135613 9.78944 2.59786 12.4906L12.152 22.972L12.1522 22.9722C12.232 23.0595 12.3289 23.1295 12.4371 23.1774C12.5453 23.2253 12.6622 23.25 12.7805 23.25C12.8987 23.25 13.0156 23.2253 13.1238 23.1774C13.232 23.1295 13.329 23.0595 13.4088 22.9722L13.4088 22.9722C15.3048 20.8962 17.2004 18.8205 19.0961 16.7448C20.3881 15.33 21.6801 13.9153 22.9724 12.5003C25.4378 9.80096 25.4378 5.49914 22.9724 2.79965C20.495 0.0870975 16.4044 0.0870315 13.927 2.79965L13.9267 2.80003Z" fill="#06498B" stroke="#06498B" stroke-width="0.5"/>
</svg>
