<svg width="144" height="30" viewBox="0 0 144 30" fill="none" xmlns="http://www.w3.org/2000/svg">
<g style="mix-blend-mode:luminosity">
<path d="M46.0086 24.1988C45.2852 24.238 44.5697 24.0324 43.9776 23.615C43.7301 23.4316 43.5311 23.1907 43.3976 22.9131C43.2641 22.6355 43.2002 22.3296 43.2114 22.0218V10.7477C43.2055 10.6999 43.2105 10.6515 43.2262 10.606C43.2418 10.5605 43.2676 10.5192 43.3016 10.4852C43.3356 10.4512 43.3769 10.4254 43.4224 10.4097C43.4679 10.3941 43.5164 10.3891 43.5641 10.395H45.6073C45.8384 10.395 45.9478 10.5166 45.9478 10.7477V21.1462C45.9478 21.6083 46.1546 21.8394 46.5802 21.8394C46.7607 21.8468 46.9412 21.8263 47.1154 21.7786C47.3586 21.7786 47.4924 21.8516 47.5046 22.0705L47.687 23.5907C47.6958 23.635 47.6949 23.6807 47.6845 23.7247C47.6742 23.7687 47.6545 23.8099 47.6268 23.8456C47.5992 23.8814 47.5642 23.9107 47.5242 23.9318C47.4842 23.9529 47.4402 23.9651 47.3951 23.9677C46.9476 24.1156 46.4799 24.1935 46.0086 24.1988Z" fill="#394149"/>
<path d="M57.5027 22.8974C56.476 23.7457 55.1858 24.2097 53.8541 24.2097C52.5223 24.2097 51.2322 23.7457 50.2055 22.8974C49.3031 21.9864 48.7969 20.7561 48.7969 19.4738C48.7969 18.1916 49.3031 16.9612 50.2055 16.0502C51.2342 15.2063 52.5235 14.7451 53.8541 14.7451C55.1846 14.7451 56.474 15.2063 57.5027 16.0502C58.3842 16.9696 58.8764 18.194 58.8764 19.4677C58.8764 20.7415 58.3842 21.9659 57.5027 22.8853V22.8974ZM52.1271 21.292C52.6035 21.7236 53.2234 21.9626 53.8662 21.9626C54.5091 21.9626 55.129 21.7236 55.6054 21.292C56.0366 20.7962 56.2741 20.1613 56.2741 19.5042C56.2741 18.8471 56.0366 18.2122 55.6054 17.7164C55.129 17.2848 54.5091 17.0458 53.8662 17.0458C53.2234 17.0458 52.6035 17.2848 52.1271 17.7164C51.6959 18.2122 51.4584 18.8471 51.4584 19.5042C51.4584 20.1613 51.6959 20.7962 52.1271 21.292Z" fill="#394149"/>
<path d="M70.1263 15.0523C70.3574 15.0523 70.4669 15.1739 70.4669 15.405V24.1251C70.4881 24.7137 70.378 25.2995 70.1445 25.8402C69.911 26.3809 69.5599 26.8627 69.1169 27.2507C68.1335 28.0892 66.8689 28.5238 65.5778 28.4669C64.4116 28.5079 63.261 28.1895 62.2819 27.5548C61.8638 27.2802 61.5066 26.9226 61.2325 26.5042C60.9584 26.0857 60.7733 25.6154 60.6887 25.1224C60.6887 24.8792 60.6887 24.7697 61.017 24.7697H63.0602C63.147 24.7726 63.231 24.8006 63.3022 24.8503C63.3735 24.8999 63.4288 24.9691 63.4616 25.0494C63.5941 25.4188 63.8583 25.7263 64.2035 25.9129C64.6241 26.13 65.0923 26.2387 65.5656 26.2291C65.8512 26.2448 66.137 26.2034 66.4064 26.1073C66.6757 26.0112 66.9233 25.8625 67.1345 25.6697C67.3275 25.468 67.4776 25.2293 67.5758 24.968C67.6741 24.7068 67.7184 24.4283 67.7061 24.1494V23.3832C66.9746 23.9213 66.0842 24.1995 65.1764 24.1738C64.5411 24.1969 63.9076 24.0913 63.3141 23.8635C62.7206 23.6357 62.1792 23.2903 61.7224 22.8481C60.8456 21.941 60.3555 20.7287 60.3555 19.4671C60.3555 18.2055 60.8456 16.9932 61.7224 16.086C62.1814 15.6477 62.7234 15.3057 63.3166 15.0801C63.9098 14.8545 64.5422 14.7499 65.1764 14.7726C66.1105 14.7479 67.0248 15.0441 67.7669 15.6117V15.4171C67.7613 15.3705 67.7662 15.3233 67.7812 15.2788C67.7961 15.2343 67.8208 15.1937 67.8534 15.1599C67.886 15.1261 67.9257 15.1 67.9697 15.0835C68.0136 15.067 68.0607 15.0605 68.1075 15.0644L70.1263 15.0523ZM65.4075 22.0089C65.7208 22.0186 66.0325 21.9594 66.3204 21.8354C66.6083 21.7114 66.8654 21.5257 67.0737 21.2914C67.478 20.7692 67.6974 20.1275 67.6974 19.4671C67.6974 18.8067 67.478 18.165 67.0737 17.6428C66.8662 17.4116 66.6106 17.2287 66.3248 17.1068C66.0391 16.985 65.7301 16.9271 65.4197 16.9374C65.1027 16.9274 64.7874 16.9864 64.4955 17.1103C64.2036 17.2342 63.9421 17.42 63.7291 17.6549C63.2812 18.1544 63.0456 18.8089 63.0724 19.4792C63.0505 20.143 63.2808 20.7905 63.717 21.2914C63.9305 21.5256 64.1921 21.711 64.4838 21.8349C64.7756 21.9587 65.0907 22.0181 65.4075 22.0089Z" fill="#394149"/>
<path d="M80.9621 22.8968C79.9335 23.7407 78.6441 24.2019 77.3135 24.2019C75.983 24.2019 74.6936 23.7407 73.665 22.8968C72.7826 21.9754 72.29 20.7489 72.29 19.4732C72.29 18.1975 72.7826 16.971 73.665 16.0496C74.6946 15.2079 75.9836 14.748 77.3135 14.748C78.6435 14.748 79.9325 15.2079 80.9621 16.0496C81.8437 16.9689 82.3359 18.1934 82.3359 19.4671C82.3359 20.7408 81.8437 21.9653 80.9621 22.8846V22.8968ZM75.5744 21.2914C75.8075 21.5132 76.0824 21.6865 76.383 21.8014C76.6836 21.9162 77.004 21.9702 77.3257 21.9603C77.6453 21.9686 77.9635 21.9138 78.2619 21.799C78.5603 21.6842 78.8332 21.5117 79.0649 21.2914C79.489 20.7923 79.7219 20.1586 79.7219 19.5036C79.7219 18.8486 79.489 18.2149 79.0649 17.7158C78.8332 17.4955 78.5603 17.323 78.2619 17.2082C77.9635 17.0934 77.6453 17.0386 77.3257 17.0469C77.004 17.037 76.6836 17.091 76.383 17.2058C76.0824 17.3206 75.8075 17.494 75.5744 17.7158C75.1502 18.2149 74.9173 18.8486 74.9173 19.5036C74.9173 20.1586 75.1502 20.7923 75.5744 21.2914Z" fill="#394149"/>
<path d="M86.7269 12.9853C86.4054 13.2667 85.9927 13.4218 85.5654 13.4218C85.1382 13.4218 84.7254 13.2667 84.4039 12.9853C84.2582 12.8477 84.1421 12.6819 84.0627 12.4978C83.9833 12.3138 83.9424 12.1155 83.9424 11.9151C83.9424 11.7146 83.9833 11.5163 84.0627 11.3323C84.1421 11.1482 84.2582 10.9824 84.4039 10.8448C84.7288 10.5704 85.1402 10.4199 85.5654 10.4199C85.9906 10.4199 86.4021 10.5704 86.7269 10.8448C86.8727 10.9824 86.9888 11.1482 87.0681 11.3323C87.1475 11.5163 87.1885 11.7146 87.1885 11.9151C87.1885 12.1155 87.1475 12.3138 87.0681 12.4978C86.9888 12.6819 86.8727 12.8477 86.7269 12.9853ZM86.9823 24.1986C86.2593 24.2341 85.545 24.0288 84.9512 23.6149C84.7076 23.4287 84.5119 23.187 84.3808 22.9098C84.2496 22.6326 84.1866 22.3281 84.1972 22.0216V15.4055C84.1913 15.3578 84.1963 15.3094 84.212 15.2639C84.2276 15.2184 84.2534 15.1771 84.2874 15.1431C84.3214 15.109 84.3627 15.0832 84.4082 15.0676C84.4537 15.052 84.5022 15.0469 84.5499 15.0528H86.5931C86.8242 15.0528 86.9336 15.1745 86.9336 15.4055V21.146C86.9336 21.6081 87.1404 21.8392 87.5539 21.8392C87.7383 21.8458 87.9227 21.8254 88.1012 21.7784C88.3444 21.7784 88.4782 21.8514 88.4904 22.0703L88.6728 23.5905C88.6816 23.6349 88.6807 23.6805 88.6704 23.7245C88.66 23.7685 88.6403 23.8097 88.6126 23.8455C88.585 23.8812 88.55 23.9106 88.51 23.9316C88.47 23.9527 88.426 23.9649 88.3809 23.9676C87.9294 24.1162 87.4576 24.1942 86.9823 24.1986Z" fill="#394149"/>
<path d="M96.1892 14.7607C96.8274 14.7355 97.4641 14.8388 98.0616 15.0644C98.6592 15.29 99.2053 15.6334 99.6675 16.0742C100.528 16.9972 101.006 18.2119 101.006 19.4735C101.006 20.7351 100.528 21.9497 99.6675 22.8728C99.2075 23.3174 98.662 23.6642 98.0642 23.892C97.4663 24.1199 96.8285 24.2241 96.1892 24.1984C95.2784 24.2187 94.3859 23.9411 93.6473 23.4079V27.7983C93.6473 28.0294 93.5257 28.1389 93.2946 28.1389H91.2514C91.2048 28.1476 91.1567 28.1448 91.1114 28.1308C91.0661 28.1168 91.0249 28.0919 90.9914 28.0584C90.9579 28.0248 90.933 27.9836 90.919 27.9383C90.9049 27.893 90.9022 27.845 90.9109 27.7983V17.8255C90.9252 17.728 90.9165 17.6284 90.8855 17.5349C90.8545 17.4413 90.8021 17.3562 90.7323 17.2865C90.6626 17.2168 90.5776 17.1643 90.484 17.1333C90.3904 17.1023 90.2909 17.0937 90.1933 17.108H89.792C89.5244 17.108 89.3906 17.0107 89.3906 16.8161V15.381C89.3843 15.2922 89.4086 15.2039 89.4595 15.1309C89.5104 15.0578 89.5849 15.0044 89.6703 14.9796C90.091 14.8267 90.5363 14.7525 90.9838 14.7607C91.4302 14.7212 91.8781 14.8159 92.2703 15.0325C92.6625 15.2492 92.981 15.5781 93.1852 15.9769C93.5769 15.5806 94.0453 15.2684 94.5619 15.0593C95.0784 14.8502 95.6321 14.7486 96.1892 14.7607ZM94.2919 21.2917C94.5088 21.5183 94.7693 21.6987 95.0577 21.8219C95.3462 21.9451 95.6566 22.0087 95.9702 22.0087C96.2839 22.0087 96.5943 21.9451 96.8828 21.8219C97.1712 21.6987 97.4317 21.5183 97.6486 21.2917C98.1054 20.7822 98.3454 20.1146 98.3175 19.4309C98.3493 18.7466 98.1088 18.0775 97.6486 17.5701C97.4317 17.3435 97.1712 17.1631 96.8828 17.0399C96.5943 16.9167 96.2839 16.8532 95.9702 16.8532C95.6566 16.8532 95.3462 16.9167 95.0577 17.0399C94.7693 17.1631 94.5088 17.3435 94.2919 17.5701C93.8494 18.0865 93.619 18.7514 93.6473 19.4309C93.6226 20.1099 93.8525 20.7735 94.2919 21.2917Z" fill="#394149"/>
<path d="M106.745 24.1987C105.654 24.2436 104.571 23.9824 103.62 23.4446C103.238 23.2148 102.913 22.9019 102.669 22.5292C102.425 22.1566 102.267 21.7337 102.209 21.292C102.209 21.0487 102.294 20.9271 102.562 20.9271H104.349C104.435 20.9304 104.517 20.9572 104.588 21.0044C104.659 21.0516 104.715 21.1174 104.751 21.1947C105.006 21.8514 105.675 22.1798 106.745 22.1798C107.119 22.1969 107.49 22.1217 107.828 21.9609C107.944 21.9083 108.044 21.8251 108.117 21.7201C108.19 21.6152 108.233 21.4924 108.241 21.3649C108.241 21.0487 108.047 20.8298 107.658 20.6839C107.196 20.5302 106.719 20.4283 106.235 20.3798C105.661 20.3149 105.092 20.2134 104.532 20.0758C103.987 19.9524 103.491 19.6686 103.109 19.2609C102.884 18.9838 102.718 18.6634 102.622 18.3196C102.526 17.9757 102.502 17.6158 102.551 17.2622C102.6 16.9085 102.721 16.5688 102.907 16.264C103.093 15.9593 103.34 15.6961 103.632 15.4907C104.509 14.9323 105.537 14.6603 106.575 14.7123C107.58 14.6784 108.575 14.927 109.445 15.4299C109.796 15.6287 110.098 15.9032 110.33 16.2335C110.561 16.5638 110.716 16.9416 110.783 17.3393C110.783 17.5826 110.674 17.7042 110.455 17.7042H108.655C108.579 17.7087 108.504 17.6902 108.439 17.6511C108.373 17.6121 108.322 17.5543 108.29 17.4853C108.17 17.1972 107.943 16.9664 107.658 16.8407C107.335 16.6721 106.975 16.5883 106.612 16.5975C106.255 16.5781 105.899 16.6492 105.578 16.8042C105.465 16.8479 105.367 16.9246 105.298 17.0243C105.228 17.124 105.19 17.2422 105.189 17.3637C105.196 17.53 105.257 17.6894 105.362 17.8186C105.467 17.9477 105.611 18.0398 105.772 18.0812C106.239 18.2572 106.725 18.3796 107.22 18.4461C107.789 18.5209 108.353 18.6265 108.91 18.7623C109.455 18.8857 109.951 19.1695 110.333 19.5771C110.538 19.8017 110.696 20.0646 110.798 20.3506C110.9 20.6366 110.945 20.94 110.929 21.2433C110.94 21.6637 110.841 22.0797 110.643 22.4506C110.444 22.8215 110.153 23.1346 109.798 23.3595C108.889 23.9428 107.825 24.2356 106.745 24.1987Z" fill="#394149"/>
<path d="M123.785 23.5904C123.792 23.6336 123.79 23.6777 123.779 23.7202C123.769 23.7627 123.75 23.8027 123.724 23.8378C123.698 23.8729 123.665 23.9025 123.628 23.9247C123.59 23.947 123.548 23.9615 123.505 23.9675C123.061 24.1124 122.598 24.1903 122.131 24.1985C121.669 24.2464 121.202 24.1742 120.776 23.9888C120.35 23.8034 119.979 23.5112 119.698 23.1404C118.839 23.879 117.728 24.258 116.597 24.1985C116.072 24.2227 115.547 24.1368 115.057 23.9462C114.567 23.7556 114.122 23.4645 113.751 23.0918C113.383 22.7012 113.097 22.2403 112.911 21.7367C112.725 21.233 112.643 20.697 112.669 20.1608V15.4054C112.669 15.1744 112.778 15.0527 113.009 15.0527H115.053C115.284 15.0527 115.393 15.1744 115.393 15.4054V19.7959C115.371 20.3429 115.558 20.8778 115.916 21.2918C116.095 21.4815 116.312 21.6306 116.553 21.7292C116.795 21.8278 117.054 21.8736 117.315 21.8634C117.581 21.8751 117.847 21.8338 118.098 21.742C118.348 21.6501 118.578 21.5095 118.774 21.3283C118.959 21.1373 119.104 20.9103 119.198 20.6614C119.292 20.4125 119.334 20.1469 119.321 19.881V15.4054C119.321 15.1744 119.431 15.0527 119.662 15.0527H121.729C121.961 15.0527 122.07 15.1744 122.07 15.4054V21.1337C122.07 21.608 122.277 21.8391 122.678 21.8391C122.867 21.8464 123.055 21.8259 123.238 21.7783C123.284 21.7654 123.332 21.7631 123.379 21.7715C123.426 21.78 123.47 21.799 123.509 21.827C123.548 21.8551 123.579 21.8916 123.602 21.9337C123.624 21.9758 123.637 22.0225 123.639 22.0702L123.785 23.5904Z" fill="#394149"/>
<path d="M143.11 23.5908C143.121 23.6344 143.122 23.6798 143.114 23.7238C143.105 23.7678 143.086 23.8093 143.06 23.8454C143.033 23.8814 142.998 23.9111 142.959 23.9323C142.919 23.9534 142.876 23.9656 142.831 23.9679C142.379 24.1149 141.907 24.1928 141.432 24.1989C140.709 24.2362 139.994 24.0308 139.401 23.6152C139.145 23.4371 138.936 23.1986 138.794 22.9207C138.652 22.6427 138.581 22.334 138.586 22.0219V19.1639C138.612 18.6185 138.429 18.0838 138.075 17.668C137.905 17.4779 137.694 17.328 137.459 17.2292C137.223 17.1303 136.968 17.0849 136.713 17.0963C136.483 17.0876 136.254 17.1313 136.044 17.224C135.833 17.3167 135.646 17.456 135.497 17.6315C135.176 18.039 135.012 18.5483 135.035 19.0666V23.5543C135.035 23.7854 134.925 23.907 134.694 23.907H132.639C132.591 23.913 132.543 23.9079 132.497 23.8923C132.452 23.8766 132.411 23.8508 132.377 23.8168C132.343 23.7828 132.317 23.7415 132.301 23.696C132.285 23.6505 132.28 23.6021 132.286 23.5543V19.1639C132.313 18.6245 132.145 18.0935 131.812 17.668C131.664 17.4892 131.478 17.3453 131.268 17.2465C131.057 17.1477 130.828 17.0964 130.596 17.0963C130.348 17.0863 130.1 17.1288 129.87 17.221C129.639 17.3133 129.431 17.4531 129.258 17.6315C128.91 18.026 128.731 18.5413 128.759 19.0666V23.5543C128.765 23.6021 128.76 23.6505 128.745 23.696C128.729 23.7415 128.703 23.7828 128.669 23.8168C128.635 23.8508 128.594 23.8766 128.548 23.8923C128.503 23.9079 128.454 23.913 128.407 23.907H126.424C126.193 23.907 126.084 23.7854 126.084 23.5543V17.8261C126.098 17.7285 126.089 17.629 126.058 17.5354C126.027 17.4418 125.975 17.3567 125.905 17.287C125.835 17.2173 125.75 17.1649 125.657 17.1339C125.563 17.1029 125.464 17.0942 125.366 17.1085H124.965C124.697 17.1085 124.563 17.0112 124.563 16.8166V15.3815C124.557 15.2927 124.581 15.2044 124.632 15.1314C124.683 15.0583 124.758 15.005 124.843 14.9802C125.264 14.8272 125.709 14.753 126.157 14.7612C126.586 14.7246 127.018 14.8103 127.401 15.0083C127.784 15.2062 128.103 15.5085 128.322 15.8801C128.732 15.4913 129.218 15.1912 129.749 14.9987C130.281 14.8061 130.847 14.7253 131.411 14.7612C131.959 14.7345 132.505 14.8373 133.006 15.0613C133.507 15.2853 133.948 15.6241 134.293 16.0504C134.696 15.613 135.19 15.2704 135.741 15.0474C136.292 14.8245 136.886 14.7267 137.479 14.7612C138.01 14.7364 138.541 14.8219 139.037 15.0124C139.533 15.2029 139.984 15.4942 140.362 15.868C140.731 16.2577 141.018 16.7185 141.204 17.2224C141.39 17.7262 141.472 18.2626 141.444 18.799V21.1463C141.444 21.6084 141.651 21.8395 142.04 21.8395C142.229 21.8483 142.417 21.8278 142.6 21.7787C142.851 21.7787 142.985 21.876 143.001 22.0706L143.11 23.5908Z" fill="#394149"/>
<path d="M0.498641 13.4717C1.39591 9.86523 3.47398 6.66268 6.40195 4.37392C9.32991 2.08516 12.9394 0.841797 16.6558 0.841797C20.3722 0.841797 23.9817 2.08516 26.9097 4.37392C29.8377 6.66268 31.9157 9.86523 32.813 13.4717H31.3536C28.8916 13.4354 26.4801 14.1712 24.4577 15.5757C24.341 15.6602 24.2192 15.7374 24.0929 15.8068H23.9226C23.7963 15.7374 23.6744 15.6602 23.5577 15.5757C21.5174 14.2037 19.1145 13.4709 16.6558 13.4709C14.1971 13.4709 11.7942 14.2037 9.7539 15.5757C9.63719 15.6602 9.51533 15.7374 9.38904 15.8068H9.21878C9.09249 15.7374 8.97063 15.6602 8.85392 15.5757C6.83154 14.1712 4.42005 13.4354 1.95808 13.4717H0.498641ZM28.7266 21.0972C29.4758 20.5138 30.4043 20.2085 31.3536 20.2337H33.3116V16.3297H31.3536C29.6816 16.3095 28.0478 16.8299 26.6955 17.8135C25.9346 18.3745 25.014 18.6772 24.0685 18.6772C23.1231 18.6772 22.2025 18.3745 21.4416 17.8135C20.055 16.8483 18.4061 16.3309 16.7166 16.3309C15.0272 16.3309 13.3783 16.8483 11.9917 17.8135C11.2307 18.3745 10.3101 18.6772 9.36472 18.6772C8.4193 18.6772 7.49871 18.3745 6.73773 17.8135C5.36878 16.8173 3.71159 16.2963 2.01889 16.3297H0V20.2337H1.95808C2.90733 20.2085 3.83587 20.5138 4.58506 21.0972C5.9691 22.0631 7.61619 22.5809 9.30391 22.5809C10.9916 22.5809 12.6387 22.0631 14.0228 21.0972C14.7729 20.5156 15.7008 20.2106 16.6497 20.2337C17.5993 20.2065 18.5285 20.5119 19.2767 21.0972C20.6633 22.0624 22.3122 22.5798 24.0016 22.5798C25.6911 22.5798 27.34 22.0624 28.7266 21.0972ZM28.7266 28.0782C29.4758 27.4947 30.4043 27.1895 31.3536 27.2147H33.3116V23.3107H31.3536C29.6816 23.2905 28.0478 23.8109 26.6955 24.7945C25.9346 25.3555 25.014 25.6581 24.0685 25.6581C23.1231 25.6581 22.2025 25.3555 21.4416 24.7945C20.055 23.8292 18.4061 23.3118 16.7166 23.3118C15.0272 23.3118 13.3783 23.8292 11.9917 24.7945C11.2307 25.3555 10.3101 25.6581 9.36472 25.6581C8.4193 25.6581 7.49871 25.3555 6.73773 24.7945C5.36878 23.7983 3.71159 23.2772 2.01889 23.3107H0V27.2147H1.95808C2.90733 27.1895 3.83587 27.4947 4.58506 28.0782C5.9691 29.044 7.61619 29.5619 9.30391 29.5619C10.9916 29.5619 12.6387 29.044 14.0228 28.0782C14.7729 27.4965 15.7008 27.1915 16.6497 27.2147C17.5993 27.1875 18.5285 27.4929 19.2767 28.0782C20.6633 29.0434 22.3122 29.5608 24.0016 29.5608C25.6911 29.5608 27.34 29.0434 28.7266 28.0782Z" fill="#394149"/>
</g>
</svg>
