<svg width="33" height="34" viewBox="0 0 33 34" fill="none" xmlns="http://www.w3.org/2000/svg">
<path d="M3.30005 11.9838H1.23752C0.554326 11.9838 0 11.4295 0 10.7463V2.08362C0 1.17161 0.738016 0.433594 1.65003 0.433594C2.56204 0.433594 3.30005 1.17161 3.30005 2.08362V11.9838Z" fill="#06498B"/>
<path fill-rule="evenodd" clip-rule="evenodd" d="M4.12612 2.08362C4.12612 1.45034 3.88764 0.871882 3.49609 0.433594H24.3388C25.9341 0.433594 27.2264 1.72589 27.2264 3.32114V20.6802C27.054 19.3718 26.4642 18.1085 25.4603 17.1046C23.0336 14.6763 19.0987 14.6763 16.6719 17.1046C14.2436 19.5313 14.2436 23.4663 16.6719 25.8931C18.728 27.9492 21.8686 28.2634 24.255 26.8341L25.8261 28.4052C25.0784 28.8741 24.1197 28.8564 23.3865 28.3504C22.3455 27.6333 20.9694 27.6333 19.9285 28.3504C19.1679 28.8741 18.1657 28.8741 17.4051 28.3504C16.3642 27.6333 14.9881 27.6333 13.9472 28.3504C13.1866 28.8741 12.1844 28.8741 11.4238 28.3504C10.3829 27.6333 9.00673 27.6333 7.96581 28.3504C7.20523 28.8741 6.203 28.8741 5.44242 28.3504L5.24101 28.2118C4.54329 27.73 4.12596 26.9356 4.12596 26.0881L4.12612 2.08362ZM11.5512 4.14615C11.5512 3.91895 11.3659 3.73365 11.1387 3.73365C10.9115 3.73365 10.7262 3.91895 10.7262 4.14615V5.79618H7.83868C7.61147 5.79618 7.42617 5.98149 7.42617 6.20869C7.42617 6.43589 7.61147 6.62119 7.83868 6.62119H10.7262V9.09623H7.83868C7.61147 9.09623 7.42617 9.28154 7.42617 9.50874C7.42617 9.73594 7.61147 9.92125 7.83868 9.92125H10.7262V12.3963H7.83868C7.61147 12.3963 7.42617 12.5816 7.42617 12.8088C7.42617 13.036 7.61147 13.2213 7.83868 13.2213H10.7262V14.8713C10.7262 15.0985 10.9115 15.2838 11.1387 15.2838C11.3659 15.2838 11.5512 15.0985 11.5512 14.8713V13.2213H23.5139C23.7411 13.2213 23.9264 13.036 23.9264 12.8088C23.9264 12.5816 23.7411 12.3963 23.5139 12.3963H11.5512V9.92125H23.5139C23.7411 9.92125 23.9264 9.73594 23.9264 9.50874C23.9264 9.28154 23.7411 9.09623 23.5139 9.09623H11.5512V6.62119H23.5139C23.7411 6.62119 23.9264 6.43589 23.9264 6.20869C23.9264 5.98149 23.7411 5.79618 23.5139 5.79618H11.5512V4.14615ZM9.90121 17.7589C9.90121 17.5317 9.7159 17.3464 9.4887 17.3464C9.2615 17.3464 9.0762 17.5317 9.0762 17.7589V18.173C8.86994 18.2326 8.67336 18.3374 8.50095 18.4872C7.81937 19.085 7.81937 20.1453 8.50095 20.7431L9.93186 21.9952C10.2396 22.2643 10.2396 22.7412 9.93186 23.0103C9.67888 23.2327 9.29858 23.2327 9.04563 23.0103L8.11105 22.1917C7.93864 22.0419 7.67759 22.0596 7.52773 22.2304C7.37787 22.4028 7.3956 22.6639 7.5664 22.8137L8.50098 23.6307C8.67339 23.7805 8.86998 23.8853 9.07622 23.9449V24.359C9.07622 24.5862 9.26152 24.7715 9.48872 24.7715C9.71592 24.7715 9.90123 24.5862 9.90123 24.359V23.9449C10.1075 23.8853 10.3041 23.7805 10.4765 23.6307C11.1581 23.0329 11.1581 21.9726 10.4765 21.3748L9.04557 20.1227C8.7378 19.8536 8.7378 19.3767 9.04557 19.1076C9.29855 18.8852 9.67885 18.8852 9.9318 19.1076L10.8664 19.9262C11.0388 20.076 11.2998 20.0583 11.4497 19.8875C11.5996 19.7151 11.5818 19.454 11.411 19.3042L10.4764 18.4872C10.304 18.3374 10.1075 18.2326 9.90121 18.173V17.7589Z" fill="#06498B"/>
<path d="M26.4004 24.6867C26.8419 23.9503 27.1158 23.1414 27.2254 22.3164V25.5117L26.4004 24.6867Z" fill="#06498B"/>
<path d="M25.9211 25.375L27.1715 26.6254C27.1699 26.627 27.1683 26.627 27.1667 26.6286C27.0136 26.7205 26.8686 26.8333 26.7348 26.9654L26.5318 27.1684C26.398 27.3022 26.2853 27.4504 26.1918 27.6051L24.9414 26.3547C24.9527 26.345 24.964 26.337 24.9752 26.3273C25.1412 26.192 25.304 26.0469 25.4587 25.8922C25.6246 25.7263 25.7777 25.5539 25.9211 25.375Z" fill="#06498B"/>
<path d="M23.5083 19.0557C22.1596 17.7054 19.9714 17.7054 18.6209 19.0557C17.2722 20.4044 17.2722 22.5926 18.6209 23.9414C19.9712 25.2917 22.1594 25.2917 23.5083 23.9414C23.6775 23.7738 23.8241 23.5918 23.9514 23.4C24.836 22.0594 24.6894 20.2351 23.5083 19.0557Z" fill="#06498B"/>
<path fill-rule="evenodd" clip-rule="evenodd" d="M24.8753 17.6889C22.7708 15.5829 19.358 15.5829 17.2534 17.6889C15.1473 19.7934 15.1473 23.2062 17.2534 25.3108C19.3578 27.4152 22.7706 27.4152 24.8753 25.3108C26.9797 23.2064 26.9797 19.7935 24.8753 17.6889ZM18.0367 18.4736C19.7093 16.801 22.4196 16.801 24.0907 18.4736C25.7633 20.1446 25.7633 22.8549 24.0907 24.5259C22.4197 26.1985 19.7094 26.1985 18.0367 24.5259C16.3657 22.8549 16.3657 20.1447 18.0367 18.4736Z" fill="#06498B"/>
<path d="M29.2677 27.5501C28.7295 27.0119 27.8578 27.0119 27.3196 27.5501L27.1165 27.7532C26.5783 28.2914 26.5783 29.1631 27.1165 29.7013L30.4456 33.032C30.9838 33.5686 31.8555 33.5686 32.3937 33.032L32.5984 32.8273C33.135 32.2891 33.135 31.4174 32.5984 30.8792L29.2677 27.5501Z" fill="#06498B"/>
</svg>
