<svg width="32" height="32" viewBox="0 0 32 32" fill="none" xmlns="http://www.w3.org/2000/svg">
<path d="M21.9158 25.3H24.0342C25.3 25.3 25.3 25.3 25.3 24.0342V9.51583C25.3 8.25 25.3 8.25 24.0342 8.25H21.9158C20.65 8.25 20.65 8.25 20.65 9.51583V24.0342C20.65 25.3 20.65 25.3 21.9158 25.3ZM7.96583 25.3H10.0842C11.35 25.3 11.35 25.3 11.35 24.0342V12.9C11.35 11.6342 11.35 11.6342 10.0842 11.6342H7.96583C6.7 11.6342 6.7 11.6342 6.7 12.9V24.0342C6.7 25.3 6.7 25.3 7.96583 25.3ZM14.9408 25.3H17.0592C18.325 25.3 18.325 25.3 18.325 24.0342V16.2842C18.325 15.0183 18.325 15.0183 17.0592 15.0183H14.9408C13.675 15.0183 13.675 15.0183 13.675 16.2842V24.0342C13.675 25.3 13.675 25.3 14.9408 25.3ZM1.79167 31.5C0.5 31.5 0.5 31.5 0.5 30.2083V1.79167C0.5 0.500001 0.5 0.500001 1.79167 0.500001H30.2083C31.5 0.500001 31.5 0.500001 31.5 1.79167V30.2083C31.5 31.5 31.5 31.5 30.2083 31.5H1.79167ZM4.375 5.66667C5.09833 5.66667 5.66667 5.09833 5.66667 4.375C5.66667 3.65167 5.09833 3.08333 4.375 3.08333C3.65167 3.08333 3.08333 3.65167 3.08333 4.375C3.08333 5.09833 3.65167 5.66667 4.375 5.66667ZM8.27583 5.66667C9.025 5.66667 9.5675 5.09833 9.5675 4.375C9.5675 3.65167 9.025 3.08333 8.27583 3.08333C7.5525 3.08333 6.98417 3.65167 6.98417 4.375C6.98417 5.09833 7.5525 5.66667 8.27583 5.66667ZM12.125 5.66667C12.8483 5.66667 13.4167 5.09833 13.4167 4.375C13.4167 3.65167 12.8483 3.08333 12.125 3.08333C11.4017 3.08333 10.8333 3.65167 10.8333 4.375C10.8333 5.09833 11.4017 5.66667 12.125 5.66667Z" fill="#06498B"/>
</svg>
