<svg width="63" height="63" viewBox="0 0 63 63" fill="none" xmlns="http://www.w3.org/2000/svg">
<rect width="63" height="63" rx="31.5" fill="#FEECE7"/>
<path d="M26.4687 47.7593C26.4687 48.9189 26.7817 49.7754 27.3901 50.2952C28.0202 50.8346 29.8847 50.9764 30.5147 51C30.751 43.1522 33.8972 39.5393 36.2562 37.9248C37.284 37.22 37.9238 36.0741 37.9238 34.8258V24.7154C37.9238 22.6638 36.2601 21.0001 34.2085 21.0001H19.7785C18.674 21.0001 17.8943 22.083 17.7171 23.1029L15.5395 35.6292C15.4037 36.4009 15.636 37.2279 16.1539 37.8422C16.587 38.356 17.1619 38.6435 17.7624 38.6435H26.331C26.648 38.6435 26.9453 38.7892 27.1383 39.0412C27.3293 39.2932 27.3903 39.62 27.3037 39.9233C27.2938 39.9528 26.4669 42.9416 26.4669 47.7615L26.4687 47.7593Z" fill="#F9633B"/>
<path d="M45.3875 38.1377H41.556C40.6661 38.1377 39.9435 37.2478 39.9435 36.5252V22.6128C39.9435 21.7229 40.6661 21.0003 41.556 21.0003H45.3875C46.2774 21.0003 47 21.8902 47 22.6128V36.5252C47 37.4151 46.2774 38.1377 45.3875 38.1377Z" fill="#F9633B"/>
</svg>
