<svg width="72" height="73" viewBox="0 0 72 73" fill="none" xmlns="http://www.w3.org/2000/svg">
<rect y="0.4375" width="72" height="72" rx="12" fill="white"/>
<path d="M54.6029 53.1169L46.868 45.3812C49.3921 42.4226 50.9255 38.5954 50.9255 34.4019C50.9255 25.0511 43.3127 17.4375 33.9628 17.4375C24.6129 17.4375 17 25.0511 17 34.4019C17 43.7526 24.6129 51.3662 33.9628 51.3662C38.156 51.3662 41.983 49.8327 44.9411 47.3083L52.676 55.0439C52.9474 55.3018 53.2867 55.4375 53.6395 55.4375C53.9924 55.4375 54.3316 55.3018 54.603 55.0439C55.1323 54.5146 55.1321 53.6461 54.6029 53.1169ZM42.783 41.8661H26.4985C25.0057 41.8661 23.7844 40.6446 23.7844 39.1517V28.2944C23.7844 27.5479 24.3951 26.9372 25.1415 26.9372C25.8878 26.9372 26.4985 27.5479 26.4985 28.2944V39.1517H27.8555V35.0802C27.8555 33.5874 29.0769 32.3659 30.5696 32.3659H31.9266C33.4194 32.3659 34.6407 33.5874 34.6407 35.0802V39.1517H35.9978V31.0087C35.9978 29.5159 37.2191 28.2944 38.7118 28.2944H40.0689C41.5616 28.2944 42.783 29.5159 42.783 31.0087V39.1517C43.5294 39.1517 44.14 39.7624 44.14 40.5089C44.14 41.2554 43.5294 41.8661 42.783 41.8661ZM40.0689 31.0087V39.1517H38.7118V31.0087H40.0689ZM31.9266 35.0802V39.1517H30.5696V35.0802H31.9266Z" fill="#06498B"/>
</svg>
