<svg width="72" height="73" viewBox="0 0 72 73" fill="none" xmlns="http://www.w3.org/2000/svg">
<rect y="0.433594" width="72" height="72" rx="12" fill="white"/>
<path d="M20.6427 18.4336H51.034C53.2225 18.4336 54.9981 20.2092 54.9981 22.3977V26.3733C54.9981 28.5618 53.2225 30.3374 51.034 30.3374H20.6427C19.1843 30.3374 18 29.1531 18 27.6947V21.0764C18 19.618 19.1843 18.4336 20.6427 18.4336Z" fill="#06498B"/>
<path d="M21.9641 32.9648H27.2034C28.6619 32.9648 29.8462 34.1491 29.8462 35.6076V52.7869C29.8462 54.2454 28.6619 55.4297 27.2034 55.4297H20.6427C19.1843 55.4297 18 54.2454 18 52.7869V36.9306C18 34.7421 19.7756 32.9665 21.9641 32.9665V32.9648Z" fill="#06498B"/>
<path d="M35.2192 32.9648H52.3605C53.8189 32.9648 55.0032 34.1491 55.0032 35.6076V52.7869C55.0032 54.2454 53.8189 55.4297 52.3605 55.4297H36.5422C34.3537 55.4297 32.5781 53.6541 32.5781 51.4656V35.6093C32.5781 34.1508 33.7624 32.9665 35.2208 32.9665L35.2192 32.9648Z" fill="#06498B"/>
</svg>
