<svg width="24" height="27" viewBox="0 0 24 27" fill="none" xmlns="http://www.w3.org/2000/svg">
<path fill-rule="evenodd" clip-rule="evenodd" d="M15.4791 20.5948L8.28057 16.4426C7.70787 17.0962 6.96442 17.5451 6.15933 17.7607C2.48295 18.7443 -0.603026 14.7802 1.31651 11.4563C2.78684 8.91148 6.34542 8.56481 8.28046 10.7654L15.4779 6.6143C15.1067 5.51628 15.1849 4.04086 15.8556 3.03751C17.0737 0.988886 19.737 0.32434 21.7569 1.5368C25.0335 3.4798 24.3264 8.41097 20.6709 9.3903C19.1048 9.8095 17.4076 9.30889 16.3204 8.07442L9.12412 12.2255C9.42259 13.1079 9.43362 14.0739 9.12302 14.9849L16.3227 19.1371C18.5761 16.5637 22.8273 17.5429 23.7175 20.8612C23.9994 21.9141 23.8827 23.0749 23.2989 24.098C22.2284 26.1004 19.5191 26.9169 17.4067 25.6978C15.6169 24.6657 14.8216 22.5225 15.4791 20.5948Z" fill="#06498B"/>
</svg>
