<svg width="90" height="90" viewBox="0 0 90 90" fill="none" xmlns="http://www.w3.org/2000/svg">
<path d="M45 0C33.0668 0 21.6177 4.74225 13.1793 13.1793C4.74181 21.6168 0 33.0657 0 45C0 56.9343 4.74225 68.3823 13.1793 76.8207C21.6168 85.2582 33.0657 90 45 90C56.9343 90 68.3823 85.2577 76.8207 76.8207C85.2582 68.3832 90 56.9343 90 45C89.987 33.0702 85.2447 21.6299 76.8074 13.1926C68.3699 4.7551 56.9298 0.0132923 45 0ZM66.137 33.3692L43.0615 61.0615C42.4168 61.8014 41.5039 62.2514 40.5216 62.3077C39.6043 62.3077 38.7259 61.9399 38.0769 61.2909L24.2308 47.4447C22.9587 46.0817 22.9976 43.9573 24.3173 42.6375C25.6327 41.3222 27.7572 41.2832 29.1245 42.5553L40.3831 53.7231L61.0138 28.9385C62.2902 27.4587 64.523 27.2942 65.9984 28.5707C67.4782 29.8428 67.6427 32.0755 66.3706 33.5553L66.137 33.3692Z" fill="white"/>
<circle cx="47.5" cy="45.375" r="30" fill="white"/>
<path d="M32.513 42.658L38.8434 53.3622C45.404 43.1184 52.7704 34.1407 59.4461 28.9612C60.9424 27.58 63.2444 28.3857 61.633 29.882C54.1516 37.5937 48.3966 46.3412 42.5266 60.038C40.2246 61.6493 37.5773 62.455 36.3112 60.9588L28.0241 46.111C26.8731 44.2694 30.9016 40.0107 32.513 42.658Z" fill="#F9633B"/>
</svg>
