<svg width="180" height="29" viewBox="0 0 180 29" fill="none" xmlns="http://www.w3.org/2000/svg">
<path d="M164.078 7.52359H179.415C179.183 3.35668 174.495 0.77165 172.18 0H169.865L166.393 2.31495L164.078 7.52359Z" fill="#02396F"/>
<path d="M15.9214 7.52359H0.584847C0.816342 3.35668 5.50412 0.77165 7.81906 0H10.134L13.6064 2.31495L15.9214 7.52359Z" fill="#02396F"/>
<path d="M15.6321 9.54917C14.7061 3.5303 9.84473 0.675194 7.52979 0H171.891C167.493 1.62046 165.043 5.498 164.368 7.23422C159.043 25.0593 144.208 28.551 137.456 28.0688H39.071C23.7923 26.4483 17.0789 15.0472 15.6321 9.54917Z" fill="#06498B"/>
<path d="M46.724 9.96366V8.25566H54.564V9.96366H51.568V18.0557H49.72V9.96366H46.724ZM63.4519 9.51566C64.4133 10.4863 64.8939 11.6997 64.8939 13.1557C64.8939 14.6117 64.4133 15.825 63.4519 16.7957C62.4906 17.7663 61.2913 18.2517 59.8539 18.2517C58.4166 18.2517 57.2173 17.7663 56.2559 16.7957C55.2946 15.825 54.8139 14.6117 54.8139 13.1557C54.8139 11.6997 55.2946 10.4863 56.2559 9.51566C57.2173 8.545 58.4166 8.05966 59.8539 8.05966C61.2913 8.05966 62.4906 8.545 63.4519 9.51566ZM57.5859 15.6337C58.1833 16.2403 58.9393 16.5437 59.8539 16.5437C60.7686 16.5437 61.5246 16.2403 62.1219 15.6337C62.7193 15.0177 63.0179 14.1917 63.0179 13.1557C63.0179 12.1197 62.7193 11.2983 62.1219 10.6917C61.5246 10.0757 60.7686 9.76766 59.8539 9.76766C58.9393 9.76766 58.1833 10.0757 57.5859 10.6917C56.9886 11.2983 56.6899 12.1197 56.6899 13.1557C56.6899 14.1917 56.9886 15.0177 57.5859 15.6337ZM66.3755 18.0557V8.25566H70.8275C71.9568 8.25566 72.8482 8.53566 73.5015 9.09566C74.1642 9.64633 74.4955 10.4303 74.4955 11.4477C74.4955 12.465 74.1642 13.2537 73.5015 13.8137C72.8482 14.3643 71.9568 14.6397 70.8275 14.6397H68.2235V18.0557H66.3755ZM68.2235 9.90766V12.9877H70.7715C71.3968 12.9877 71.8635 12.8523 72.1715 12.5817C72.4888 12.311 72.6475 11.933 72.6475 11.4477C72.6475 10.9623 72.4888 10.5843 72.1715 10.3137C71.8635 10.043 71.3968 9.90766 70.7715 9.90766H68.2235ZM87.636 14.5837L89.078 15.6197C88.4527 16.5623 87.8134 17.239 87.16 17.6497C86.516 18.051 85.6807 18.2517 84.654 18.2517C83.198 18.2517 81.9987 17.7803 81.056 16.8377C80.1134 15.895 79.642 14.6677 79.642 13.1557C79.642 11.6437 80.1227 10.4163 81.084 9.47366C82.0547 8.531 83.268 8.05966 84.724 8.05966C85.732 8.05966 86.614 8.293 87.37 8.75966C88.126 9.22633 88.6767 9.847 89.022 10.6217L87.524 11.6997C86.8987 10.4117 85.9467 9.76766 84.668 9.76766C83.7814 9.76766 83.0347 10.0803 82.428 10.7057C81.8214 11.331 81.518 12.1477 81.518 13.1557C81.518 14.145 81.8214 14.957 82.428 15.5917C83.0347 16.2263 83.7814 16.5437 84.668 16.5437C85.9467 16.5437 86.936 15.8903 87.636 14.5837ZM90.4517 18.0557V8.25566H92.2997V12.2037H96.5837V8.25566H98.4317V18.0557H96.5837V13.9117H92.2997V18.0557H90.4517ZM108.555 9.51566C109.517 10.4863 109.997 11.6997 109.997 13.1557C109.997 14.6117 109.517 15.825 108.555 16.7957C107.594 17.7663 106.395 18.2517 104.957 18.2517C103.52 18.2517 102.321 17.7663 101.359 16.7957C100.398 15.825 99.9174 14.6117 99.9174 13.1557C99.9174 11.6997 100.398 10.4863 101.359 9.51566C102.321 8.545 103.52 8.05966 104.957 8.05966C106.395 8.05966 107.594 8.545 108.555 9.51566ZM102.689 15.6337C103.287 16.2403 104.043 16.5437 104.957 16.5437C105.872 16.5437 106.628 16.2403 107.225 15.6337C107.823 15.0177 108.121 14.1917 108.121 13.1557C108.121 12.1197 107.823 11.2983 107.225 10.6917C106.628 10.0757 105.872 9.76766 104.957 9.76766C104.043 9.76766 103.287 10.0757 102.689 10.6917C102.092 11.2983 101.793 12.1197 101.793 13.1557C101.793 14.1917 102.092 15.0177 102.689 15.6337ZM111.479 18.0557V8.25566H113.327V18.0557H111.479ZM122.814 14.5837L124.256 15.6197C123.63 16.5623 122.991 17.239 122.338 17.6497C121.694 18.051 120.858 18.2517 119.832 18.2517C118.376 18.2517 117.176 17.7803 116.234 16.8377C115.291 15.895 114.82 14.6677 114.82 13.1557C114.82 11.6437 115.3 10.4163 116.262 9.47366C117.232 8.531 118.446 8.05966 119.902 8.05966C120.91 8.05966 121.792 8.293 122.548 8.75966C123.304 9.22633 123.854 9.847 124.2 10.6217L122.702 11.6997C122.076 10.4117 121.124 9.76766 119.846 9.76766C118.959 9.76766 118.212 10.0803 117.606 10.7057C116.999 11.331 116.696 12.1477 116.696 13.1557C116.696 14.145 116.999 14.957 117.606 15.5917C118.212 16.2263 118.959 16.5437 119.846 16.5437C121.124 16.5437 122.114 15.8903 122.814 14.5837ZM125.629 18.0557V8.25566H132.391V9.90766H127.477V12.1617H131.999V13.8137H127.477V16.4037H132.433V18.0557H125.629Z" fill="white"/>
</svg>
