<svg width="21" height="22" viewBox="0 0 21 22" fill="none" xmlns="http://www.w3.org/2000/svg">
<path fill-rule="evenodd" clip-rule="evenodd" d="M13.3439 17.0095L7.14213 13.4322C6.64872 13.9952 6.00821 14.382 5.3146 14.5677C2.14725 15.4152 -0.511432 11.9999 1.14232 9.13627C2.40906 6.94379 5.47492 6.64512 7.14203 8.541L13.3429 4.96467C13.0231 4.01869 13.0905 2.74756 13.6683 1.88313C14.7178 0.118167 17.0123 -0.454366 18.7525 0.590214C21.5754 2.26418 20.9662 6.51258 17.8169 7.35631C16.4676 7.71746 15.0054 7.28617 14.0687 6.22263L7.86888 9.79895C8.12602 10.5592 8.13552 11.3914 7.86793 12.1763L14.0707 15.7536C16.0121 13.5365 19.6747 14.3801 20.4416 17.2389C20.6845 18.1461 20.5839 19.1461 20.081 20.0276C19.1587 21.7527 16.8245 22.4561 15.0046 21.4058C13.4627 20.5167 12.7774 18.6702 13.3439 17.0095Z" fill="white"/>
</svg>
