<svg width="56" height="56" viewBox="0 0 56 56" fill="none" xmlns="http://www.w3.org/2000/svg">
<circle cx="28" cy="28" r="28" fill="#06498B"/>
<path d="M40.0471 34.2516C39.7579 35.3333 38.9059 36.1854 37.8242 36.4745C35.8636 37 28.0011 37 28.0011 37C28.0011 37 20.1387 37 18.1781 36.4745C17.0964 36.1854 16.2443 35.3333 15.9552 34.2516C15.4297 32.291 15.4297 28.2 15.4297 28.2C15.4297 28.2 15.4297 24.109 15.9552 22.1484C16.2443 21.0667 17.0964 20.2146 18.1781 19.9255C20.1387 19.4 28.0011 19.4 28.0011 19.4C28.0011 19.4 35.8636 19.4 37.8242 19.9255C38.9059 20.2146 39.7579 21.0667 40.0471 22.1484C40.5725 24.109 40.5725 28.2 40.5725 28.2C40.5725 28.2 40.5725 32.291 40.0471 34.2516ZM25.4868 24.4286V31.9714L32.0189 28.2L25.4868 24.4286Z" fill="white"/>
</svg>
