<svg width="33" height="37" viewBox="0 0 33 37" fill="none" xmlns="http://www.w3.org/2000/svg">
<path fill-rule="evenodd" clip-rule="evenodd" d="M16.4999 30.6117C17.2241 30.6117 17.932 30.4011 18.5341 30.0067C19.1362 29.6122 19.6054 29.0516 19.8825 28.3958C20.1596 27.74 20.232 27.0183 20.0906 26.3222C19.9493 25.626 19.6005 24.9865 19.0883 24.4846C18.5762 23.9828 17.9237 23.641 17.2134 23.5026C16.5031 23.3642 15.7669 23.4354 15.0978 23.7071C14.4288 23.9788 13.857 24.4389 13.4547 25.0291C13.0524 25.6194 12.8377 26.3133 12.8378 27.0232C12.8392 27.9747 13.2254 28.8868 13.9119 29.5595C14.5984 30.2323 15.5291 30.6107 16.4999 30.6117ZM16.4999 22.5211C17.4082 22.521 18.2962 22.7849 19.0515 23.2795C19.8069 23.7741 20.3956 24.4771 20.7433 25.2997C21.091 26.1222 21.182 27.0273 21.0049 27.9006C20.8277 28.7738 20.3904 29.576 19.7482 30.2056C19.1059 30.8352 18.2876 31.2641 17.3967 31.4378C16.5058 31.6116 15.5824 31.5225 14.7431 31.1819C13.9039 30.8413 13.1865 30.2643 12.6818 29.5241C12.1771 28.7838 11.9076 27.9135 11.9075 27.0232C11.9088 25.8296 12.393 24.6853 13.2539 23.8413C14.1148 22.9973 15.2822 22.5225 16.4999 22.5211ZM32.9856 12.1936C32.997 12.1787 33.0019 12.16 32.9993 12.1416C32.9967 12.1232 32.9868 12.1066 32.9717 12.0953L16.4999 0L0.0280304 12.0953C0.0132572 12.1068 0.00350836 12.1233 0.000779299 12.1416C-0.00194976 12.1598 0.00254748 12.1784 0.0133505 12.1936L1.12023 13.6411C1.1258 13.6486 1.13288 13.6549 1.14102 13.6596C1.14917 13.6644 1.15822 13.6674 1.16762 13.6686C1.17688 13.6702 1.18636 13.6698 1.19546 13.6675C1.20456 13.6652 1.21308 13.6611 1.22047 13.6555L16.2201 2.6418C16.3006 2.58221 16.3988 2.54997 16.4997 2.54997C16.6006 2.54997 16.6987 2.58221 16.7792 2.6418L31.7789 13.6555C31.7943 13.6663 31.8134 13.6708 31.8321 13.6681C31.8509 13.6655 31.8679 13.6558 31.8795 13.6411L32.9856 12.1936ZM29.0777 30.7721C29.0774 30.9306 29.013 31.0825 28.8986 31.1945C28.7842 31.3066 28.6292 31.3696 28.4675 31.3698H24.4292L24.2681 31.1573C24.5633 30.6246 24.8007 30.0632 24.9765 29.482L27.2121 29.1663C27.3231 29.1511 27.4247 29.0968 27.4979 29.0136C27.571 28.9304 27.6108 28.8239 27.6097 28.7141V25.3298C27.61 25.2201 27.57 25.1141 27.4969 25.031C27.4239 24.948 27.3228 24.8935 27.2121 24.8776L24.9757 24.5622C24.7999 23.9811 24.5628 23.4195 24.2681 22.8866L25.6208 21.1138C25.688 21.0263 25.7208 20.9179 25.7131 20.8085C25.7054 20.6992 25.6577 20.5962 25.5788 20.5186L23.1361 18.1242C23.0568 18.047 22.9518 18.0003 22.8402 17.9928C22.7287 17.9852 22.6181 18.0173 22.5288 18.0831L20.7202 19.4098C20.1769 19.1197 19.6038 18.8867 19.0106 18.7146L18.6868 16.5267C18.6712 16.4177 18.6158 16.318 18.531 16.246C18.4462 16.174 18.3376 16.1345 18.2254 16.1349H14.7722C14.66 16.1344 14.5514 16.1739 14.4665 16.2459C14.3817 16.318 14.3264 16.4177 14.3109 16.5267L13.9892 18.7158C13.396 18.8876 12.823 19.1207 12.28 19.411L10.4718 18.0844C10.3823 18.0184 10.2715 17.9863 10.1597 17.9939C10.048 18.0014 9.94274 18.0481 9.86324 18.1255L7.42048 20.5198C7.34095 20.5971 7.29284 20.7002 7.28512 20.8097C7.2774 20.9192 7.31061 21.0278 7.37854 21.1151L8.7312 22.8878C8.43609 23.4206 8.19866 23.9822 8.02278 24.5635L5.78806 24.8788C5.67703 24.8943 5.57547 24.9487 5.50203 25.0317C5.42859 25.1148 5.38822 25.2211 5.38834 25.331V28.7169C5.38787 28.827 5.42812 28.9334 5.50162 29.0166C5.57512 29.0997 5.67689 29.1539 5.78806 29.1692L8.02278 29.4849C8.19836 30.0662 8.4361 30.6278 8.73203 31.1602L8.57014 31.3727H4.53103C4.36949 31.3722 4.21474 31.309 4.10056 31.197C3.98637 31.085 3.92204 30.9333 3.9216 30.775V12.8127L16.4999 3.57667L29.0777 12.8127V30.7721ZM22.7615 34.9954L21.0326 33.7267C20.959 33.6727 20.8707 33.6413 20.7789 33.6365C20.6871 33.6317 20.5958 33.6536 20.5167 33.6996C19.8793 34.0687 19.1919 34.3478 18.475 34.5288C18.386 34.5512 18.3058 34.599 18.2445 34.6661C18.1832 34.7332 18.1436 34.8166 18.1306 34.9058L17.8232 37H15.1757L14.8687 34.9058C14.8555 34.8169 14.8158 34.7337 14.7546 34.6667C14.6934 34.5998 14.6135 34.5519 14.5248 34.5292C13.8074 34.3484 13.1197 34.0691 12.4822 33.6996C12.403 33.6537 12.3118 33.6318 12.22 33.6366C12.1282 33.6414 12.0399 33.6728 11.9663 33.7267L10.2382 34.9954L8.36503 33.1598L9.65939 31.466C9.71452 31.3939 9.74669 31.3075 9.75183 31.2175C9.75698 31.1275 9.73489 31.0381 9.68833 30.9604C9.31136 30.3359 9.0264 29.6622 8.84193 28.9595C8.81939 28.8719 8.77064 28.793 8.70194 28.7329C8.63325 28.6727 8.54775 28.6341 8.45647 28.622L6.32031 28.3202V25.7253L8.45647 25.4239C8.54749 25.4111 8.63263 25.3723 8.7012 25.3122C8.76978 25.2522 8.81873 25.1736 8.84193 25.0864C9.02624 24.3836 9.31121 23.71 9.68833 23.0855C9.7352 23.0079 9.75747 22.9183 9.75231 22.8282C9.74716 22.7381 9.71482 22.6515 9.65939 22.5795L8.36503 20.8844L10.2382 19.0497L11.9663 20.3183C12.0399 20.3724 12.1282 20.4038 12.22 20.4087C12.3118 20.4135 12.4031 20.3915 12.4822 20.3455C13.1198 19.976 13.8074 19.6965 14.5248 19.5154C14.6135 19.4929 14.6935 19.4452 14.7547 19.3783C14.8159 19.3113 14.8555 19.2282 14.8687 19.1393L15.1757 17.0451H17.8232L18.1306 19.1393C18.1436 19.2284 18.1832 19.3117 18.2445 19.3786C18.3058 19.4456 18.386 19.4932 18.475 19.5154C19.192 19.6966 19.8794 19.976 20.5167 20.3455C20.5958 20.3916 20.6871 20.4136 20.7789 20.4087C20.8708 20.4039 20.9591 20.3724 21.0326 20.3183L22.7615 19.0497L24.6334 20.8844L23.3399 22.579C23.2846 22.6512 23.2524 22.7378 23.2473 22.8278C23.2422 22.9179 23.2645 23.0075 23.3114 23.0851C23.688 23.7099 23.973 24.3834 24.1582 25.086C24.181 25.1732 24.2296 25.2518 24.2979 25.3118C24.3662 25.3719 24.4512 25.4108 24.542 25.4235L26.6811 25.7249V28.3198L24.542 28.6216C24.451 28.634 24.3659 28.6727 24.2975 28.7329C24.2292 28.793 24.1807 28.8718 24.1582 28.9591C23.9729 29.6616 23.6878 30.3351 23.3114 30.96C23.2646 31.0375 23.2423 31.127 23.2474 31.217C23.2524 31.307 23.2847 31.3936 23.3399 31.4656L24.6334 33.1594L22.7615 34.9954ZM26.8623 1.57702C26.8624 1.5583 26.87 1.54038 26.8836 1.52714C26.8971 1.5139 26.9153 1.50642 26.9344 1.50631H29.0047C29.0239 1.50652 29.0422 1.51401 29.0558 1.5272C29.0694 1.5404 29.0773 1.55826 29.0777 1.57702V8.09519L26.8623 6.46883V1.57702Z" fill="#06498B"/>
</svg>
