<svg width="16" height="14" viewBox="0 0 16 14" fill="none" xmlns="http://www.w3.org/2000/svg">
<path d="M0 11.9641C1.45007 12.8949 3.17877 13.4395 5.0341 13.4395C11.132 13.4395 14.5704 8.29139 14.3678 3.67522C15.0073 3.21297 15.5645 2.63674 16.0078 1.97819C15.4189 2.23781 14.7857 2.4151 14.1208 2.49742C14.7983 2.09216 15.3176 1.44628 15.5645 0.68008C14.9313 1.05368 14.2285 1.3323 13.4813 1.47794C12.8797 0.838391 12.0312 0.439453 11.0877 0.439453C8.9664 0.439453 7.40868 2.4151 7.88992 4.47306C5.16075 4.33375 2.74184 3.02933 1.1208 1.04102C0.259623 2.51642 0.677552 4.44773 2.13396 5.42289C1.59572 5.40389 1.08914 5.25826 0.645887 5.0113C0.607894 6.53103 1.70337 7.95577 3.28008 8.27238C2.81783 8.39902 2.31126 8.42437 1.79835 8.32938C2.21628 9.63382 3.42572 10.5836 4.86313 10.609C3.48271 11.6854 1.74769 12.173 0 11.9641Z" fill="white"/>
</svg>
