<svg width="133" height="25" viewBox="0 0 133 25" fill="none" xmlns="http://www.w3.org/2000/svg">
<g style="mix-blend-mode:luminosity">
<path d="M16.1935 0.333984H12.1875C11.9618 0.333984 11.7361 0.444126 11.5668 0.554267C11.3975 0.719479 11.3411 0.939761 11.3411 1.16004V9.25542C11.1718 9.09021 11.0026 8.86993 10.7769 8.64965C10.5512 8.42936 10.2691 8.20908 9.93052 8.04387C9.59198 7.87866 9.19702 7.71345 8.74563 7.6033C8.29424 7.49316 7.73001 7.43809 7.10935 7.43809C6.15015 7.43809 5.24738 7.6033 4.40103 7.87866C3.55467 8.09894 2.82117 8.5395 2.20051 9.14528C1.57986 9.75106 1.07204 10.467 0.677081 11.3481C0.282117 12.2292 0.0564234 13.2756 0.0564234 14.4871C-2.10194e-08 14.8176 0 15.203 0 15.7538C0 16.3045 -2.10194e-08 16.69 0.0564234 17.0204C0.112847 18.2319 0.33854 19.2783 0.677081 20.1594C1.07204 21.0405 1.57986 21.7564 2.20051 22.3622C2.82117 22.9129 3.55467 23.3535 4.40103 23.6288C5.24738 23.9042 6.15015 24.0694 7.10935 24.0694C7.78643 24.0694 8.40709 24.0143 8.85847 23.9042C9.30986 23.7941 9.76125 23.6288 10.0998 23.4636C10.4383 23.2984 10.7204 23.0781 10.9461 22.8579C11.1718 22.6376 11.454 22.2521 11.5668 21.9767V22.9129C11.5668 23.1332 11.6232 23.3535 11.7925 23.5187C11.9618 23.6839 12.1875 23.739 12.4131 23.739H16.2499C16.4756 23.739 16.7013 23.6839 16.8706 23.5187C17.0399 23.3535 17.0963 23.1332 17.0963 22.9129V1.16004C17.0963 0.939761 16.9834 0.719479 16.8706 0.554267C16.5885 0.444126 16.4192 0.333984 16.1935 0.333984ZM11.3411 16.8001C11.2847 17.1305 11.2283 17.8464 11.1154 18.1218C11.0026 18.3971 10.8333 18.6725 10.6076 18.8928C10.3819 19.1131 10.0998 19.3333 9.76125 19.4435C9.42271 19.6087 9.02775 19.6638 8.57636 19.6638C8.06855 19.6638 7.33504 19.6087 6.94008 19.4435C6.60154 19.2783 6.31942 19.1131 6.09373 18.8377C5.86803 18.6174 5.69876 18.287 5.58592 18.0116C5.47307 17.6812 5.41665 16.9102 5.36022 16.5247C5.3038 15.974 5.3038 14.9277 5.36022 14.3219C5.36022 13.9364 5.47307 13.606 5.58592 13.2756C5.69876 12.9452 5.86803 12.6698 6.09373 12.4495C6.31942 12.2292 6.60154 12.009 6.94008 11.8437C7.27862 11.6785 8.06855 11.6235 8.57636 11.6235C9.02775 11.6235 9.42271 11.6785 9.76125 11.8437C10.0998 12.009 10.3819 12.1742 10.6076 12.3944C10.8333 12.6147 11.0026 12.8901 11.1154 13.1654C11.2283 13.4408 11.3411 13.7712 11.3411 14.0466C11.3975 14.377 11.3975 15.148 11.3975 15.5885C11.3975 16.1392 11.3975 16.5247 11.3411 16.8001Z" fill="black"/>
<path d="M34.4748 7.71289H30.4687C30.243 7.71289 30.0173 7.76796 29.848 7.93317C29.6788 8.09838 29.6224 8.31867 29.6224 8.53895V16.359C29.6224 17.2401 29.4531 17.956 29.0581 18.5067C28.6632 19.0574 28.0425 19.3328 27.0833 19.3328C26.1241 19.3328 25.447 19.0574 25.0521 18.5067C24.6571 17.956 24.4878 17.2401 24.4878 16.359V8.53895C24.4878 8.31867 24.375 8.09838 24.2621 7.93317C24.0929 7.76796 23.8672 7.71289 23.6415 7.71289H19.6354C19.4097 7.71289 19.184 7.76796 19.0148 7.93317C18.8455 8.09838 18.7891 8.31867 18.7891 8.53895V17.0198C18.7891 19.4429 19.4097 21.2052 20.5946 22.3617C21.7795 23.5182 23.4158 24.0689 25.447 24.0689C26.7448 24.0689 27.704 23.8486 28.381 23.4631C29.0581 23.0776 29.6788 22.5269 29.9045 21.9211V22.9124C29.9045 23.1327 29.9609 23.3529 30.1302 23.5182C30.2994 23.6834 30.5251 23.7384 30.7508 23.7384H34.4183C34.644 23.7384 34.8697 23.6834 35.039 23.5182C35.2083 23.3529 35.2647 23.1327 35.2647 22.9124V8.53895C35.2647 8.31867 35.2083 8.09838 35.039 7.93317C34.9262 7.82303 34.7569 7.71289 34.4748 7.71289Z" fill="black"/>
<path d="M61.7276 9.09038C61.1633 8.53968 60.4862 8.09911 59.7527 7.82376C58.9628 7.54841 58.1729 7.3832 57.2701 7.3832C56.2545 7.3832 55.2953 7.60348 54.4489 7.98897C53.6026 8.37447 52.8127 8.98024 52.2484 9.75123C51.6842 8.92517 51.0071 8.3194 50.1043 7.9339C49.258 7.54841 48.2424 7.32812 47.1703 7.32812C46.2675 7.32812 45.534 7.49334 44.857 7.82376C44.1799 8.15418 43.6156 8.59475 43.1643 9.20053V8.48461C43.1643 8.26433 43.1078 8.04404 42.9386 7.87883C42.7693 7.71362 42.5436 7.65855 42.3179 7.65855H38.4811C38.2554 7.65855 38.0297 7.76869 37.8605 7.87883C37.6912 8.04404 37.6348 8.26433 37.6348 8.48461V22.9131C37.6348 23.1334 37.6912 23.3537 37.8605 23.5189C38.0297 23.6841 38.2554 23.7392 38.4811 23.7392H42.4872C42.7129 23.7392 42.9386 23.6841 43.1078 23.5189C43.2771 23.3537 43.3335 23.1334 43.3335 22.9131V14.9279C43.3335 13.9366 43.5028 13.2207 43.8978 12.8352C44.2927 12.3946 44.857 12.2294 45.5905 12.2294C46.324 12.2294 46.9446 12.4497 47.2832 12.8352C47.6781 13.2758 47.8474 13.9917 47.8474 15.038V22.9131C47.8474 23.1334 47.9038 23.3537 48.0731 23.5189C48.2424 23.6841 48.4681 23.7392 48.6938 23.7392H52.5305C52.7562 23.7392 52.9819 23.6841 53.1512 23.5189C53.3205 23.3537 53.3769 23.1334 53.3769 22.9131V15.038C53.3769 13.9917 53.5462 13.2758 53.9411 12.8352C54.3361 12.3946 54.9003 12.2294 55.6338 12.2294C56.3673 12.2294 56.988 12.4497 57.3265 12.8352C57.7215 13.2758 57.8908 13.9917 57.8908 15.038V22.9131C57.8908 23.1334 57.9472 23.3537 58.1165 23.5189C58.2857 23.6841 58.5114 23.7392 58.7371 23.7392H62.5739C62.7996 23.7392 63.0253 23.6841 63.1946 23.5189C63.3638 23.3537 63.4203 23.1334 63.4203 22.9131V14.4322C63.4203 13.2207 63.251 12.1743 62.9689 11.2932C62.7432 10.4121 62.2918 9.69616 61.7276 9.09038Z" fill="black"/>
<path d="M89.374 9.09038C88.8098 8.53968 88.1327 8.09911 87.3992 7.82376C86.6093 7.54841 85.8194 7.3832 84.9166 7.3832C83.901 7.3832 82.9418 7.60348 82.0954 7.98897C81.2491 8.37447 80.4591 8.98024 79.8949 9.75123C79.3307 8.92517 78.6536 8.3194 77.7508 7.9339C76.9045 7.54841 75.8888 7.32812 74.8168 7.32812C73.914 7.32812 73.1805 7.49334 72.5034 7.82376C71.8264 8.15418 71.2621 8.59475 70.8107 9.20053V8.48461C70.8107 8.26433 70.6979 8.04404 70.585 7.87883C70.4158 7.71362 70.1901 7.65855 69.9644 7.65855H66.1276C65.9019 7.65855 65.6762 7.76869 65.5069 7.87883C65.3377 8.04404 65.2812 8.26433 65.2812 8.48461V22.9131C65.2812 23.1334 65.3377 23.3537 65.5069 23.5189C65.6762 23.6841 65.9019 23.7392 66.1276 23.7392H70.1337C70.3594 23.7392 70.585 23.6841 70.7543 23.5189C70.9236 23.3537 70.98 23.1334 70.98 22.9131V14.9279C70.98 13.9366 71.1493 13.2207 71.5442 12.8352C71.9392 12.3946 72.5034 12.2294 73.2369 12.2294C73.9704 12.2294 74.5911 12.4497 74.9861 12.8352C75.381 13.2758 75.5503 13.9917 75.5503 15.038V22.9131C75.5503 23.1334 75.6067 23.3537 75.776 23.5189C75.9453 23.6841 76.171 23.7392 76.3967 23.7392H80.2335C80.4591 23.7392 80.6848 23.6841 80.8541 23.5189C81.0234 23.3537 81.0798 23.1334 81.0798 22.9131V15.038C81.0798 13.9917 81.2491 13.2758 81.644 12.8352C82.039 12.3946 82.6032 12.2294 83.3367 12.2294C84.0702 12.2294 84.6909 12.4497 85.0859 12.8352C85.4808 13.2758 85.6501 13.9917 85.6501 15.038V22.9131C85.6501 23.1334 85.7065 23.3537 85.8758 23.5189C86.0451 23.6841 86.2708 23.7392 86.4964 23.7392H90.3332C90.5589 23.7392 90.7846 23.6841 90.9539 23.5189C91.1232 23.3537 91.1796 23.1334 91.1796 22.9131V14.4322C91.1796 13.2207 91.0103 12.1743 90.7282 11.2932C90.3897 10.4121 89.9383 9.69616 89.374 9.09038Z" fill="black"/>
<path d="M98.4028 23.5182C98.572 23.3529 98.6284 23.1327 98.6284 22.9124V8.53895C98.6284 8.31867 98.572 8.09838 98.4028 7.93317C98.2335 7.76796 98.0078 7.71289 97.7821 7.71289H93.776C93.5503 7.71289 93.3246 7.82303 93.1554 7.93317C92.9861 8.09838 92.9297 8.31867 92.9297 8.53895V22.9124C92.9297 23.1327 92.9861 23.3529 93.1554 23.5182C93.3246 23.6834 93.5503 23.7384 93.776 23.7384H97.7821C98.0078 23.7384 98.2335 23.6834 98.4028 23.5182Z" fill="black"/>
<path d="M128.307 23.6286C129.322 23.3533 130.112 23.0229 130.846 22.5272C131.523 22.0867 132.087 21.536 132.426 20.9302C132.764 20.3244 132.99 19.6636 132.99 18.9476C132.99 17.7361 132.539 16.6347 131.692 15.6434C130.846 14.7072 129.435 14.0464 127.517 13.771C126.614 13.6058 125.824 13.4956 125.26 13.4406C124.696 13.3855 124.244 13.2754 123.906 13.2203C123.567 13.1652 123.398 13.0551 123.285 12.9449C123.172 12.8348 123.116 12.6696 123.116 12.3942C123.116 12.0638 123.285 11.403 123.624 11.2928C123.962 11.1827 124.357 11.0725 124.865 11.0725C125.429 11.0725 125.824 11.1276 126.163 11.2378C126.445 11.3479 126.727 11.458 126.896 11.5682C127.066 11.6783 127.235 11.7885 127.404 11.8986C127.686 12.174 127.855 12.5044 128.081 12.5044H131.749C131.974 12.5044 132.2 12.4493 132.369 12.2841C132.539 12.1189 132.651 11.8986 132.595 11.6783C132.539 11.1827 132.313 10.632 131.974 10.1363C131.636 9.64071 131.072 9.14507 130.395 8.75958C129.717 8.37408 128.927 8.04366 127.968 7.76831C127.066 7.49295 126.05 7.38281 124.921 7.38281C123.793 7.38281 122.777 7.49295 121.875 7.76831C120.972 8.04366 120.182 8.37408 119.561 8.81465C118.941 9.25521 118.433 9.80592 118.038 10.4117C117.699 11.0175 117.474 11.6783 117.474 12.3392C117.474 13.771 117.925 14.8724 118.771 15.7535C119.618 16.5796 120.859 17.1854 122.439 17.4607C123.342 17.6259 124.132 17.7361 124.752 17.8462C125.373 17.9564 125.881 18.0114 126.276 18.0665C126.671 18.1216 126.896 18.2317 127.066 18.3969C127.235 18.5071 127.291 18.6723 127.291 18.9476C127.291 19.2781 127.066 19.9389 126.614 20.1041C126.163 20.2693 125.599 20.3244 124.978 20.3244C124.357 20.3244 123.849 20.2693 123.567 20.1592C123.229 20.0491 123.003 19.9389 122.834 19.7737C122.665 19.6636 122.552 19.4983 122.439 19.3882C122.326 19.2781 122.1 18.7824 121.762 18.7824H118.038C117.812 18.7824 117.586 18.8926 117.417 19.0027C117.248 19.1679 117.135 19.3882 117.191 19.6085C117.248 20.1041 117.417 20.5998 117.756 21.0954C118.094 21.591 118.602 22.0867 119.279 22.5272C119.956 22.9678 120.746 23.2982 121.705 23.5736C122.665 23.8489 123.793 24.0141 125.034 24.0141C126.163 24.0692 127.291 23.904 128.307 23.6286Z" fill="black"/>
<path d="M114.765 10.1363C114.088 9.31028 113.185 8.70451 112.113 8.1538C111.041 7.65817 109.743 7.38281 108.163 7.38281C106.809 7.38281 105.568 7.6031 104.496 7.98859C103.424 8.42915 102.521 8.97986 101.787 9.75085C101.054 10.4668 100.49 11.3479 100.151 12.3942C99.7562 13.3855 99.5869 14.542 99.5869 15.6985C99.5869 18.2868 100.32 20.3244 101.787 21.8113C103.254 23.2982 105.342 24.0141 108.107 24.0141C109.574 24.0141 110.815 23.7939 111.887 23.4084C112.959 23.0229 113.806 22.5823 114.483 22.0316C115.16 21.4809 115.611 20.9853 115.95 20.4896C116.119 20.2143 116.232 19.994 116.288 19.8288C116.288 19.8288 111.887 18.7824 111.605 18.7274C111.323 18.6723 111.154 18.7274 111.041 18.7824C110.928 18.8375 110.759 18.9476 110.533 19.1679C110.251 19.3882 109.969 19.5534 109.574 19.7186C109.235 19.8288 108.728 19.8838 108.107 19.8838C107.768 19.8838 107.486 19.8288 107.148 19.7737C106.809 19.7186 106.527 19.5534 106.245 19.3882C105.963 19.223 105.737 18.9476 105.568 18.6723C105.399 18.3419 105.286 17.9564 105.286 17.5158H115.78C116.006 17.5158 116.232 17.4607 116.401 17.2955C116.57 17.1303 116.627 16.91 116.627 16.6897V15.8086C116.627 14.8173 116.458 13.8261 116.175 12.8348C115.893 11.8435 115.442 10.9073 114.765 10.1363ZM105.173 14.0464C105.229 13.3855 105.511 12.3942 105.963 11.8986C106.414 11.403 107.26 11.0175 108.163 11.0175C109.066 11.0175 109.912 11.458 110.42 11.9537C110.872 12.4493 111.097 13.4406 111.154 14.1014H105.173V14.0464Z" fill="black"/>
<path d="M129.999 6.72245C130.168 6.88766 130.338 6.99781 130.563 7.10795C130.789 7.21809 131.015 7.21809 131.24 7.21809C131.466 7.21809 131.692 7.16302 131.917 7.10795C132.143 6.99781 132.312 6.88766 132.482 6.72245C132.651 6.55724 132.764 6.39203 132.877 6.17175C132.989 5.95146 132.989 5.73118 132.989 5.5109C132.989 5.29062 132.933 5.07034 132.877 4.85005C132.764 4.62977 132.651 4.46456 132.482 4.29935C132.312 4.13413 132.143 4.02399 131.917 3.91385C131.692 3.80371 131.466 3.80371 131.24 3.80371C131.015 3.80371 130.789 3.85878 130.563 3.91385C130.338 4.02399 130.168 4.13413 129.999 4.29935C129.83 4.46456 129.717 4.62977 129.604 4.85005C129.491 5.07034 129.491 5.29062 129.491 5.5109C129.491 5.73118 129.548 5.95146 129.604 6.17175C129.717 6.39203 129.83 6.55724 129.999 6.72245ZM129.886 4.96019C129.943 4.79498 130.055 4.62977 130.225 4.51963C130.338 4.40949 130.507 4.29935 130.676 4.18921C130.845 4.13413 131.071 4.07906 131.24 4.07906C131.466 4.07906 131.635 4.13413 131.805 4.18921C131.974 4.24428 132.143 4.35442 132.256 4.51963C132.369 4.62977 132.482 4.79498 132.594 4.96019C132.651 5.12541 132.707 5.34569 132.707 5.5109C132.707 5.67611 132.651 5.89639 132.594 6.06161C132.538 6.22682 132.425 6.39203 132.256 6.50217C132.143 6.61231 131.974 6.72245 131.805 6.83259C131.635 6.88766 131.41 6.94274 131.24 6.94274C131.015 6.94274 130.845 6.88766 130.676 6.83259C130.507 6.77752 130.338 6.66738 130.225 6.50217C130.112 6.39203 129.999 6.22682 129.886 6.06161C129.773 5.89639 129.773 5.67611 129.773 5.5109C129.773 5.34569 129.83 5.12541 129.886 4.96019Z" fill="black"/>
<path d="M130.564 6.39155H130.62C130.677 6.39155 130.733 6.33648 130.733 6.28141V5.7307H131.184L131.523 6.28141C131.523 6.33648 131.579 6.33648 131.579 6.33648C131.579 6.33648 131.636 6.33648 131.692 6.33648H131.749C131.805 6.33648 131.805 6.33648 131.805 6.28141V6.22634V6.17127L131.467 5.67563C131.579 5.62056 131.636 5.56549 131.692 5.51042C131.749 5.45535 131.805 5.34521 131.805 5.18C131.805 5.06985 131.805 5.01478 131.749 4.90464C131.692 4.84957 131.692 4.7945 131.636 4.73943C131.579 4.68436 131.523 4.68436 131.41 4.62929C131.354 4.62929 131.241 4.57422 131.128 4.57422H130.507C130.451 4.57422 130.395 4.62929 130.395 4.68436V6.22634C130.451 6.33648 130.507 6.39155 130.564 6.39155ZM130.733 4.90464H131.184H131.354L131.467 4.95971C131.467 4.95971 131.523 5.01478 131.523 5.06985V5.18V5.29014C131.523 5.34521 131.467 5.34521 131.467 5.40028C131.467 5.40028 131.41 5.45535 131.354 5.45535H131.184H130.733V4.90464Z" fill="black"/>
<path d="M95.5807 5.40017C97.1606 5.40017 98.4583 4.07848 98.4583 2.48143C98.4583 0.884385 97.1606 1.21481 95.5807 1.21481C94.0009 1.21481 92.7031 0.829314 92.7031 2.48143C92.7031 4.13355 94.0009 5.40017 95.5807 5.40017Z" fill="black"/>
<path d="M24.7134 2.48174H23.6978V6.28161H23.3028V2.48174H22.5693V2.26146L23.3593 2.09624V1.82089C23.3593 1.32526 23.4721 0.939761 23.6414 0.719479C23.8107 0.499196 24.1492 0.333984 24.5442 0.333984C24.7698 0.333984 24.9955 0.389055 25.2212 0.444126L25.1084 0.774549C24.8827 0.719479 24.7134 0.664408 24.4877 0.664408C24.2056 0.664408 23.9799 0.774549 23.8671 0.939761C23.7542 1.10497 23.6978 1.38033 23.6978 1.76582V2.15131H24.7134V2.48174Z" fill="black"/>
<path d="M25.8979 2.15097V4.84943C25.8979 5.28999 26.0107 5.56535 26.18 5.78563C26.3493 5.95084 26.6314 6.06098 27.0264 6.06098C27.5342 6.06098 27.9291 5.95084 28.1548 5.67549C28.3805 5.40013 28.4934 5.01464 28.4934 4.46393V2.15097H28.8883V6.28126H28.5498L28.4934 5.73056C28.1548 6.17112 27.647 6.3914 26.9699 6.3914C26.0107 6.3914 25.5029 5.89577 25.5029 4.84943V2.15097H25.8979ZM26.18 0.994486C26.18 0.884345 26.18 0.774204 26.2364 0.719133C26.2929 0.664063 26.3493 0.664062 26.4057 0.664062C26.575 0.664062 26.6314 0.774204 26.6314 0.994486C26.6314 1.21477 26.575 1.32491 26.4057 1.32491C26.2929 1.32491 26.18 1.21477 26.18 0.994486ZM27.7034 0.994486C27.7034 0.884345 27.7034 0.774204 27.7599 0.719133C27.8163 0.664063 27.8727 0.664062 27.9291 0.664062C28.0984 0.664062 28.1548 0.774204 28.1548 0.994486C28.1548 1.21477 28.0984 1.32491 27.9291 1.32491C27.7599 1.32491 27.7034 1.21477 27.7034 0.994486Z" fill="black"/>
<path d="M31.9359 2.0957C32.1051 2.0957 32.3308 2.0957 32.5001 2.15077L32.4437 2.53627C32.2744 2.4812 32.1051 2.4812 31.8794 2.4812C31.5409 2.4812 31.2024 2.64641 30.9767 2.92176C30.751 3.19712 30.6381 3.58261 30.6381 4.07824V6.39121H30.2432V2.15077H30.5817L30.6381 2.92176C30.8074 2.59134 30.9767 2.42613 31.2024 2.26092C31.4281 2.0957 31.6537 2.0957 31.9359 2.0957Z" fill="black"/>
</g>
</svg>
