<svg width="177" height="36" viewBox="0 0 177 36" fill="none" xmlns="http://www.w3.org/2000/svg">
<g style="mix-blend-mode:luminosity">
<path d="M26.5378 16.0758C26.0435 16.5731 25.665 17.1732 25.4292 17.8335C25.1935 18.4937 25.1062 19.1979 25.1736 19.8957L25.1501 19.8723C25.2195 20.6937 25.1087 21.5204 24.8256 22.2946C24.5425 23.0688 24.0938 23.7719 23.5109 24.3548C22.928 24.9377 22.2249 25.3864 21.4507 25.6695C20.6765 25.9526 19.8498 26.0634 19.0284 25.994L19.0518 26.0175C18.0692 25.9261 17.0824 26.1399 16.2257 26.6299C15.3691 27.1198 14.6845 27.862 14.2651 28.7554C13.8458 29.6487 13.7122 30.6496 13.8826 31.6216C14.0529 32.5936 14.5189 33.4895 15.217 34.187C15.9151 34.8844 16.8114 35.3496 17.7836 35.5191C18.7557 35.6886 19.7565 35.5541 20.6495 35.1339C21.5424 34.7138 22.284 34.0285 22.7732 33.1714C23.2624 32.3143 23.4753 31.3273 23.383 30.3448L23.4078 30.3682C23.3384 29.5468 23.4492 28.7201 23.7323 27.9459C24.0154 27.1717 24.4641 26.4686 25.047 25.8857C25.6299 25.3028 26.333 24.8541 27.1072 24.571C27.8814 24.2879 28.7081 24.1771 29.5296 24.2465L29.5048 24.223C30.3074 24.2952 31.1153 24.1636 31.8536 23.8404C32.5918 23.5172 33.2365 23.0129 33.728 22.3742C34.2194 21.7355 34.5417 20.9831 34.6649 20.1866C34.7881 19.3902 34.7083 18.5756 34.4329 17.8182C34.1574 17.0609 33.6953 16.3853 33.0892 15.8541C32.4831 15.323 31.7528 14.9534 30.9659 14.7796C30.1789 14.6058 29.3609 14.6335 28.5875 14.8601C27.8141 15.0867 27.1104 15.5049 26.5417 16.0758H26.5378Z" fill="#394149"/>
<path d="M16.9173 22.9425L16.8925 22.919C17.5907 22.9894 18.2957 22.9037 18.9567 22.6682C19.6177 22.4326 20.2181 22.0532 20.7144 21.5572C21.2108 21.0612 21.5907 20.4611 21.8268 19.8003C22.0628 19.1395 22.149 18.4345 22.0792 17.7362L22.104 17.7597C22.0346 16.9383 22.1454 16.1116 22.4285 15.3374C22.7116 14.5632 23.1603 13.8601 23.7432 13.2772C24.3261 12.6943 25.0292 12.2456 25.8034 11.9625C26.5776 11.6794 27.4043 11.5686 28.2257 11.6379L28.201 11.6145C29.1836 11.7068 30.1709 11.4937 31.028 11.0042C31.8851 10.5148 32.5703 9.77295 32.9903 8.87976C33.4103 7.98657 33.5445 6.98558 33.3746 6.01331C33.2048 5.04104 32.7392 4.14484 32.0413 3.44693C31.3434 2.74902 30.4472 2.28339 29.4749 2.11355C28.5026 1.94371 27.5016 2.07792 26.6084 2.49789C25.7153 2.91786 24.9734 3.60313 24.4839 4.46024C23.9945 5.31734 23.7814 6.30456 23.8737 7.28723L23.8503 7.26245C23.9198 8.08393 23.8092 8.9107 23.5262 9.68502C23.2431 10.4593 22.7945 11.1625 22.2115 11.7455C21.6285 12.3284 20.9254 12.7771 20.151 13.0602C19.3767 13.3432 18.55 13.4538 17.7285 13.3842L17.7519 13.409C17.0538 13.3387 16.3487 13.4243 15.6877 13.6599C15.0267 13.8954 14.4264 14.2749 13.93 14.7709C13.4336 15.2669 13.0537 15.8669 12.8177 16.5278C12.5817 17.1886 12.4954 17.8936 12.5653 18.5918L12.5418 18.5683C12.6109 19.3897 12.5 20.2163 12.2168 20.9904C11.9336 21.7645 11.4849 22.4675 10.902 23.0503C10.3192 23.6332 9.61617 24.0819 8.84206 24.3651C8.06796 24.6483 7.24139 24.7592 6.42 24.6901L6.44348 24.7136C5.46081 24.6213 4.4736 24.8344 3.61649 25.3238C2.75938 25.8132 2.07411 26.5551 1.65414 27.4483C1.23417 28.3415 1.09996 29.3425 1.2698 30.3147C1.43964 31.287 1.90527 32.1832 2.60318 32.8811C3.30109 33.579 4.1973 34.0446 5.16957 34.2145C6.14184 34.3843 7.14283 34.2501 8.03601 33.8301C8.9292 33.4102 9.67109 32.7249 10.1605 31.8678C10.6499 31.0107 10.863 30.0235 10.7707 29.0408L10.7955 29.0643C10.7262 28.2429 10.8369 27.4162 11.12 26.642C11.4032 25.8678 11.8518 25.1647 12.4348 24.5818C13.0177 23.9989 13.7208 23.5502 14.495 23.267C15.2692 22.9839 16.0958 22.8732 16.9173 22.9425Z" fill="#394149"/>
<path d="M8.17702 20.3252C8.67133 19.828 9.04978 19.2278 9.28537 18.5675C9.52095 17.9072 9.60786 17.203 9.53988 16.5052L9.56466 16.5287C9.49526 15.707 9.60608 14.8801 9.88935 14.1057C10.1726 13.3313 10.6215 12.6281 11.2047 12.0451C11.788 11.4622 12.4914 11.0135 13.2659 10.7306C14.0404 10.4476 14.8674 10.3372 15.689 10.4069L15.6643 10.3835C16.6466 10.4755 17.6334 10.2623 18.4901 9.77289C19.3468 9.28352 20.0317 8.5418 20.4515 7.6489C20.8712 6.75599 21.0053 5.75536 20.8354 4.78346C20.6656 3.81155 20.2001 2.91569 19.5024 2.21803C18.8048 1.52038 17.9089 1.05489 16.937 0.88506C15.9651 0.715226 14.9645 0.849309 14.0716 1.26902C13.1787 1.68874 12.437 2.37365 11.9476 3.23036C11.4582 4.08707 11.245 5.07388 11.337 6.05621L11.3136 6.03273C11.3829 6.85417 11.2721 7.68084 10.989 8.45505C10.7059 9.22926 10.2572 9.93235 9.6743 10.5153C9.09139 11.0982 8.38829 11.5468 7.61408 11.83C6.83987 12.1131 6.01321 12.2239 5.19177 12.1545L5.21525 12.178C4.41262 12.106 3.60481 12.2378 2.86668 12.5611C2.12854 12.8845 1.48396 13.3889 0.992664 14.0276C0.501369 14.6664 0.179256 15.4188 0.056174 16.2152C-0.0669077 17.0116 0.0130238 17.8262 0.288562 18.5835C0.5641 19.3407 1.02633 20.0162 1.63242 20.5473C2.23851 21.0784 2.96884 21.4479 3.75575 21.6216C4.54266 21.7952 5.36067 21.7675 6.134 21.5409C6.90732 21.3142 7.61093 20.8961 8.17963 20.3252H8.17702Z" fill="#394149"/>
<path d="M48.5762 7.31738H52.4496V26.1666H48.5762V7.31738Z" fill="#394149"/>
<path d="M54.6428 19.7122C54.6373 18.3576 55.0341 17.0319 55.7827 15.903C56.5313 14.7741 57.5981 13.8927 58.848 13.3706C60.0979 12.8485 61.4747 12.709 62.8039 12.97C64.1331 13.2309 65.355 13.8805 66.3147 14.8364C67.2745 15.7923 67.9289 17.0115 68.1952 18.3397C68.4614 19.6678 68.3275 21.0451 67.8104 22.2971C67.2933 23.5491 66.4162 24.6195 65.2903 25.3726C64.1644 26.1257 62.8403 26.5278 61.4858 26.5278C60.5866 26.538 59.6944 26.3689 58.8613 26.0304C58.0283 25.6919 57.271 25.1906 56.6339 24.5561C55.9968 23.9215 55.4925 23.1663 55.1507 22.3346C54.8088 21.5029 54.6361 20.6114 54.6428 19.7122ZM64.4553 19.7122C64.4392 19.1283 64.2513 18.5621 63.9151 18.0845C63.5789 17.6068 63.1094 17.2389 62.5653 17.0266C62.0211 16.8143 61.4265 16.7671 60.8556 16.891C60.2848 17.0148 59.7632 17.3042 59.3559 17.7229C58.9487 18.1416 58.6739 18.6711 58.5659 19.2451C58.4579 19.8191 58.5215 20.4123 58.7488 20.9503C58.9761 21.4884 59.3569 21.9475 59.8437 22.2703C60.3305 22.5931 60.9017 22.7653 61.4858 22.7652C61.8858 22.7759 62.2837 22.7036 62.6543 22.5528C63.025 22.4021 63.3604 22.1762 63.6394 21.8893C63.9184 21.6025 64.135 21.2609 64.2754 20.8862C64.4158 20.5115 64.4771 20.1117 64.4553 19.7122Z" fill="#394149"/>
<path d="M83.7663 13.2568V25.516C83.7663 29.8537 80.3833 31.6874 76.9494 31.6874C75.7403 31.7779 74.5297 31.5336 73.4503 30.9815C72.3709 30.4294 71.4644 29.5907 70.8302 28.5574L74.135 26.6468C74.4015 27.1854 74.8263 27.6298 75.3523 27.9204C75.8783 28.211 76.4806 28.3341 77.0785 28.2731C77.4606 28.326 77.8497 28.2924 78.2171 28.1746C78.5845 28.0568 78.9206 27.858 79.2008 27.5928C79.4809 27.3276 79.6978 27.0027 79.8354 26.6424C79.9731 26.282 80.0279 25.8953 79.9959 25.5108V24.3305C79.5424 24.8855 78.965 25.3264 78.3102 25.6179C77.6555 25.9094 76.9415 26.0434 76.2256 26.009C74.5221 25.9553 72.9063 25.2408 71.7203 24.0168C70.5343 22.7928 69.8711 21.1553 69.8711 19.451C69.8711 17.7466 70.5343 16.1092 71.7203 14.8852C72.9063 13.6612 74.5221 12.9467 76.2256 12.893C76.9415 12.8586 77.6555 12.9926 78.3102 13.284C78.965 13.5755 79.5424 14.0165 79.9959 14.5714V13.2542L83.7663 13.2568ZM79.9972 19.4529C80.0233 18.8287 79.8619 18.211 79.5339 17.6792C79.2058 17.1475 78.7262 16.7261 78.1567 16.4692C77.5871 16.2124 76.9537 16.1319 76.3381 16.238C75.7224 16.3442 75.1525 16.6322 74.7019 17.065C74.2513 17.4977 73.9405 18.0554 73.8095 18.6663C73.6785 19.2772 73.7333 19.9133 73.9669 20.4928C74.2005 21.0723 74.6022 21.5686 75.1202 21.9178C75.6383 22.2671 76.249 22.4533 76.8737 22.4525C77.2807 22.4809 77.6891 22.4238 78.0727 22.2848C78.4562 22.1457 78.8064 21.9279 79.1006 21.6454C79.3949 21.3628 79.6267 21.0217 79.7811 20.6441C79.9355 20.2665 80.0091 19.8607 79.9972 19.4529Z" fill="#394149"/>
<path d="M85.9601 19.7122C85.9547 18.3576 86.3514 17.0319 87.1001 15.903C87.8487 14.7741 88.9155 13.8927 90.1654 13.3706C91.4153 12.8485 92.7921 12.709 94.1213 12.97C95.4505 13.2309 96.6723 13.8805 97.6321 14.8364C98.5918 15.7923 99.2463 17.0115 99.5126 18.3397C99.7788 19.6678 99.6449 21.0451 99.1278 22.2971C98.6107 23.5491 97.7336 24.6195 96.6077 25.3726C95.4818 26.1257 94.1577 26.5278 92.8031 26.5278C91.904 26.538 91.0118 26.3689 90.1787 26.0304C89.3456 25.6919 88.5884 25.1906 87.9513 24.5561C87.3142 23.9215 86.8099 23.1663 86.468 22.3346C86.1262 21.5029 85.9535 20.6114 85.9601 19.7122ZM95.7727 19.7122C95.7566 19.1283 95.5687 18.5621 95.2325 18.0845C94.8963 17.6068 94.4268 17.2389 93.8827 17.0266C93.3385 16.8143 92.7438 16.7671 92.173 16.891C91.6022 17.0148 91.0806 17.3042 90.6733 17.7229C90.2661 18.1416 89.9913 18.6711 89.8833 19.2451C89.7753 19.8191 89.8389 20.4123 90.0662 20.9503C90.2935 21.4884 90.6743 21.9475 91.1611 22.2703C91.6479 22.5931 92.219 22.7653 92.8031 22.7652C93.2031 22.7759 93.601 22.7036 93.9717 22.5528C94.3424 22.4021 94.6778 22.1762 94.9568 21.8893C95.2358 21.6025 95.4524 21.2609 95.5928 20.8862C95.7332 20.5115 95.7945 20.1117 95.7727 19.7122Z" fill="#394149"/>
<path d="M101.452 9.79669C101.452 9.33704 101.588 8.88772 101.844 8.50553C102.099 8.12335 102.462 7.82546 102.887 7.64956C103.311 7.47366 103.779 7.42764 104.23 7.51731C104.68 7.60699 105.094 7.82833 105.42 8.15335C105.745 8.47838 105.966 8.89248 106.056 9.34329C106.145 9.79411 106.099 10.2614 105.923 10.6861C105.747 11.1107 105.45 11.4737 105.067 11.7291C104.685 11.9844 104.236 12.1207 103.776 12.1207C103.162 12.1146 102.574 11.8678 102.14 11.4333C101.705 10.9988 101.458 10.4112 101.452 9.79669ZM101.843 13.2567H105.718V26.168H101.838L101.843 13.2567Z" fill="#394149"/>
<path d="M122.443 19.7128C122.488 20.5661 122.364 21.4198 122.078 22.2249C121.791 23.0299 121.349 23.7704 120.775 24.4038C120.202 25.0372 119.508 25.551 118.736 25.9156C117.963 26.2802 117.126 26.4885 116.272 26.5284C115.554 26.5675 114.837 26.4465 114.172 26.174C113.506 25.9015 112.91 25.4844 112.426 24.9529V31.3316H108.553V13.2571H112.426V14.47C112.91 13.9389 113.507 13.5222 114.172 13.2499C114.837 12.9777 115.554 12.8567 116.272 12.8959C117.126 12.9356 117.963 13.1438 118.736 13.5084C119.509 13.873 120.202 14.3869 120.776 15.0205C121.349 15.6541 121.792 16.3948 122.078 17.2001C122.364 18.0054 122.489 18.8593 122.443 19.7128ZM118.57 19.7128C118.555 19.1085 118.362 18.5221 118.015 18.0271C117.668 17.532 117.183 17.1501 116.621 16.9294C116.058 16.7086 115.443 16.6587 114.852 16.7859C114.261 16.9131 113.721 17.2118 113.299 17.6445C112.877 18.0773 112.592 18.6249 112.479 19.2188C112.367 19.8127 112.432 20.4266 112.667 20.9835C112.902 21.5405 113.296 22.0158 113.8 22.35C114.303 22.6842 114.894 22.8624 115.499 22.8623C115.914 22.8808 116.328 22.8114 116.714 22.6585C117.1 22.5057 117.45 22.273 117.74 21.9756C118.03 21.6782 118.254 21.3229 118.397 20.9329C118.54 20.5429 118.599 20.1271 118.57 19.7128Z" fill="#394149"/>
<path d="M134.396 22.2933C134.396 25.2629 131.815 26.5279 129.026 26.5279C127.9 26.63 126.769 26.3917 125.779 25.8439C124.789 25.2962 123.986 24.4641 123.475 23.4553L126.83 21.5447C126.966 22.011 127.258 22.4166 127.656 22.6938C128.055 22.9711 128.537 23.1031 129.021 23.0679C129.95 23.0679 130.415 22.7836 130.415 22.2685C130.415 20.8469 124.063 21.5968 124.063 17.1301C124.063 14.3143 126.439 12.8954 129.124 12.8954C130.134 12.8635 131.133 13.1029 132.019 13.5887C132.904 14.0746 133.643 14.789 134.158 15.6576L130.854 17.4391C130.709 17.1009 130.467 16.8129 130.16 16.6109C129.852 16.4089 129.492 16.3019 129.124 16.3032C128.453 16.3032 128.039 16.564 128.039 17.0257C128.044 18.4981 134.396 17.5161 134.396 22.2933Z" fill="#394149"/>
<path d="M148.544 13.2568V26.1681H144.671V24.954C144.224 25.4897 143.656 25.9119 143.015 26.1857C142.373 26.4596 141.676 26.5774 140.98 26.5294C138.371 26.5294 136.154 24.6709 136.154 21.1823V13.2568H140.028V20.615C139.995 20.9225 140.03 21.2333 140.13 21.526C140.23 21.8186 140.393 22.0859 140.606 22.3093C140.82 22.5327 141.08 22.7069 141.368 22.8197C141.656 22.9325 141.965 22.9812 142.273 22.9625C143.694 22.9625 144.674 22.1369 144.674 20.3033V13.2608L148.544 13.2568Z" fill="#394149"/>
<path d="M170.754 18.2395V26.1662H166.881V18.5747C166.881 17.2835 166.261 16.458 165.022 16.458C163.731 16.458 163.008 17.3618 163.008 18.8851V26.1662H159.135V18.5747C159.135 17.2835 158.516 16.458 157.276 16.458C155.985 16.458 155.262 17.3618 155.262 18.8851V26.1662H151.389V13.2549H155.262V14.4417C155.664 13.9152 156.191 13.4977 156.795 13.2273C157.399 12.9569 158.062 12.8422 158.722 12.8937C159.385 12.8613 160.045 13.0011 160.637 13.2996C161.23 13.5981 161.735 14.0451 162.104 14.5969C162.533 14.0196 163.102 13.5606 163.756 13.2627C164.411 12.9648 165.131 12.8379 165.848 12.8937C168.812 12.895 170.754 15.0117 170.754 18.2395Z" fill="#394149"/>
<path d="M174.031 13.1775C175.618 13.1775 176.905 11.8906 176.905 10.3031C176.905 8.71562 175.618 7.42871 174.031 7.42871C172.443 7.42871 171.156 8.71562 171.156 10.3031C171.156 11.8906 172.443 13.1775 174.031 13.1775Z" fill="#394149"/>
</g>
</svg>
