<svg width="140" height="37" viewBox="0 0 140 37" fill="none" xmlns="http://www.w3.org/2000/svg">
<g style="mix-blend-mode:luminosity">
<path d="M22.665 8.52718H24.8642V24.1943H31.4617V26.4453H22.665V8.52718ZM38.3121 8.52718C39.617 8.52718 40.8925 8.92324 41.9775 9.66528C43.0625 10.4073 43.9081 11.462 44.4074 12.696C44.9068 13.9299 45.0374 15.2877 44.7829 16.5977C44.5283 17.9077 43.8999 19.111 42.9773 20.0554C42.0546 20.9998 40.879 21.643 39.5992 21.9036C38.3194 22.1641 36.9929 22.0304 35.7874 21.5193C34.5818 21.0081 33.5514 20.1426 32.8265 19.0321C32.1016 17.9215 31.7146 16.6159 31.7146 15.2802C31.7146 14.3934 31.8853 13.5153 32.2168 12.696C32.5484 11.8766 33.0343 11.1322 33.647 10.5051C34.2596 9.87802 34.9869 9.3806 35.7874 9.04122C36.5878 8.70185 37.4457 8.52718 38.3121 8.52718ZM38.3121 19.7823C39.182 19.7823 40.0324 19.5183 40.7557 19.0236C41.479 18.5289 42.0428 17.8257 42.3757 17.0031C42.7086 16.1805 42.7957 15.2753 42.6259 14.4019C42.4562 13.5286 42.0373 12.7264 41.4222 12.0968C40.8071 11.4672 40.0234 11.0384 39.1702 10.8647C38.317 10.691 37.4326 10.7801 36.629 11.1209C35.8253 11.4616 35.1383 12.0387 34.655 12.779C34.1717 13.5194 33.9138 14.3898 33.9138 15.2802C33.9196 16.4704 34.3856 17.6097 35.2098 18.4491C36.034 19.2886 37.1494 19.7598 38.3121 19.7598V19.7823ZM33.9138 24.2168H42.7105V26.4678H33.9138V24.2168ZM62.0631 26.4678H59.864V24.8584C58.4457 25.8745 56.757 26.4206 55.0258 26.4228C53.5496 26.4329 52.0947 26.0626 50.795 25.346C49.4954 24.6294 48.3928 23.5895 47.5889 22.3221C46.7851 21.0548 46.3057 19.6008 46.195 18.094C46.0843 16.5872 46.3459 15.0761 46.9556 13.7C47.5653 12.3239 48.5036 11.1269 49.684 10.2195C50.8643 9.31199 52.2488 8.72317 53.7099 8.50724C55.1709 8.29131 56.6616 8.45522 58.0445 8.98387C59.4275 9.51252 60.6582 10.3889 61.6233 11.5323L60.0069 13.0067C59.2729 12.1667 58.3451 11.528 57.3081 11.149C56.2712 10.77 55.1581 10.6627 54.0702 10.8368C52.9824 11.0109 51.9544 11.4609 51.08 12.1458C50.2056 12.8307 49.5125 13.7288 49.064 14.7581C48.6156 15.7874 48.4259 16.9152 48.5123 18.0388C48.5987 19.1623 48.9585 20.2459 49.5588 21.1907C50.1591 22.1354 50.9809 22.9114 51.9492 23.4479C52.9176 23.9843 54.0017 24.2641 55.1028 24.2618C56.0166 24.2638 56.92 24.0636 57.7512 23.6751C58.5825 23.2866 59.3219 22.7189 59.9189 22.0108H53.9812V19.7598H62.0851L62.0631 26.4678ZM70.1561 8.5722C71.4609 8.5722 72.7365 8.96826 73.8214 9.71029C74.9064 10.4523 75.752 11.507 76.2514 12.741C76.7507 13.9749 76.8814 15.3328 76.6268 16.6427C76.3722 17.9527 75.7439 19.156 74.8212 20.1004C73.8985 21.0448 72.723 21.688 71.4432 21.9486C70.1634 22.2092 68.8369 22.0754 67.6313 21.5643C66.4258 21.0532 65.3954 20.1876 64.6704 19.0771C63.9455 17.9665 63.5586 16.6609 63.5586 15.3253C63.5527 14.4328 63.7198 13.5479 64.0502 12.7219C64.3805 11.8959 64.8675 11.1451 65.4831 10.513C66.0986 9.88084 66.8305 9.37985 67.6363 9.039C68.4422 8.69814 69.3061 8.52418 70.1781 8.52718L70.1561 8.5722ZM70.1561 19.8273C71.026 19.8273 71.8764 19.5633 72.5997 19.0686C73.323 18.5739 73.8867 17.8708 74.2196 17.0481C74.5525 16.2255 74.6396 15.3203 74.4699 14.447C74.3002 13.5737 73.8813 12.7715 73.2662 12.1418C72.651 11.5122 71.8673 11.0834 71.0141 10.9097C70.161 10.736 69.2766 10.8252 68.4729 11.1659C67.6692 11.5067 66.9823 12.0837 66.499 12.8241C66.0157 13.5644 65.7577 14.4348 65.7577 15.3253C65.7751 16.5115 66.2492 17.6427 67.0769 18.4731C67.9046 19.3034 69.0191 19.7658 70.1781 19.7598L70.1561 19.8273ZM65.7577 24.2618H74.5544V26.5129H65.7577V24.2618ZM79.0957 8.52718H81.2949V26.4228H79.0957V8.52718ZM84.3407 8.52718H86.5399C86.6532 8.51488 86.7674 8.51488 86.8807 8.52718C87.8018 8.4249 88.7335 8.52232 89.6153 8.81309C90.4971 9.10386 91.3092 9.58146 91.9987 10.2148C92.6882 10.8481 93.2397 11.623 93.6172 12.489C93.9947 13.3549 94.1898 14.2926 94.1898 15.2409C94.1898 16.1891 93.9947 17.1268 93.6172 17.9927C93.2397 18.8587 92.6882 19.6336 91.9987 20.2669C91.3092 20.9003 90.4971 21.3779 89.6153 21.6686C88.7335 21.9594 87.8018 22.0568 86.8807 21.9545H86.5399V26.4566H84.3407V8.52718ZM86.5399 10.7782V19.681H86.8807C87.5019 19.7657 88.1335 19.7135 88.7334 19.528C89.3332 19.3425 89.8875 19.0279 90.3589 18.6054C90.8303 18.1828 91.2081 17.662 91.4669 17.0779C91.7258 16.4938 91.8596 15.8598 91.8596 15.2183C91.8596 14.5769 91.7258 13.9429 91.4669 13.3588C91.2081 12.7747 90.8303 12.2539 90.3589 11.8313C89.8875 11.4088 89.3332 11.0942 88.7334 10.9087C88.1335 10.7232 87.5019 10.671 86.8807 10.7557C86.7609 10.7685 86.6429 10.7949 86.5289 10.8345L86.5399 10.7782ZM102.385 9.82152L100.757 11.1384C100.477 10.8381 100.118 10.6261 99.7236 10.5272C99.3292 10.4284 98.9154 10.4468 98.5309 10.5804C98.1464 10.714 97.8071 10.9571 97.5529 11.2812C97.2987 11.6054 97.1401 11.997 97.0959 12.4102V12.5903C97.0959 13.5807 97.7666 14.2448 99.0751 14.3348C104.111 14.65 106.42 17.0698 106.42 20.2663V20.4689C106.29 21.734 105.808 22.9342 105.031 23.9269C104.254 24.9195 103.214 25.6628 102.036 26.0683C100.858 26.4737 99.5913 26.5244 98.3861 26.2141C97.1808 25.9038 96.088 25.2457 95.2376 24.3181L96.9199 22.99C97.3116 23.4196 97.7898 23.7568 98.3214 23.9784C98.853 24.1999 99.4254 24.3005 99.9988 24.2731C101.058 24.3302 102.098 23.9664 102.901 23.2575C103.704 22.5486 104.209 21.5495 104.309 20.4689V20.3113C104.309 17.3062 101.428 16.7547 98.9322 16.5071C96.6231 16.282 94.9627 14.8075 94.9627 12.6803V12.5903C95.0441 11.4828 95.5379 10.4496 96.342 9.70397C97.1462 8.95835 98.1993 8.55724 99.2841 8.58345C99.8589 8.56608 100.431 8.6723 100.963 8.89524C101.495 9.11819 101.976 9.45291 102.374 9.87779L102.385 9.82152ZM115.03 24.138C117.768 24.138 119.934 21.1104 119.934 17.385V8.38086H122.133V17.385C122.133 22.3372 118.967 26.3328 115.074 26.3328C111.182 26.3328 108.015 22.3372 108.015 17.385V8.38086H110.214V17.385C110.126 21.1667 112.292 24.1943 115.019 24.1943L115.03 24.138ZM139.012 26.389H136.813V15.2465L131.744 21.9996L126.675 15.2465V26.4228H124.476V8.52718L131.733 18.3079L138.99 8.52718L139.012 26.389Z" fill="#394149"/>
<path d="M12.088 6.0629C12.088 4.47357 11.4512 2.94933 10.3177 1.8255C9.18428 0.701672 7.64697 0.0703125 6.044 0.0703125C4.44103 0.0703125 2.90372 0.701672 1.77025 1.8255C0.636778 2.94933 0 4.47357 0 6.0629V24.1839L4.97741 27.72V36.3343H7.11059V27.72L12.088 24.1839V6.0629ZM9.95482 16.1974L7.11059 19.0175V16.3737L9.95482 13.5536V16.1974ZM2.17762 13.5536L5.02185 16.3737V19.0175L2.17762 16.1974V13.5536ZM9.95482 10.5573L6.044 14.4349L2.13318 10.4692V7.82543L6.044 11.703L9.95482 7.82543V10.5573ZM6.044 2.18534C6.9041 2.18912 7.73924 2.47234 8.42151 2.99162C9.10378 3.51091 9.59555 4.23762 9.8215 5.06047L6.044 8.79482L2.2665 5.06047C2.48419 4.22943 2.97242 3.49287 3.65543 2.96505C4.33844 2.43723 5.17806 2.14766 6.044 2.14128V2.18534ZM2.13318 23.1153V19.1497L4.97741 21.9697V25.1202L2.13318 23.1153ZM7.11059 25.1312V21.9697L9.95482 19.1497V23.1043L7.11059 25.1312Z" fill="#394149"/>
</g>
</svg>
