<svg width="18" height="19" viewBox="0 0 18 19" fill="none" xmlns="http://www.w3.org/2000/svg">
<path d="M9.00431 2.06247C11.4129 2.06247 11.6978 2.0711 12.6475 2.11426C13.528 2.15743 14.0029 2.30419 14.3223 2.42506C14.7453 2.58908 15.0388 2.78764 15.3582 3.09844C15.6777 3.41786 15.8676 3.7114 16.0316 4.13442C16.1525 4.45384 16.2993 4.92866 16.3424 5.80924C16.3856 6.75888 16.3942 7.04376 16.3942 9.4524C16.3942 11.861 16.3856 12.1459 16.3424 13.0956C16.2993 13.9761 16.1525 14.451 16.0316 14.7704C15.8676 15.1934 15.669 15.4869 15.3582 15.8064C15.0475 16.1171 14.7453 16.3157 14.3223 16.4797C14.0029 16.6006 13.528 16.7474 12.6475 16.7905C11.6978 16.8337 11.4129 16.8423 9.00431 16.8423C6.59567 16.8423 6.31078 16.8337 5.36114 16.7905C4.48057 16.7474 4.00574 16.6006 3.68632 16.4797C3.2633 16.3157 2.96976 16.1171 2.65034 15.8064C2.33091 15.4869 2.14099 15.1934 1.97696 14.7704C1.8561 14.451 1.70935 13.9761 1.66618 13.0956C1.62301 12.1459 1.61438 11.861 1.61438 9.4524C1.61438 7.04376 1.62301 6.75888 1.66618 5.80924C1.70935 4.92866 1.8561 4.45384 1.97696 4.13442C2.14099 3.7114 2.33955 3.41786 2.65034 3.09844C2.96976 2.77901 3.2633 2.58908 3.68632 2.42506C4.00574 2.30419 4.48057 2.15743 5.36114 2.11426C6.31078 2.0711 6.59567 2.06247 9.00431 2.06247ZM9.00431 0.439453C6.56114 0.439453 6.25036 0.448084 5.29209 0.49125C4.33382 0.534415 3.6777 0.689802 3.10792 0.914263C2.51223 1.14736 2.01151 1.44953 1.51079 1.95025C1.01007 2.45096 0.69927 2.95168 0.474809 3.54736C0.250349 4.11714 0.103595 4.77326 0.0517964 5.73153C0.00863098 6.68981 0 7.0006 0 9.44377C0 11.8869 0.00863098 12.1977 0.0517964 13.156C0.0949619 14.1143 0.250349 14.7704 0.474809 15.3402C0.707903 15.9359 1.01007 16.4366 1.51079 16.9373C2.01151 17.438 2.51223 17.7488 3.10792 17.9733C3.6777 18.1977 4.33382 18.3445 5.29209 18.3877C6.25036 18.4308 6.56114 18.4395 9.00431 18.4395C11.4475 18.4395 11.7583 18.4308 12.7165 18.3877C13.6748 18.3445 14.3309 18.1891 14.9007 17.9733C15.4964 17.7402 15.9971 17.438 16.4978 16.9373C16.9985 16.4366 17.3093 15.9359 17.5338 15.3402C17.7583 14.7704 17.905 14.1143 17.9568 13.156C18 12.1977 18.0086 11.8869 18.0086 9.44377C18.0086 7.0006 18 6.68981 17.9568 5.73153C17.9137 4.77326 17.7583 4.11714 17.5338 3.54736C17.3007 2.95168 16.9985 2.45096 16.4978 1.95025C15.9971 1.44953 15.4964 1.13872 14.9007 0.914263C14.3309 0.689802 13.6748 0.543048 12.7165 0.49125C11.7583 0.448084 11.4475 0.439453 9.00431 0.439453Z" fill="white"/>
<path d="M9.0043 4.82408C6.44891 4.82408 4.37695 6.89602 4.37695 9.45142C4.37695 12.0068 6.44891 14.0788 9.0043 14.0788C11.5597 14.0788 13.6316 12.0068 13.6316 9.45142C13.6316 6.89602 11.5597 4.82408 9.0043 4.82408ZM9.0043 12.4471C7.34675 12.4471 5.99998 11.1003 5.99998 9.44279C5.99998 7.78523 7.34675 6.43847 9.0043 6.43847C10.6619 6.43847 12.0086 7.78523 12.0086 9.44279C12.0086 11.109 10.6619 12.4471 9.0043 12.4471Z" fill="white"/>
<path d="M14.8907 4.6437C14.8907 5.23939 14.4072 5.72284 13.8116 5.72284C13.2159 5.72284 12.7324 5.23939 12.7324 4.6437C12.7324 4.04802 13.2159 3.56457 13.8116 3.56457C14.4072 3.55593 14.8907 4.03939 14.8907 4.6437Z" fill="white"/>
</svg>
